<?xml version="1.0" encoding="UTF-8"?>
<!DOCTYPE svg PUBLIC "-//W3C//DTD SVG 1.1//EN" "http://www.w3.org/Graphics/SVG/1.1/DTD/svg11.dtd">
<svg width="128" height="128" xmlns="http://www.w3.org/2000/svg" xmlns:xlink="http://www.w3.org/1999/xlink">
 <linearGradient id="a" gradientUnits="userSpaceOnUse">
  <stop stop-color="#fff" offset="0"/>
  <stop stop-color="#fff" stop-opacity="0" offset="1"/>
 </linearGradient>
 <linearGradient id="d" gradientUnits="userSpaceOnUse">
  <stop offset="0"/>
  <stop stop-opacity="0" offset="1"/>
 </linearGradient>
 <clipPath id="i">
  <path d="m26 14h76v96h-76z"/>
 </clipPath>
 <filter id="j">
  <feGaussianBlur stdDeviation=".856"/>
 </filter>
 <filter id="f" x="-.01" y="-.28" width="1.03" height="1.55">
  <feGaussianBlur stdDeviation=".499"/>
 </filter>
 <filter id="e" x="-.02" y="-.5" width="1.05" height="2.01">
  <feGaussianBlur stdDeviation=".914"/>
 </filter>
 <filter id="m">
  <feGaussianBlur stdDeviation=".415"/>
 </filter>
 <filter id="o">
  <feGaussianBlur stdDeviation=".424"/>
 </filter>
 <radialGradient id="b" cx="78.03" cy="42.79" r="59.17" gradientTransform="matrix(1.5735 -.4216 .3229 1.2052 -101.76 16.16)" xlink:href="#a"/>
 <mask id="t">
  <rect x="24.34" y="26.86" width="118.35" height="90.65" rx="1.87" fill="url(#b)" opacity=".75"/>
 </mask>
 <clipPath id="s">
  <path d="m24.01 20.015h80c0 40 .7262 71.78 4 84h-88c3.274-12.22 4-44 4-84z"/>
 </clipPath>
 <filter id="T" x="-.09" y="-.28" width="1.17" height="1.57">
  <feGaussianBlur stdDeviation=".739"/>
 </filter>
 <filter id="W" x="-.06" y="-.2" width="1.13" height="1.4">
  <feGaussianBlur stdDeviation=".76"/>
 </filter>
 <filter id="U" x="-.14" y="-.45" width="1.28" height="1.89">
  <feGaussianBlur stdDeviation="4.55"/>
 </filter>
 <filter id="V" x="-.12" y="-.44" width="1.24" height="1.89">
  <feGaussianBlur stdDeviation="9.087"/>
 </filter>
 <filter id="X" x="-.08" y="-.25" width="1.16" height="1.51">
  <feGaussianBlur stdDeviation=".51"/>
 </filter>
 <filter id="Q" x="-.36" y="-.31" width="1.71" height="1.62">
  <feGaussianBlur stdDeviation=".227"/>
 </filter>
 <filter id="P" x="-.26" y="-.02" width="1.52" height="1.04">
  <feGaussianBlur stdDeviation=".277"/>
 </filter>
 <filter id="N">
  <feGaussianBlur stdDeviation=".15"/>
 </filter>
 <clipPath id="K">
  <path d="m2280.9-1313.7c0-7.67 16.7-8.005 16.701 0l.7591 26.436h-18.219z"/>
 </clipPath>
 <filter id="L">
  <feGaussianBlur stdDeviation=".362"/>
 </filter>
 <filter id="I" x="-.48" y="-.04" width="1.96" height="1.07">
  <feGaussianBlur stdDeviation=".98"/>
 </filter>
 <filter id="H">
  <feGaussianBlur stdDeviation=".069"/>
 </filter>
 <clipPath id="F">
  <path d="m2410.7-1125.5-.125 20.406h.125v-.1875c2.196-2.14 6.691-3.594 11.875-3.5937 5.184 0 9.68 1.453 11.875 3.5937v.1875h.125l-.125-20.406z"/>
 </clipPath>
 <filter id="G" x="-.08" y="-.37" width="1.16" height="1.74">
  <feGaussianBlur stdDeviation=".818"/>
 </filter>
 <clipPath id="D">
  <path d="m2324.3-1105.6c-1.471 14.38 2.311 28.84 9.7339 39.868h4.5462c7.423-11.03 11.21-25.49 9.7339-39.868-5.89-4.64-18.32-4.887-24.014 0z"/>
 </clipPath>
 <filter id="E" x="-.12" y="-.03" width="1.23" height="1.05">
  <feGaussianBlur stdDeviation=".569"/>
 </filter>
 <clipPath id="A">
  <path d="m2293.5-1105.6c-1.471 14.38 2.311 28.84 9.7339 39.868h4.5462c7.423-11.03 11.21-25.49 9.7339-39.868-5.89-4.64-18.32-4.887-24.014 0z"/>
 </clipPath>
 <filter id="C">
  <feGaussianBlur stdDeviation=".456"/>
 </filter>
 <filter id="B" x="-.13" y="-.05" width="1.25" height="1.1">
  <feGaussianBlur stdDeviation=".985"/>
 </filter>
 <linearGradient id="c" gradientUnits="userSpaceOnUse">
  <stop stop-color="#818181" offset="0"/>
  <stop stop-color="#fff" offset=".167"/>
  <stop stop-color="#fafafa" offset=".301"/>
  <stop stop-color="#d7d7d7" offset=".417"/>
  <stop offset=".448"/>
  <stop stop-color="#d5d5d5" offset=".594"/>
  <stop stop-color="#c8c8c8" offset=".703"/>
  <stop stop-color="#333" offset=".758"/>
  <stop stop-color="#c1c1c1" offset=".95"/>
  <stop stop-color="#343434" offset="1"/>
 </linearGradient>
 <radialGradient id="u" cx="2435.5" cy="-1290.9" r="2.03" fy="-1289.7" gradientUnits="userSpaceOnUse">
  <stop stop-color="#fff" offset="0"/>
  <stop offset=".783"/>
  <stop offset="1"/>
 </radialGradient>
 <radialGradient id="v" cx="2435.5" cy="-1290.9" r="2.03" fx="2435.3" fy="-1292.2" gradientUnits="userSpaceOnUse">
  <stop stop-color="#fff" stop-opacity="0" offset="0"/>
  <stop stop-color="#fff" offset=".717"/>
  <stop stop-color="#fff" stop-opacity="0" offset="1"/>
 </radialGradient>
 <linearGradient id="w" x1="2205.9" x2="2229.1" y1="-1222.1" y2="-1222.1" gradientTransform="matrix(.7223 0 0 .6826 639.85 -417.25)" xlink:href="#c"/>
 <linearGradient id="x" x1="2243.1" x2="2242.4" y1="-1322.6" y2="-1315.6" gradientTransform="matrix(.9515 0 0 .83 108.79 -218.45)" gradientUnits="userSpaceOnUse">
  <stop stop-color="#181818" offset="0"/>
  <stop stop-color="#181818" stop-opacity="0" offset="1"/>
 </linearGradient>
 <linearGradient id="y" x1="2237.5" x2="2242.3" y1="-1316.2" y2="-1318.9" gradientTransform="matrix(.9515 0 0 .83 109.08 -218.34)" gradientUnits="userSpaceOnUse">
  <stop stop-color="#fdfdfd" offset="0"/>
  <stop stop-color="#fdfdfd" stop-opacity="0" offset="1"/>
 </linearGradient>
 <linearGradient id="z" x1="2205.9" x2="2229.1" y1="-1222.1" y2="-1222.1" gradientTransform="matrix(1 0 0 1.0833 24 127.84)" xlink:href="#c"/>
 <radialGradient id="J" cx="2227.8" cy="-1254.7" r="4.76" gradientTransform="matrix(1 0 0 6.8768 0 7379.1)" gradientUnits="userSpaceOnUse">
  <stop stop-color="#5b5b5b" offset="0"/>
  <stop stop-color="#202020" offset="1"/>
 </radialGradient>
 <linearGradient id="M" x1="2227.1" x2="2231.8" y1="-1248.2" y2="-1249" xlink:href="#a"/>
 <linearGradient id="O" x1="2229" x2="2231.2" y1="-1270.7" y2="-1270.7" xlink:href="#a"/>
 <linearGradient id="R" x1="2205.9" x2="2229.1" y1="-1222.1" y2="-1222.1" gradientTransform="matrix(.1054 0 0 -.0352 2007.8 -1106.8)" xlink:href="#c"/>
 <linearGradient id="S" x1="2242.9" x2="2242.9" y1="-1066.5" y2="-1064.6" xlink:href="#d"/>
 <radialGradient id="g" cx="64" cy="24" r="44" gradientTransform="matrix(3.3597 0 0 1.902 -151.02 -28.65)" gradientUnits="userSpaceOnUse">
  <stop stop-color="#c1c9d4" offset="0"/>
  <stop stop-color="#111418" offset="1"/>
 </radialGradient>
 <radialGradient id="h" cx="64" cy="36.5" r="42" gradientTransform="matrix(2.3452 0 0 2.8484 -86.1 -73.47)" gradientUnits="userSpaceOnUse">
  <stop stop-color="#c8d9ef" offset="0"/>
  <stop stop-color="#2b3543" offset="1"/>
 </radialGradient>
 <linearGradient id="p" x1="62.19" x2="62.19" y1="91.59" y2="56.79" gradientUnits="userSpaceOnUse">
  <stop stop-color="#fff" offset="0"/>
  <stop stop-color="#f9f9f9" offset="1"/>
 </linearGradient>
 <linearGradient id="q" x1="52" x2="52" y1="102.72" y2="110.1" gradientTransform="matrix(1.1111 0 0 1 -7.11 0)" xlink:href="#d"/>
 <linearGradient id="r" x1="68.5" x2="68.5" y1="-15.25" y2="120.6" gradientUnits="userSpaceOnUse">
  <stop stop-color="#f9ccca" offset="0"/>
  <stop stop-color="#f9ccca" stop-opacity="0" offset="1"/>
 </linearGradient>
 <radialGradient id="k" cx="64" cy="21.06" r="38.83" gradientTransform="matrix(1.5225 0 0 3.2569 -33.44 -49.33)" xlink:href="#a"/>
 <g transform="translate(-12)">
  <rect transform="matrix(1.0173 0 0 1.8475 -1.11 -101.64)" x="19.06" y="116.55" width="89.88" height="4.36" rx="2.18" filter="url(#e)" opacity=".58"/>
  <rect transform="matrix(.9814 0 0 1.0481 1.19 -5.61)" x="19.06" y="116.55" width="89.88" height="4.36" rx="1.9" ry="1.78" filter="url(#f)" opacity=".75"/>
  <rect x="21" y="17" width="86" height="103" rx="1.5" fill="url(#g)"/>
  <path d="m22 18h84v100h-84z" fill="url(#h)"/>
  <g transform="matrix(.9988 0 0 .9612 .08 4.58)">
   <path id="l" transform="matrix(1.1066 0 0 1.0842 -6.82 -1.22)" d="m26 14h76v96h-76z" clip-path="url(#i)" fill="none" filter="url(#j)" stroke="url(#k)" stroke-width=".93"/>
   <use width="128" height="128" xlink:href="#l"/>
   <use width="128" height="128" xlink:href="#l"/>
  </g>
  <path transform="matrix(1.1111 0 0 1 -7.11 0)" d="m28 20.5h72v92h-72z" filter="url(#m)" opacity=".64" stroke="#000" stroke-width=".5"/>
  <path d="m24 20h80v92h-80z" fill="#fff"/>
  <g transform="matrix(1.1111 0 0 1 -7.11 0)">
   <path id="n" transform="matrix(1 0 0 .5 0 163.5)" d="m28-106h72v1h-72z" fill="#9a9a9a" opacity=".41"/>
   <use transform="translate(0 -2)" width="128" height="128" xlink:href="#n"/>
   <use transform="translate(0 -4)" width="128" height="128" xlink:href="#n"/>
   <use transform="translate(0 -6)" width="128" height="128" xlink:href="#n"/>
  </g>
  <path d="m24.6 21.759h78.801c0 39.4 2.215 70.71 5.44 82.741h-89.681c3.225-12.03 5.44-43.34 5.44-82.741z" filter="url(#o)" opacity=".72"/>
  <path d="m24 20h80c0 40 .7262 71.78 4 84h-88c3.274-12.22 4-44 4-84z" fill="url(#p)"/>
  <path d="m24 104h80v8h-80z" fill="url(#q)"/>
  <path d="m31.5 20c0 40-.7262 71.78-4 84h.5c3.274-12.22 4-44 4-84z" fill="url(#r)" opacity=".62"/>
  <g clip-path="url(#s)" mask="url(#t)" opacity=".75">
   <g fill="#00f">
    <path d="m32.28 37.548h2.2998v4.7705h1.7822v.6982h-4.4629v-.6982h1.7822v-4.0723h-1.4014zm1.4014-2.1289h.8984v1.1377h-.8984z"/>
    <path d="m41.946 39.628v3.3887h-.9033v-3.3887q0-.7373-.2588-1.084-.2588-.3467-.8106-.3467-.6299 0-.9717.4492-.3369.4443-.3369 1.2793v3.0908h-.8984v-5.4688h.8984v.8203q.2393-.4688.6494-.708.4102-.2441.9717-.2441.835 0 1.2451.5518.415.5469.415 1.6602z"/>
    <path d="m45.597 35.995v1.5527h2.041v.6982h-2.041v2.9688q0 .6055.2295.8447.2295.2393.8008.2393h1.0107v.7178h-1.0986q-1.011 0-1.4258-.4053-.415-.4053-.415-1.3965v-2.9688h-1.46v-.6982h1.46v-1.5527z"/>
   </g>
   <path d="m57.47 38.104q.166-.3516.4199-.5176.2588-.1709.6201-.1709.6592 0 .9277.5127.2734.5078.2734 1.9189v3.1689h-.8203v-3.1299q0-1.157-.1318-1.4355-.127-.2832-.4688-.2832-.3906 0-.5371.3027-.1416.2979-.1416 1.416v3.1299h-.8203v-3.1299q0-1.172-.1416-1.4453-.1367-.2734-.4981-.2734-.3564 0-.4981.3027-.1367.2979-.1367 1.416v3.1299h-.8154v-5.4688h.8154v.4688q.1611-.293.4004-.4443.2441-.1562.5518-.1563.3711 0 .6152.1709.249.1709.3857.5176z"/>
   <path d="m63.382 40.267h-.2979q-.7861 0-1.1865.2783-.3955.2734-.3955.8203 0 .4932.2979.7666.2979.2734.8252.2734.7422 0 1.167-.5127.4248-.5176.4297-1.4258v-.2002zm1.7432-.3711v3.1201h-.9033v-.8106q-.2881.4883-.7275.7227-.4346.2295-1.0596.2295-.835 0-1.333-.4688-.498-.4736-.4981-1.2646 0-.9131.6103-1.3867.6152-.4736 1.8018-.4736h1.2061v-.1416q-.0049-.6543-.332-.9473-.3271-.2979-1.0449-.2979-.459 0-.9277.1318-.4688.1318-.9131.3857v-.8984q.498-.1904.9522-.2832.459-.0977.8887-.0977.6787 0 1.1572.2002.4834.2002.7813.6006.1855.2441.2637.6055.0781.3564.0781 1.0742z"/>
   <path d="m66.989 37.548h2.2998v4.7705h1.7822v.6982h-4.4629v-.6982h1.7822v-4.0723h-1.4014zm1.4014-2.1289h.8984v1.1377h-.8984z"/>
   <path d="m76.655 39.628v3.3887h-.9033v-3.3887q0-.7373-.2588-1.084-.2588-.3467-.8106-.3467-.6299 0-.9717.4492-.3369.4443-.3369 1.2793v3.0908h-.8984v-5.4688h.8984v.8203q.2393-.4688.6494-.708.4102-.2441.9717-.2441.835 0 1.2451.5518.415.5469.415 1.6602z"/>
   <path d="m81.63 35.429q-.6494 1.113-.9717 2.2217-.3174 1.104-.3174 2.2266 0 1.118.3174 2.2266.3223 1.108.9717 2.2314h-.7813q-.7373-1.162-1.0986-2.2607-.3613-1.104-.3613-2.1973 0-1.089.3613-2.1924.3613-1.104 1.0986-2.2559z"/>
   <g fill="#00f">
    <path d="m84.343 37.548h2.2998v4.7705h1.7822v.6982h-4.4629v-.6982h1.7822v-4.0723h-1.4014zm1.4014-2.1289h.8984v1.1377h-.8984z"/>
    <path d="m94.01 39.628v3.3887h-.9033v-3.3887q0-.7373-.2588-1.084-.2588-.3467-.8106-.3467-.6299 0-.9717.4492-.3369.4443-.3369 1.2793v3.0908h-.8984v-5.4688h.8984v.8203q.2393-.4688.6494-.708.4102-.2441.9717-.2441.835 0 1.2451.5518.415.5469.415 1.6602z"/>
    <path d="m97.661 35.995v1.5527h2.041v.6982h-2.041v2.9688q0 .6055.2295.8447.2295.2393.8008.2393h1.0107v.7178h-1.0986q-1.011 0-1.4258-.4053-.415-.4053-.415-1.3965v-2.9688h-1.46v-.6982h1.46v-1.5527z"/>
   </g>
   <path d="m109.6603 40.2674h-.2979q-.7861 0-1.1865.2783-.3955.2734-.3955.8203 0 .4932.2979.7666.2979.2734.8252.2734.7422 0 1.167-.5127.4248-.5176.4297-1.4258v-.2002zm1.7432-.3711v3.1201h-.9033v-.8105q-.2881.4883-.7275.7227-.4346.2295-1.0596.2295-.835 0-1.333-.4688-.498-.4736-.498-1.2646 0-.9131.6103-1.3867.6152-.4736 1.8018-.4736h1.2061v-.1416q-.005-.6543-.332-.9473-.3272-.2979-1.0449-.2979-.459 0-.9277.1318-.4688.1318-.9131.3857v-.8984q.4981-.1904.9522-.2832.459-.0977.8887-.0977.6787 0 1.1572.2002.4834.2002.7813.6006.1855.2441.2637.6055.0781.3564.0781 1.0742z"/>
   <path d="m117.66 38.676q-.2881-.2246-.5859-.3272t-.6543-.1025q-.8398 0-1.2842.5273-.4443.5273-.4443 1.5234v2.7197h-.9033v-5.4688h.9033v1.0693q.2246-.5811.6885-.8887.4688-.3125 1.1084-.3125.332 0 .6201.083.2881.083.5518.2588z"/>
   <path d="m121.99 40.238q0-1.011-.332-1.5332-.3272-.5273-.957-.5273-.6592 0-1.0059.5273-.3467.5225-.3467 1.5332 0 1.011.3467 1.543.3516.5273 1.0156.5273.6201 0 .9473-.5322.332-.5322.332-1.5381zm.8984 2.4268q0 1.23-.5811 1.8652-.5811.6348-1.709.6348-.3711 0-.7764-.0684-.4053-.0684-.8106-.2002v-.8887q.4785.2246.8691.332.3906.1074.7178.1074.7275 0 1.0596-.3955.332-.3955.332-1.2549v-.6494q-.2148.459-.5859.6836t-.9033.2246q-.957 0-1.5283-.7666-.5713-.7666-.5713-2.0508 0-1.289.5713-2.0557.5713-.7666 1.5283-.7666.5273 0 .8936.21t.5957.6494v-.708h.8984z"/>
   <path d="m128.77 42.738q-.3613.21-.7471.3125-.3809.1074-.7813.1074-1.27 0-1.9873-.7617-.7129-.7617-.7129-2.1094 0-1.348.7129-2.1094.7178-.7617 1.9873-.7617.3955 0 .7715.1025.376.1025.7568.3174v.9424q-.3564-.3174-.7178-.459-.3564-.1416-.8106-.1416-.8447 0-1.2988.5469t-.4541 1.5625q0 1.011.4541 1.5625.459.5469 1.2988.5469.4688 0 .8398-.1416.3711-.1465.6885-.4492z"/>
   <path d="m134.31 43.944v.7031h-.3125q-1.216 0-1.6309-.3613-.4102-.3613-.4102-1.4404v-1.167q0-.7373-.2637-1.0205-.2588-.2832-.9424-.2832h-.3027v-.6982h.3027q.6885 0 .9473-.2783.2588-.2783.2588-1.0107v-1.1719q0-1.079.4102-1.4355.415-.3613 1.6309-.3613h.3125v.6982h-.3418q-.6836 0-.8936.2148-.2051.21-.2051.9033v1.2109q0 .7666-.2246 1.1133-.2197.3467-.7568.4688.542.1318.7617.4785.2197.3467.2197 1.1084v1.2109q0 .6982.2051.9082.21.21.8936.21z"/>
   <path d="m37.483 47.426h.9912v3.2422l3.0811-3.2422h1.1572l-2.8369 2.9785 2.9199 4.3115h-1.1914l-2.3779-3.6523-.752.8008v2.8516h-.9912z"/>
   <path d="m45.607 48.295-1.04 3.7305h2.0801zm-.5957-.8691h1.1963l2.2314 7.29h-1.0205l-.5371-1.8994h-2.5537l-.5273 1.8994h-1.0205z"/>
   <path d="m52.866 51.987q0-1.045-.332-1.5771-.332-.5322-.9814-.5322-.6543 0-.9912.5371-.3369.5322-.3369 1.5723 0 1.035.3369 1.5723.3369.5371.9912.5371.6494 0 .9814-.5322.332-.5322.332-1.5771zm-2.6416-2.041q.2148-.4004.5908-.6152.3809-.2148.8789-.2148.9863 0 1.5527.7617.5664.7568.5664 2.0898 0 1.353-.5713 2.124-.5664.7666-1.5576.7666-.4883 0-.8643-.21-.3711-.2148-.5957-.6201v.6885h-.8984v-7.5977h.8984z"/>
   <path d="m57.177 49.878q-.6836 0-1.0352.5322-.3516.5322-.3516 1.5771 0 1.04.3516 1.5771.3516.5322 1.0352.5322.6885 0 1.04-.5322.3516-.5371.3516-1.5771 0-1.045-.3516-1.5771-.3516-.5322-1.04-.5322zm0-.7617q1.138 0 1.7383.7373.6055.7373.6055 2.1338 0 1.401-.6006 2.1387-.6006.7324-1.7432.7324-1.138 0-1.7383-.7324-.6006-.7373-.6006-2.1387 0-1.396.6006-2.1338t1.7383-.7373z"/>
   <path d="m60.906 52.646v-3.3887h.8984v3.3887q0 .7373.2588 1.084.2637.3467.8106.3467.6348 0 .9717-.4443.3369-.4492.3369-1.2842v-3.0908h.9033v5.459h-.9033v-.8203q-.2393.4736-.6543.7178-.4102.2441-.9619.2441-.8398 0-1.25-.5469-.4102-.5518-.4102-1.665z"/>
   <path d="m68.737 47.695v1.5527h2.041v.6982h-2.041v2.9688q0 .6055.2295.8447.2295.2393.8008.2393h1.0107v.7178h-1.0986q-1.011 0-1.4258-.4053-.415-.4053-.415-1.3965v-2.9688h-1.46v-.6982h1.46v-1.5527z"/>
   <path d="m73.652 53.906q1.245 0 1.7383-.6103.4932-.6152.4932-2.2168 0-1.616-.4932-2.2266-.4883-.6152-1.7383-.6152h-.4688v5.6689zm.0195-6.4795q1.67 0 2.4609.8887.791.8887.791 2.7637 0 1.865-.791 2.7539-.791.8838-2.4609.8838h-1.4795v-7.29z"/>
   <path d="m80.736 51.967h-.2979q-.7861 0-1.1865.2783-.3955.2734-.3955.8203 0 .4932.2979.7666.2979.2734.8252.2734.7422 0 1.167-.5127.4248-.5176.4297-1.4258v-.2002zm1.7432-.3711v3.1201h-.9033v-.8106q-.2881.4883-.7275.7227-.4346.2295-1.0596.2295-.835 0-1.333-.4688-.498-.4736-.4981-1.2646 0-.9131.6103-1.3867.6152-.4736 1.8018-.4736h1.2061v-.1416q-.0049-.6543-.332-.9473-.3271-.2979-1.0449-.2979-.459 0-.9277.1318t-.9131.3857v-.8984q.498-.1904.9522-.2832.459-.0977.8887-.0977.6787 0 1.1572.2002.4834.2002.7813.6006.1855.2441.2637.6055.0781.3564.0781 1.0742z"/>
   <path d="m86.091 47.695v1.5527h2.041v.6982h-2.041v2.9688q0 .6055.2295.8447.2295.2393.8008.2393h1.0107v.7178h-1.0986q-1.011 0-1.4258-.4053-.415-.4053-.415-1.3965v-2.9688h-1.46v-.6982h1.46v-1.5527z"/>
   <path d="m92.306 51.967h-.2979q-.7861 0-1.1865.2783-.3955.2734-.3955.8203 0 .4932.2979.7666.2979.2734.8252.2734.7422 0 1.167-.5127.4248-.5176.4297-1.4258v-.2002zm1.7432-.3711v3.1201h-.9033v-.8106q-.2881.4883-.7275.7227-.4346.2295-1.0596.2295-.835 0-1.333-.4688-.498-.4736-.4981-1.2646 0-.9131.6103-1.3867.6152-.4736 1.8018-.4736h1.2061v-.1416q-.0049-.6543-.332-.9473-.3271-.2979-1.0449-.2979-.459 0-.9277.1318t-.9131.3857v-.8984q.498-.1904.9522-.2832.459-.0977.8887-.0977.6787 0 1.1572.2002.4834.2002.7813.6006.1855.2441.2637.6055.0781.3564.0781 1.0742z"/>
   <path d="m98.984 47.129q-.6494 1.113-.9717 2.2217-.3174 1.104-.3174 2.2266 0 1.118.3174 2.2266.3223 1.108.9717 2.2314h-.7813q-.7373-1.162-1.0986-2.2607-.3613-1.104-.3613-2.1973 0-1.089.3613-2.1924t1.0986-2.2559z"/>
   <path d="m104.82 47.426v2.71h-.8496v-2.71zm-1.8701 0v2.71h-.8496v-2.71z"/>
   <path d="m37.483 59.126h.9912v3.2422l3.0811-3.2422h1.1572l-2.8369 2.9785 2.9199 4.3115h-1.1914l-2.3779-3.6523-.752.8008v2.8516h-.9912z"/>
   <path d="m43.849 60.948h2.2998v4.7705h1.7822v.6982h-4.4629v-.6982h1.7822v-4.0723h-1.4014zm1.4014-2.1289h.8984v1.1377h-.8984z"/>
   <path d="m49.702 65.586h1.5332v-5.5713l-1.6504.3711v-.8984l1.6406-.3613h.9863v6.46h1.5137v.8301h-4.0234z"/>
   <path d="m57.177 62.954q-.6592 0-1.0205.3711-.3564.3662-.3564 1.04t.3613 1.0498q.3662.3711 1.0156.3711.6641 0 1.0205-.3662.3613-.3711.3613-1.0547 0-.6689-.3662-1.04-.3613-.3711-1.0156-.3711zm-.8594-.4102q-.6299-.1611-.9863-.6006-.3516-.4395-.3516-1.0596 0-.8691.5908-1.377.5908-.5127 1.6064-.5127 1.021 0 1.6113.5127.5908.5078.5908 1.377 0 .6201-.3565 1.0596-.3516.4395-.9814.6006.7324.1611 1.1182.6494.3906.4883.3906 1.2646 0 .9863-.6299 1.543-.6299.5566-1.7432.5566t-1.7432-.5518q-.625-.5566-.625-1.5381 0-.7812.3857-1.2695.3906-.4932 1.123-.6543zm-.3564-1.5674q0 .5859.3125.8936.3125.3076.9033.3076.5957 0 .9082-.3076.3125-.3076.3125-.8936 0-.5957-.3125-.9082-.3076-.3125-.9082-.3125-.5908 0-.9033.3174-.3125.3125-.3125.9033z"/>
   <path d="m65.086 63.028v3.3887h-.9033v-3.3887q0-.7373-.2588-1.084-.2588-.3467-.8106-.3467-.6299 0-.9717.4492-.3369.4443-.3369 1.2793v3.0908h-.8984v-5.4688h.8984v.8203q.2393-.4688.6494-.708.4102-.2441.9717-.2441.835 0 1.2451.5518.415.5469.415 1.6602z"/>
   <path d="m70.06 58.828q-.6494 1.113-.9717 2.2217-.3174 1.104-.3174 2.2266 0 1.118.3174 2.2266.3223 1.108.9717 2.2314h-.7813q-.7373-1.162-1.0986-2.2607-.3613-1.104-.3613-2.1973 0-1.089.3613-2.1924.3613-1.104 1.0986-2.2559z"/>
   <g fill="#888">
    <path d="m75.894 59.126v2.71h-.8496v-2.71zm-1.8701 0v2.71h-.8496v-2.71z"/>
    <path d="m77.977 59.126h.9912v3.2422l3.0811-3.2422h1.1572l-2.8369 2.9785 2.9199 4.3115h-1.1914l-2.3779-3.6523-.752.8008v2.8516h-.9912z"/>
    <path d="m86.521 63.667h-.2979q-.7861 0-1.1865.2783-.3955.2734-.3955.8203 0 .4932.2979.7666.2979.2734.8252.2734.7422 0 1.167-.5127.4248-.5176.4297-1.4258v-.2002zm1.7432-.3711v3.1201h-.9033v-.8106q-.2881.4883-.7275.7227-.4346.2295-1.0596.2295-.835 0-1.333-.4688-.498-.4736-.4981-1.2646 0-.9131.6103-1.3867.6152-.4736 1.8018-.4736h1.2061v-.1416q-.0049-.6543-.332-.9473-.3271-.2979-1.0449-.2979-.459 0-.9277.1318t-.9131.3857v-.8984q.498-.1904.9522-.2832.459-.0977.8887-.0977.6787 0 1.1572.2002.4834.2002.7813.6006.1855.2441.2637.6055.0781.3564.0781 1.0742z"/>
    <path d="m91.876 59.395v1.5527h2.041v.6982h-2.041v2.9688q0 .6055.2295.8447.2295.2393.8008.2393h1.0107v.7178h-1.0986q-1.011 0-1.4258-.4053-.415-.4053-.415-1.3965v-2.9688h-1.46v-.6982h1.46v-1.5527z"/>
    <path d="m100.09 63.457v.4395h-3.8916v.0293q0 .8936.4639 1.3818.4688.4883 1.3184.4883.4297 0 .8984-.1367t1.001-.415v.8936q-.5127.21-.9912.3125-.4736.1074-.918.1074-1.274 0-1.9922-.7617-.7178-.7666-.7178-2.1094 0-1.309.7031-2.0898t1.875-.7813q1.045 0 1.6455.708.6055.708.6055 1.9336zm-.8984-.2637q-.0195-.791-.376-1.2012-.3516-.415-1.0156-.415-.6494 0-1.0693.4297-.4199.4297-.4981 1.1914z"/>
    <path d="m104.82 59.126v2.71h-.8496v-2.71zm-1.8701 0v2.71h-.8496v-2.71z"/>
   </g>
   <path d="m107.93 58.828h.7813q.7373 1.152 1.0986 2.2559.3613 1.104.3613 2.1924 0 1.099-.3613 2.2021-.3613 1.104-1.0986 2.2559h-.7813q.6494-1.133.9668-2.2412.3223-1.108.3223-2.2168 0-1.113-.3223-2.2217-.3174-1.108-.9668-2.2266z"/>
   <g fill="#00f">
    <path d="m42.454 73.776q-.2881-.2246-.5859-.3272-.2979-.1025-.6543-.1025-.8398 0-1.2842.5273-.4443.5273-.4443 1.5234v2.7197h-.9033v-5.4688h.9033v1.0693q.2246-.5811.6885-.8887.4688-.3125 1.1084-.3125.332 0 .6201.083t.5518.2588z"/>
    <path d="m48.029 75.157v.4395h-3.8916v.0293q0 .8936.4639 1.3818.4688.4883 1.3184.4883.4297 0 .8984-.1367.4688-.1367 1.001-.415v.8936q-.5127.21-.9912.3125-.4736.1074-.918.1074-1.274 0-1.9922-.7617-.7178-.7666-.7178-2.1094 0-1.309.7031-2.0898t1.875-.7813q1.045 0 1.6455.708.6055.708.6055 1.9336zm-.8984-.2637q-.0195-.791-.376-1.2012-.3516-.415-1.0156-.415-.6494 0-1.0693.4297-.4199.4297-.4981 1.1914z"/>
    <path d="m51.382 71.095v1.5527h2.041v.6982h-2.041v2.9688q0 .6055.2295.8447t.8008.2393h1.0107v.7178h-1.0986q-1.011 0-1.4258-.4053t-.415-1.3965v-2.9688h-1.46v-.6982h1.46v-1.5527z"/>
    <path d="m55.121 76.046v-3.3887h.8984v3.3887q0 .7373.2588 1.084.2637.3467.8106.3467.6348 0 .9717-.4443.3369-.4492.3369-1.2842v-3.0908h.9033v5.459h-.9033v-.8203q-.2393.4736-.6543.7178-.4102.2441-.9619.2441-.8398 0-1.25-.5469-.4102-.5518-.4102-1.665z"/>
    <path d="m65.593 73.776q-.2881-.2246-.5859-.3272-.2979-.1025-.6543-.1025-.8398 0-1.2842.5273-.4443.5273-.4443 1.5234v2.7197h-.9033v-5.4688h.9033v1.0693q.2246-.5811.6885-.8887.4688-.3125 1.1084-.3125.332 0 .6201.083t.5518.2588z"/>
    <path d="m70.87 74.728v3.3887h-.9033v-3.3887q0-.7373-.2588-1.084-.2588-.3467-.8106-.3467-.6299 0-.9717.4492-.3369.4443-.3369 1.2793v3.0908h-.8984v-5.4688h.8984v.8203q.2393-.4688.6494-.708.4102-.2441.9717-.2441.835 0 1.2451.5518.415.5469.415 1.6602z"/>
   </g>
   <path d="m80.736 75.367h-.2979q-.7861 0-1.1865.2783-.3955.2734-.3955.8203 0 .4932.2979.7666.2979.2734.8252.2734.7422 0 1.167-.5127.4248-.5176.4297-1.4258v-.2002zm1.7432-.3711v3.1201h-.9033v-.8106q-.2881.4883-.7275.7227-.4346.2295-1.0596.2295-.835 0-1.333-.4688-.498-.4736-.4981-1.2646 0-.9131.6103-1.3867.6152-.4736 1.8018-.4736h1.2061v-.1416q-.0049-.6543-.332-.9473-.3271-.2979-1.0449-.2979-.459 0-.9277.1318t-.9131.3857v-.8984q.498-.1904.9522-.2832.459-.0977.8887-.0977.6787 0 1.1572.2002.4834.2002.7813.6006.1855.2441.2637.6055.0781.3564.0781 1.0742z"/>
   <path d="m84.924 77.428v2.7686h-.9033v-7.5488h.9033v.6982q.2246-.4053.5957-.6152.376-.2148.8643-.2148.9912 0 1.5527.7666.5664.7666.5664 2.124 0 1.333-.5664 2.0947-.5664.7568-1.5527.7568-.498 0-.874-.21-.3711-.2148-.5859-.6201zm2.6367-2.041q0-1.045-.332-1.5771-.3271-.5322-.9766-.5322-.6543 0-.9912.5371-.3369.5322-.3369 1.5723 0 1.035.3369 1.5723t.9912.5371q.6494 0 .9766-.5322.332-.5322.332-1.5771z"/>
   <path d="m90.709 77.428v2.7686h-.9033v-7.5488h.9033v.6982q.2246-.4053.5957-.6152.376-.2148.8643-.2148.9912 0 1.5527.7666.5664.7666.5664 2.124 0 1.333-.5664 2.0947-.5664.7568-1.5527.7568-.498 0-.874-.21-.3711-.2148-.5859-.6201zm2.6367-2.041q0-1.045-.332-1.5771-.3271-.5322-.9766-.5322-.6543 0-.9912.5371-.3369.5322-.3369 1.5723 0 1.035.3369 1.5723t.9912.5371q.6494 0 .9766-.5322.332-.5322.332-1.5771z"/>
   <path d="m97.051 76.627h1.2305v1.4893h-1.2305z"/>
   <g fill="#00f">
    <path d="m105.88 75.157v.4395h-3.8916v.0293q0 .8936.4639 1.3818.4688.4883 1.3184.4883.4297 0 .8984-.1367.4688-.1367 1.001-.415v.8936q-.5127.21-.9912.3125-.4736.1074-.918.1074-1.274 0-1.9922-.7617-.7178-.7666-.7178-2.1094 0-1.309.7031-2.0898.7031-.7812 1.875-.7813 1.045 0 1.6455.708.6055.708.6055 1.9336zm-.8984-.2637q-.0195-.791-.376-1.2012-.3516-.415-1.0156-.415-.6494 0-1.0693.4297-.4199.4297-.498 1.1914z"/>
    <path d="m111.69 72.648-1.958 2.6172 2.1484 2.8516h-1.04l-1.6016-2.1924-1.5967 2.1924h-1.04l2.1484-2.8516-1.958-2.6172h.9961l1.4502 1.9775 1.4404-1.9775z"/>
    <path d="m117.45 75.157v.4395h-3.8916v.0293q0 .8936.4639 1.3818.4688.4883 1.3184.4883.4297 0 .8984-.1367.4688-.1367 1.001-.415v.8936q-.5127.21-.9912.3125-.4736.1074-.918.1074-1.274 0-1.9922-.7617-.7178-.7666-.7178-2.1094 0-1.309.7031-2.0898.7031-.7812 1.875-.7813 1.045 0 1.6455.708.6055.708.6055 1.9336zm-.8984-.2637q-.0195-.791-.376-1.2012-.3516-.415-1.0156-.415-.6494 0-1.0693.4297-.4199.4297-.498 1.1914z"/>
    <path d="m122.98 77.838q-.3613.21-.7471.3125-.3809.1074-.7813.1074-1.27 0-1.9873-.7617-.7129-.7617-.7129-2.1094 0-1.348.7129-2.1094.7178-.7617 1.9873-.7617.3955 0 .7715.1025t.7568.3174v.9424q-.3564-.3174-.7178-.459-.3564-.1416-.8105-.1416-.8447 0-1.2988.5469t-.4541 1.5625q0 1.011.4541 1.5625.459.5469 1.2988.5469.4688 0 .8398-.1416.3711-.1465.6885-.4492z"/>
   </g>
   <path d="m127.91 70.528q-.6494 1.113-.9717 2.2217-.3174 1.104-.3174 2.2266 0 1.118.3174 2.2266.3223 1.108.9717 2.2314h-.7813q-.7373-1.162-1.0986-2.2607-.3613-1.104-.3613-2.1973 0-1.089.3613-2.1924.3613-1.104 1.0986-2.2559z"/>
   <path d="m131.07 70.528h.7813q.7373 1.152 1.0986 2.2559.3613 1.104.3613 2.1924 0 1.099-.3613 2.2021-.3613 1.104-1.0986 2.2559h-.7813q.6494-1.133.9668-2.2412.3223-1.108.3223-2.2168 0-1.113-.3223-2.2217-.3174-1.108-.9668-2.2266z"/>
   <path d="m32.109 90.744h.332q.6885 0 .8984-.2148.21-.2148.21-.9033v-1.2109q0-.7617.2197-1.1084.2197-.3467.7617-.4785-.5371-.1221-.7617-.4688-.2197-.3467-.2197-1.1133v-1.2109q0-.6885-.21-.9033-.21-.2148-.8984-.2148h-.332v-.6982h.3027q1.216 0 1.626.3613.4102.3564.4102 1.4355v1.1719q0 .7324.2588 1.0107.2637.2783.9522.2783h.3125v.6982h-.3125q-.6885 0-.9522.2832-.2588.2832-.2588 1.0205v1.167q0 1.079-.4102 1.4404t-1.626.3613h-.3027z"/>
  </g>
 </g>
 <g enable-background="new">
  <g transform="rotate(45.004 -163.84 -1381.6) scale(.4581)">
   <g transform="translate(1768.2 -809.89) scale(.1944)">
    <circle cx="2435.5" cy="-1290.9" r="2.03" fill="url(#u)"/>
    <circle cx="2435.5" cy="-1290.9" r="2.03" fill="url(#v)"/>
   </g>
   <path d="m2233.5-1308.8c0-6.366 15.89-6.644 15.89 0l.7223 21.942h-17.334z" fill="url(#w)"/>
   <path d="m2233.5-1308.8c0-6.366 15.89-6.644 15.89 0l.7223 21.942h-17.334z" fill="url(#w)"/>
   <path d="m2233.5-1308.8c0-6.366 15.89-6.644 15.89 0l.7223 21.942h-17.334z" fill="url(#x)"/>
   <path d="m2238.1-1308.3c0-3.631 9.445-4.342 8.9633-3.2372-.626 1.437-3.709-1.896-5.4709-1.8675-1.925.031-5.707.88-5.7296 2.1756-.023 1.296 2.237 2.929 2.2372 2.9291z" fill="url(#y)" fill-rule="evenodd"/>
   <path d="m2241.5-1290.5c-4.808 0-8.964 1.359-11 3.3438l-1 182h.125v-.1875c2.195-2.14 6.691-3.594 11.875-3.5937s9.68 1.453 11.875 3.5937v.1875h.125l-1-182c-2.036-1.985-6.192-3.344-11-3.3438z" fill="url(#z)"/>
   <path d="m2241.5-1289.8c-4.88 0-9.098 1.379-11.164 3.3935v.7931c2.066-2.015 6.284-3.394 11.164-3.3937 4.88 0 9.098 1.379 11.164 3.3937v-.7931c-2.067-2.015-6.285-3.394-11.164-3.3935z" opacity=".8"/>
   <path d="m2241.5-1289c-4.88 0-9.098 1.379-11.164 3.3937v.7929c2.066-2.015 6.284-3.394 11.164-3.3936 4.88 0 9.098 1.379 11.164 3.3936v-.7929c-2.067-2.015-6.285-3.394-11.164-3.3937z" fill="#fff" fill-opacity=".5" opacity=".8"/>
   <path d="m2229.5-1105.6c-1.471 14.38 2.311 28.84 9.7339 39.868h4.5462c7.423-11.03 11.21-25.49 9.7339-39.868-5.89-4.64-18.32-4.887-24.014 0z" fill="#fefefe" fill-rule="evenodd"/>
   <ellipse transform="matrix(1.3241 0 0 1 -725.6 0)" cx="2241" cy="-1065.7" rx="1.69" ry=".84"/>
   <g transform="translate(-63.89)" clip-path="url(#A)" fill-rule="evenodd">
    <path d="m2308.2-1063.7c-8.509-.3737-16.54-36.7-11.314-47.288-28.09-.8751-15.78 51.13 11.314 47.288z" fill="#323232" filter="url(#B)"/>
    <path transform="matrix(-1 0 0 1 4612.2 0)" d="m2308.2-1063.7c-9.599-.9965-17.78-37.41-11.314-47.288-28.09-.8751-15.78 51.13 11.314 47.288z" filter="url(#C)"/>
   </g>
   <path transform="translate(-94.58)" d="m2333.5-1109.3c2.437 1.499 2.593 30.23 2.4748 47.906 6.274-15.29 10.68-29.65 9.546-50.028z" clip-path="url(#D)" fill="#2b2b2b" fill-rule="evenodd" filter="url(#E)"/>
   <path transform="translate(-181 -.2)" d="m2422.5-1109.7c-5.374 0-10.04 1.5-12.312 3.7187v.1876h-.125v1.4062h.125v-.1875c2.276-2.219 6.938-3.719 12.312-3.7187 5.375-.0001 10.04 1.5 12.313 3.7187v.1875h.125v-1.4062h-.125v-.1876c-2.276-2.219-6.938-3.719-12.313-3.7187z" clip-path="url(#F)" filter="url(#G)"/>
   <g fill-rule="evenodd">
    <path d="m2241.4-1109.1c-4.555-.031-9.09 1.119-11.938 3.5625-.01.093-.022.188-.031.2813 5.911-4.699 18.19-4.38 24.062.25.1814 1.772.2855 3.544.3126 5.3124-.011-1.938-.1137-3.9-.3126-5.8437-2.945-2.32-7.538-3.532-12.094-3.5625z" fill="#fefefe" fill-opacity=".64" filter="url(#H)"/>
    <path d="m2230.7-1284.4-.7071 59.397c.1273 1.031.5799 1.031 1.4142-.1768 4.216-12.23.8303-37.94 1.9446-59.927l.5303-2.1213z" filter="url(#I)" opacity=".8" stroke="#000"/>
    <path d="m2235.4-1288.4c-.9576.4954-1.302.6173-2.299 1.1438-.2987.1578-1.176.9481-1.2613 2.1357-1.837 25.5 2.992 55-1.8772 60.72-1.011 1.189-2.208 2.294-2.4375.75-3.585-24.06-.2673-54.74.086-60.34.052-.8226 1.05-1.594 1.6731-1.9714 1.959-1.186 4.099-1.982 6.1157-2.4384z" fill="url(#J)"/>
   </g>
   <path transform="matrix(.9515 0 0 .83 63.35 -218.45)" d="m2280.9-1313.7c0-7.67 15.95-7.97 16.701 0l2.7591 29.436h-22.219z" clip-path="url(#K)" fill="none" filter="url(#L)" stroke="#000" stroke-linecap="round" stroke-linejoin="round" stroke-width=".95"/>
   <path d="m2227.5-1257.5c-.099-.01-.2065.01-.3125.063 2.091 30.55.625 31.97.625 31.969-1.459-3.209-1.043-19.91-1.0268-28.999-.9758.9169-.1279 27.79.9643 30.342-.0001.0001.8289-.2733.875-.5937 1.555-10.8 1.512-32.57-1.125-32.781z" fill="url(#M)" fill-rule="evenodd" filter="url(#N)"/>
   <path d="m2231.2-1286.5s-2.273 1.074-2.375 2c-.9783 8.909 2.237 29.54 2.2368 29.544s-1.838-21.76-.118-30.843c.042-.2201.1708-.4676.2562-.7014z" fill="url(#O)" fill-rule="evenodd" filter="url(#P)"/>
   <ellipse transform="rotate(32.167 2229.4 -1225.3)" cx="2229.2" cy="-1225.3" rx=".69" ry=".94" fill="#fff" filter="url(#Q)"/>
   <path d="m2241.1464-1060.8214-.7946-2.4212v-3.211h.013v.01c.3072-.04.7046-.091 1.251-.096.5831 0 .9212.036 1.253.096v-.01h.013v3.3413l-.9325 2.2746c-.1872.059-.6511.039-.8031.016z" fill="url(#R)"/>
   <path d="m2241.6668-1066.6312c-1.2334 0-2.25.3779-2.25.8437 0 .3493.5731.6219 1.375.75-.5752-.119-.9688-.36-.9688-.625.0002-.3868.8196-.6875 1.8438-.6875 1.0243 0 1.8438.3007 1.8438.6875 0 .265-.3936.506-.9688.625.8019-.1281 1.3438-.4007 1.3438-.75 0-.4658-.9854-.8437-2.2188-.8437z"/>
   <path d="m2241.1464-1060.8214-.7946-2.4212v-3.211h.013v.01c.3072-.04.7046-.091 1.251-.096.5831 0 .9212.036 1.253.096v-.01h.013v3.3413l-.9325 2.2746c-.1872.059-.6511.039-.8031.016z" fill="url(#S)"/>
  </g>
  <g fill-rule="evenodd">
   <g fill-opacity=".25">
    <path transform="rotate(14.995 -1818.6 -3670.1) scale(.4581)" d="m2085.7-1128.1c4.769-4.81 15.44-6.929 20.342-5.5537-4.482 1.892-14.8 7.105-20.342 5.5537z" filter="url(#T)"/>
    <path transform="rotate(14.995 -1818.6 -3670.1) scale(.4581)" d="m2085.7-1128.1c4.769-4.81 47.57-27.39 78.8-24.014-15.36 16.49-73.26 25.56-78.8 24.014z" filter="url(#U)" opacity=".57"/>
    <path transform="matrix(.312 .1186 -.0837 .4425 -700.65 345.86)" d="m2085.7-1128.1c4.769-4.81 72.05-48.72 142.21-41.623-54.85 35.09-136.7 43.17-142.21 41.623z" filter="url(#V)" opacity=".62"/>
    <path transform="rotate(14.995 -1818.6 -3670.1) scale(.4581)" d="m2085.7-1128.1c4.769-4.81 21.81-15.09 51.324-14.855-20.8 11.62-45.78 16.41-51.324 14.855z" filter="url(#U)" opacity=".57"/>
    <path transform="rotate(14.995 -1818.6 -3670.1) scale(.4581)" d="m2085.7-1128.1c4.769-4.81 23.38-8.504 28.284-8.8451-3.481 4.253-22.74 10.4-28.284 8.8451z" filter="url(#W)"/>
   </g>
   <path transform="matrix(.2297 .0616 -.0616 .2297 -504.18 224.61)" d="m2085.7-1128.1c4.769-4.81 15.44-6.929 20.342-5.5537-4.482 1.892-14.8 7.105-20.342 5.5537z" fill-opacity=".45" filter="url(#X)"/>
  </g>
 </g>
</svg>