<?xml version="1.0" encoding="UTF-8" standalone="no"?>
<!-- Created with Inkscape (http://www.inkscape.org/) -->

<svg
   xmlns:dc="http://purl.org/dc/elements/1.1/"
   xmlns:cc="http://creativecommons.org/ns#"
   xmlns:rdf="http://www.w3.org/1999/02/22-rdf-syntax-ns#"
   xmlns:svg="http://www.w3.org/2000/svg"
   xmlns="http://www.w3.org/2000/svg"
   xmlns:sodipodi="http://sodipodi.sourceforge.net/DTD/sodipodi-0.dtd"
   xmlns:inkscape="http://www.inkscape.org/namespaces/inkscape"
   width="744.09448819"
   height="1052.3622047"
   id="svg2"
   sodipodi:version="0.32"
   inkscape:version="0.47pre2 r22153"
   sodipodi:docname="dont-believe-in-fairies.svg"
   inkscape:output_extension="org.inkscape.output.svg.inkscape"
   version="1.1">
  <defs
     id="defs4">
    <inkscape:perspective
       sodipodi:type="inkscape:persp3d"
       inkscape:vp_x="0 : 526.18109 : 1"
       inkscape:vp_y="0 : 1000 : 0"
       inkscape:vp_z="744.09448 : 526.18109 : 1"
       inkscape:persp3d-origin="372.04724 : 350.78739 : 1"
       id="perspective11" />
    <inkscape:perspective
       id="perspective2897"
       inkscape:persp3d-origin="55.834961 : 66.460159 : 1"
       inkscape:vp_z="111.66992 : 99.690239 : 1"
       inkscape:vp_y="0 : 1000 : 0"
       inkscape:vp_x="0 : 99.690239 : 1"
       sodipodi:type="inkscape:persp3d" />
  </defs>
  <sodipodi:namedview
     id="base"
     pagecolor="#ffffff"
     bordercolor="#666666"
     borderopacity="1.0"
     gridtolerance="10000"
     guidetolerance="10"
     objecttolerance="10"
     inkscape:pageopacity="0.0"
     inkscape:pageshadow="2"
     inkscape:zoom="0.56254397"
     inkscape:cx="372.04724"
     inkscape:cy="668.3922"
     inkscape:document-units="px"
     inkscape:current-layer="layer1"
     inkscape:window-width="1162"
     inkscape:window-height="859"
     inkscape:window-x="252"
     inkscape:window-y="34"
     showgrid="false"
     inkscape:window-maximized="0"
     inkscape:snap-global="true"
     showguides="true"
     inkscape:guide-bbox="true">
    <inkscape:grid
       type="xygrid"
       id="grid2848"
       empspacing="5"
       visible="true"
       enabled="true"
       snapvisiblegridlinesonly="false"
       units="cm"
       spacingx="0.2cm"
       spacingy="0.2cm" />
  </sodipodi:namedview>
  <metadata
     id="metadata7">
    <rdf:RDF>
      <cc:Work
         rdf:about="">
        <dc:format>image/svg+xml</dc:format>
        <dc:type
           rdf:resource="http://purl.org/dc/dcmitype/StillImage" />
      </cc:Work>
    </rdf:RDF>
  </metadata>
  <g
     inkscape:label="Layer 1"
     inkscape:groupmode="layer"
     id="layer1">
    <text
       xml:space="preserve"
       style="font-size:44px;font-style:normal;font-variant:normal;font-weight:normal;font-stretch:normal;text-align:start;line-height:150%;writing-mode:lr-tb;text-anchor:start;fill:#000000;fill-opacity:1;stroke:none;font-family:DejaVu Sans;-inkscape-font-specification:DejaVu Sans"
       x="9.5552721"
       y="241.75888"
       id="text2832"
       sodipodi:linespacing="150%"><tspan
         sodipodi:role="line"
         id="tspan2834"
         x="9.5552721"
         y="241.75888">I don't believe in fairies.</tspan><tspan
         sodipodi:role="line"
         x="9.5552721"
         y="307.75888"
         id="tspan2836">       Oops! A fairy died.</tspan><tspan
         sodipodi:role="line"
         x="9.5552721"
         y="373.75888"
         id="tspan2838" /><tspan
         sodipodi:role="line"
         x="9.5552721"
         y="439.75888"
         id="tspan2907" /><tspan
         sodipodi:role="line"
         x="9.5552721"
         y="505.75888"
         id="tspan2842">I don't believe in fairies.</tspan><tspan
         sodipodi:role="line"
         x="9.5552721"
         y="571.75891"
         id="tspan2840">       Oops! Another fairy died.</tspan></text>
    <g
       transform="matrix(1.374464,0,0,1.374464,357.89115,-62.936004)"
       id="layer1-4"
       inkscape:label="Calque 1">
      <g
         id="g5206">
        <path
           id="path2194"
           d="m 201.72792,394.29691 c -2.65885,-5.22192 -3.10999,-13.47347 -0.95641,-17.49338 1.18555,-2.21296 2.10172,-6.62566 2.49145,-12 0.33901,-4.675 1.53206,-11.64857 2.65121,-15.49682 2.38726,-8.20871 2.58839,-13.22889 0.61795,-15.42444 -4.40947,-4.91325 -11.55204,-20.24097 -12.85141,-27.57874 -0.58437,-3.3 -1.88807,-6.929 -2.8971,-8.06445 -1.27209,-1.43145 -4.47462,-1.05066 -2.06993,-4.55139 1.15469,-2.34002 0.97099,-4.48232 3.23657,-8.63856 2.00111,-2.85266 2.16041,-3.49816 2.99874,-6.12757 0,-0.55 0.15941,-1.57931 0.53253,-2.18537 1.17378,-1.90657 1.41816,-6.17524 -1.45012,-10.64139 -2.81831,-4.38834 -4.74991,-5.52165 -3.40217,-9.51335 0.74845,-2.21674 2.70821,-3.57103 3.3075,-4.755 0.85688,-1.69288 -0.85319,-4.31783 -14.85074,-11.00961 -11.64667,-5.56791 -13.20266,-6.05635 -15.52574,-10.64073 -3.15138,-6.21895 -7.0532,-18.6219 -7.0532,-21.15171 0,-2.03526 2.24353,-6.29416 4.04458,-6.29416 0.56014,0 2.28287,-2.71713 2.9023,-3.95463 1.07331,-2.14427 2.42538,-2.24972 1.88449,0.31689 -0.79042,3.75065 -1.75683,7.76438 0.65763,6.10775 5.6442,-3.87265 2.99407,-0.70408 1.32574,1.97724 -0.92533,1.48718 -2.6603,2.8424 -3.6228,3.16829 -3.1547,1.06814 -1.50488,3.46 5.85401,14.85249 3.02427,4.68195 4.60388,4.61625 11.12057,6.89595 18.45328,6.45541 19.63916,8.16744 21.81055,7.3342 1.31418,-0.50429 0.50871,-2.8424 -1.88951,-5.74076 -0.73357,-0.88655 -1.60566,-1.44344 -1.91935,-1.93562 -0.45665,-0.60059 -1.22113,-0.81506 -1.39198,-1.56199 -0.22633,-0.98946 1.48123,-1.3751 1.17337,-2.99837 -0.60018,-3.16471 -0.86316,-2.4344 -2.59287,-5.61451 -1.22606,-2.25414 -1.60818,-4.44156 1.48803,-7.20802 3.62125,-3.23558 11.40712,-5.09364 14.57583,-3.3978 3.01382,1.61295 6.01321,7.76816 6.01761,11.52316 0.002,1.75504 -0.24074,3.02716 0.30926,3.36708 2.08638,1.28945 2.00512,6.59173 -1.24492,8.0375 -4.49168,1.9981 -1.47883,2.39931 -0.30299,2.85918 0.825,0.32265 3.03941,2.69739 4.68941,4.58271 1.65,1.88532 4.09118,5.94495 6.58231,8.7899 2.49114,2.84496 5.27129,5.41862 6.17812,7.41688 0.90683,1.99825 4.27299,6.28467 6.55439,8.13642 2.28141,1.85174 6.22372,4.63013 9.06936,7.02299 2.84563,2.39287 6.17121,5.41767 7.46734,6.0273 1.55123,0.72962 4.85385,3.92784 7.42188,7.52227 4.82925,6.75944 3.72365,9.07028 2.24355,7.03152 -2.5997,-3.58096 -3.58512,-3.64723 -3.79643,-0.0209 -0.16608,2.85024 -1.22508,5.87825 -1.2405,1.51555 -0.33109,3.24502 -1.26009,-1.34262 -1.16617,-2.92764 0.27117,-4.51321 -2.91044,-6.55765 -4.26062,-5.39468 -1.78268,1.53552 -2.25786,4.26421 -2.19473,-1.17634 0.0229,-1.99256 -0.65353,-3.13612 -7.32688,-6.49141 -4.41175,-2.21818 -9.81175,-5.65057 -12,-7.62752 -2.18825,-1.97696 -3.97864,-3.21061 -3.97864,-2.74145 0,0.46916 -1.51775,-1.39098 -3.37277,-4.13364 -1.85502,-2.74266 -4.26401,-5.78416 -5.35331,-6.75889 -1.94906,-1.74406 -1.99073,-1.66455 -2.62013,5 -1.09122,11.55464 -0.82926,14.34855 1.65754,17.67785 2.32338,3.11052 5.53926,5.74884 4.98127,8.16025 -1.36156,1.33998 -0.60415,7.45304 -1.23342,14.65588 -0.63802,7.30304 -1.29009,13.95326 -1.44903,14.77826 -0.15894,0.825 -0.62112,3.3 -1.02706,5.5 -0.40595,2.2 -1.42455,6.025 -2.26356,8.5 -1.337,3.94401 -1.35831,5.85908 -0.1725,15.5 1.17439,9.54808 1.58572,10.96081 3.11635,10.70309 2.86633,-0.48262 3.11159,2.44631 0.73662,8.79691 -1.22601,3.27832 -1.96668,6.64445 -1.64594,7.48029 0.85916,2.23894 -0.69609,1.84899 -3.18284,-0.79803 -2.06007,-2.19284 -2.33767,-3.60105 -3.08157,-15.63226 -0.15688,-2.5373 -1.73337,0.21794 -3.11837,5.45 -0.72797,2.75 -2.41305,6.74785 -3.74463,8.88411 -2.04429,3.27966 -2.23586,4.23017 -1.23098,6.10779 0.98534,1.84113 0.83002,2.92945 -0.9028,6.32605 -1.15108,2.25631 -2.1245,5.1328 -2.16315,6.39221 -0.0387,1.25941 -0.42047,3.18686 -0.84847,4.28322 -0.71839,1.84025 -0.89526,1.76343 -2.30232,-1 z m 8.06323,-90.39868 c 0,-0.55 -0.31872,-1.88388 -0.90118,-1.88388 -0.58246,0 -0.7809,1.23918 -0.44098,1.78918 0.79194,1.28138 1.34216,1.37608 1.34216,0.0947 z"
           style="fill:#000000;fill-opacity:1"
           sodipodi:nodetypes="csssssccccssssssssssssssssscsssssssssssssssssscsssssssssscssssssssssssssssccssc" />
        <path
           id="path3229"
           d="m 240.87308,321.63902 c -0.55946,-0.56208 -1.63451,-2.11805 -2.00868,-2.88722 -0.37418,-0.76916 -1.26843,-2.47733 -1.98723,-3.98609 -1.00468,-2.10881 -1.32472,-3.17105 -1.6425,-3.17105 0.49112,0.99262 0.35921,1.90132 0.93729,2.86378 1.10832,2.88281 0.82189,3.72026 0.63898,3.86606 -0.51434,0.41 -2.00846,-2.55496 -2.92323,-4.14801 -1.01637,-1.76997 -2.06656,-4.72197 -3.82709,-10.75761 -0.22436,-0.76917 -0.46595,-2.12463 -0.53688,-3.01213 -0.0709,-0.8875 -0.26468,-2.09774 -0.43056,-2.6894 -0.54758,-1.95309 -1.0027,-4.96229 -1.13775,-5.78869 -0.11101,-0.67927 -0.15005,-2.15188 -0.29321,-2.76088 -0.10047,-1.25158 -0.70938,-4.50365 -0.94456,-4.12449 0.0356,0.99334 0.5483,5.38526 0.69154,6.38241 0.49839,3.46938 0.24824,4.22048 -1.4792,1.22457 -0.35923,-0.62302 -0.58478,-1.41707 -0.59166,-1.71619 -0.007,-0.29912 -0.20073,-0.70499 -0.43075,-0.90194 -0.23002,-0.19695 -0.47745,-0.72676 -0.54984,-1.17737 -0.0724,-0.4506 -0.27093,-1.13607 -0.44118,-1.52327 -0.38315,-0.8714 -0.82467,-3.61439 -0.63198,-3.92619 0.078,-0.12627 0.0505,-0.34636 -0.0611,-0.48909 -0.75579,-0.96612 -0.6109,-11.29774 -0.57681,-13.18249 0.0139,-0.77086 0.44843,-1.65755 0.34814,-2.46023 0.0811,-1.34369 0.34483,-2.21437 0.6272,-3.559 0.16578,-0.38004 0.42037,-0.7404 0.43295,-1.33207 -0.0782,-0.99873 0.34019,-0.79359 -0.0213,-1.96172 -0.36484,-0.36483 -0.43122,0.52801 -0.43122,1.27005 0,0.36997 -0.18348,1.03556 -0.40774,1.27985 -0.48541,0.52879 -1.25259,4.45148 -1.25259,5.39391 0,0.36307 -0.1432,0.93703 -0.31821,1.27546 -0.17501,0.33844 -0.41422,1.46035 -0.53157,2.49312 -0.11735,1.03278 -0.26402,1.92843 -0.32593,1.99034 -0.0619,0.0619 -0.79809,-0.93463 -1.03828,-1.152 -0.65458,-0.59238 -0.44625,0.2935 -0.4219,1.89901 0.0114,0.75056 -0.16668,1.70935 -0.26288,1.86501 -0.25531,0.41308 -1.22211,-1.21777 -1.42044,-2.38799 -0.15048,-0.88792 -0.20364,0.032 -0.92089,-0.0286 -0.73062,-0.0618 -0.79777,-1.1196 -1.67236,-2.96631 -0.50115,-1.05818 -1.03959,-2.35063 -1.19654,-2.87212 -0.15694,-0.52148 -0.52776,-1.27266 -0.82404,-1.66929 -0.82092,-1.09894 -1.67387,-3.09992 -2.20239,-5.67236 -0.13051,-0.63523 -0.41939,0.55491 -0.6245,1.08941 -0.21032,0.54807 -0.46556,-0.72063 -0.9449,-1.8935 -1.00935,-2.46975 -1.64714,-5.34663 -1.01186,-8.37541 0.099,-0.472 0.47108,-0.94658 0.23328,-1.28609 -0.60009,-0.85676 -0.30464,-6.49426 0.38,-7.25078 0.1929,-0.21316 0.35377,-0.57357 0.35749,-0.80092 0.0109,-0.66806 0.68353,-1.56821 2.28913,-1.67877 6.04373,-0.41617 8.25105,-2.31495 14.61367,-6.61106 0.85987,-0.58059 1.87212,-1.24398 2.24945,-1.47419 0.37732,-0.2302 1.11145,-0.7385 1.63138,-1.12954 0.51994,-0.39105 1.03274,-0.71099 1.13957,-0.71099 0.10684,0 0.94959,-0.43569 1.87279,-0.96818 0.9232,-0.53251 1.7898,-0.96819 1.92577,-0.96819 0.13597,0 0.86539,-0.29207 1.62093,-0.64904 1.17198,-0.55374 2.10247,-0.83198 4.1269,-0.94781 l 2.53586,-0.0271 0.99258,0.928 c 0.31135,0.33595 0.80232,1.26349 1.11095,2.23599 0.50583,1.59391 0.48895,2.72576 0.38452,5.10889 -0.0628,1.43305 -0.26523,3.32101 -0.44987,4.19547 -0.18463,0.87445 -0.4793,2.26765 -0.65483,3.09598 -2.07222,9.77932 -2.80392,14.15185 -3.08541,18.01299 -0.0647,0.8875 -0.15143,2.30954 -0.33535,3.49288 -0.18393,1.18334 -0.32868,2.29675 -0.32167,2.47426 0.0842,2.13123 0.0603,8.55016 -0.0413,11.07436 -0.0804,1.99755 -0.16444,3.4909 -0.0309,3.74047 0.12478,0.23317 0.23866,2.91397 0.27069,6.37226 0.0304,3.28336 0.12573,6.08375 0.21184,6.22308 0.0861,0.13932 0.13633,0.90519 0.1116,1.70193 -0.0247,0.79674 -0.16871,2.5041 -0.0347,3.7466 0.27301,2.53135 0.72853,8.30269 1.21418,15.38338 0.17856,2.60334 0.57825,5.22262 0.65051,5.72554 0.11986,0.83422 0.55737,3.1704 0.13316,3.1704 -0.2685,0 -1.86717,-1.90988 -2.45457,-2.50005 z"
           style="fill:#000000;fill-opacity:1"
           sodipodi:nodetypes="cssccssssssccsssssssssccccssssssssssssssssssssssssssssscccssssssssssssssssc" />
        <path
           id="path4227"
           d="m 223.76605,321.52657 c -0.31713,-0.60369 -0.92654,-2.27487 -1.13864,-3.101 -0.21211,-0.82611 -0.71902,-2.66076 -1.12648,-4.28123 -0.56951,-2.26496 -0.75093,-3.40585 -0.93107,-3.40585 0.2784,1.06612 0.20362,2.0421 0.53131,3.07582 0.62827,3.09627 0.4659,3.99573 0.36222,4.15232 -0.29156,0.44036 -1.13852,-2.74414 -1.65707,-4.45514 -0.57613,-1.90103 -1.17145,-5.07161 -2.16942,-11.55415 -0.12718,-0.82612 -0.26413,-2.28195 -0.30434,-3.23516 -0.0402,-0.95322 -0.15003,-2.25307 -0.24406,-2.88854 -0.3104,-2.0977 -0.56839,-5.32972 -0.64495,-6.21731 -0.0629,-0.72956 -0.0851,-2.31121 -0.16621,-2.9653 -0.057,-1.34426 -0.40212,-4.83712 -0.53543,-4.42989 0.0202,1.06689 0.31081,5.78401 0.39201,6.85499 0.28251,3.72627 0.14071,4.53298 -0.8385,1.31525 -0.20364,-0.66916 -0.33149,-1.522 -0.33539,-1.84327 -0.004,-0.32127 -0.11379,-0.75719 -0.24418,-0.96872 -0.13039,-0.21154 -0.27064,-0.78057 -0.31168,-1.26455 -0.041,-0.48396 -0.15358,-1.22019 -0.25009,-1.63606 -0.21719,-0.93592 -0.46747,-3.88201 -0.35824,-4.2169 0.0442,-0.13562 0.0286,-0.37201 -0.0346,-0.5253 -0.42842,-1.03766 -0.34629,-12.13428 -0.32697,-14.15858 0.008,-0.82794 0.2542,-1.78028 0.19735,-2.6424 0.046,-1.44318 0.19547,-2.37833 0.35553,-3.82252 0.094,-0.40818 0.23829,-0.79522 0.24543,-1.4307 -0.0444,-1.07268 0.19284,-0.85235 -0.0121,-2.10698 -0.20681,-0.39184 -0.24444,0.56711 -0.24444,1.36409 0,0.39737 -0.10401,1.11224 -0.23113,1.37462 -0.27516,0.56794 -0.71005,4.78108 -0.71005,5.7933 0,0.38995 -0.0812,1.00641 -0.18038,1.3699 -0.0992,0.3635 -0.2348,1.56848 -0.30132,2.67772 -0.0665,1.10925 -0.14966,2.07122 -0.18476,2.13771 -0.0351,0.0665 -0.4524,-1.00383 -0.58856,-1.2373 -0.37105,-0.63624 -0.25296,0.31523 -0.23916,2.03962 0.006,0.80614 -0.0945,1.83592 -0.14901,2.00311 -0.14473,0.44366 -0.69277,-1.30794 -0.80519,-2.56481 -0.0853,-0.95367 -0.11544,0.0344 -0.52202,-0.0308 -0.41416,-0.0663 -0.45222,-1.2025 -0.94799,-3.18595 -0.28409,-1.13653 -0.58931,-2.52468 -0.67827,-3.08478 -0.089,-0.5601 -0.29917,-1.3669 -0.46712,-1.7929 -0.46535,-1.18031 -0.94885,-3.32945 -1.24845,-6.09236 -0.074,-0.68227 -0.23773,0.596 -0.354,1.17007 -0.11922,0.58866 -0.26391,-0.77398 -0.53563,-2.0337 -0.57216,-2.65262 -0.93369,-5.74252 -0.57358,-8.99556 0.0561,-0.50695 0.26704,-1.01667 0.13224,-1.38132 -0.34017,-0.9202 -0.17269,-6.97512 0.2154,-7.78766 0.10935,-0.22894 0.20054,-0.61604 0.20265,-0.86022 0.006,-0.71753 0.38747,-1.68433 1.29762,-1.80307 3.42595,-0.44699 4.67719,-2.48636 8.2839,-7.10057 0.48743,-0.62358 1.06123,-1.33609 1.27513,-1.58335 0.21388,-0.24724 0.63003,-0.79318 0.92476,-1.21317 0.29473,-0.42001 0.58542,-0.76364 0.64598,-0.76364 0.0606,0 0.53828,-0.46795 1.06161,-1.03987 0.52332,-0.57194 1.01456,-1.03988 1.09164,-1.03988 0.0771,0 0.49055,-0.31369 0.91884,-0.69709 0.66435,-0.59474 1.19181,-0.89359 2.33937,-1.01799 l 1.43748,-0.0291 0.56266,0.99671 c 0.17649,0.36083 0.4548,1.35705 0.62975,2.40156 0.28673,1.71192 0.27717,2.92758 0.21797,5.48717 -0.0356,1.53916 -0.15035,3.56691 -0.25501,4.50612 -0.10466,0.9392 -0.2717,2.43556 -0.3712,3.32522 -1.17466,10.50342 -1.58943,15.19971 -1.749,19.34675 -0.0367,0.95321 -0.0858,2.48054 -0.19009,3.7515 -0.10427,1.27096 -0.18632,2.46682 -0.18235,2.65747 0.0477,2.28903 0.0342,9.18325 -0.0234,11.89435 -0.0455,2.14546 -0.0932,3.74938 -0.0175,4.01743 0.0707,0.25044 0.13528,3.12973 0.15344,6.84409 0.0172,3.52647 0.0713,6.53422 0.12008,6.68386 0.0488,0.14964 0.0773,0.97222 0.0633,1.82795 -0.014,0.85574 -0.0956,2.68952 -0.0197,4.02402 0.15476,2.71878 0.41297,8.91745 0.68827,16.52243 0.10122,2.7961 0.32779,5.60932 0.36875,6.14948 0.0679,0.89599 0.31595,3.40515 0.0755,3.40515 -0.1522,0 -1.05842,-2.0513 -1.3914,-2.68517 z"
           style="fill:#000000;fill-opacity:1"
           sodipodi:nodetypes="cssccssssssccsssssssssccccssssssssssssssssssssssssssssscccssssssssssssssssc" />
      </g>
    </g>
    <text
       xml:space="preserve"
       style="font-size:18px;font-style:normal;font-variant:normal;font-weight:normal;font-stretch:normal;text-align:start;line-height:125%;writing-mode:lr-tb;text-anchor:start;fill:#000000;fill-opacity:1;stroke:none;font-family:Bitstream Vera Serif;-inkscape-font-specification:Bitstream Vera Serif"
       x="21.331657"
       y="686.16864"
       id="text2911"
       sodipodi:linespacing="125%"><tspan
         sodipodi:role="line"
         id="tspan2913"
         x="21.331657"
         y="686.16864">Fairy image by http://commons.wikimedia.org/wiki/File:F%C3%A9e.svg</tspan></text>
  </g>
</svg>
