<?xml version="1.0" encoding="UTF-8"?>
<svg xmlns="http://www.w3.org/2000/svg" width="210mm" height="297mm" version="1.1" style="shape-rendering:geometricPrecision; text-rendering:geometricPrecision; image-rendering:optimizeQuality; fill-rule:evenodd; clip-rule:evenodd" viewBox="0 0 21000 29700"> <defs> <style type="text/css">  .fil11 {fill:#FEFEFE} .fil13 {fill:#EBECEC} .fil0 {fill:#2B2A29} .fil9 {fill:#E5D38C} .fil3 {fill:#AF9778} .fil7 {fill:#D3725F} .fil1 {fill:#C0503B} .fil4 {fill:#978065} .fil10 {fill:#C99B5E} .fil5 {fill:#836D56} .fil8 {fill:#9F5548} .fil2 {fill:#923F31} .fil6 {fill:#53322D} .fil12 {fill:#00A0E3} .fil14 {fill:#009846} .fil16 {fill:#00773D} .fil15 {fill:#025333}  </style> <mask id="id0"> <linearGradient id="id1" gradientUnits="userSpaceOnUse" x1="8210" y1="15331.4" x2="9029.54" y2="14646.6"> <stop offset="0" style="stop-opacity:1; stop-color:white"/> </linearGradient> <rect style="fill:url(#id1)" x="8233" y="14223" width="1042" height="1131"/> </mask> <mask id="id2"> <linearGradient id="id3" gradientUnits="userSpaceOnUse" x1="9261.49" y1="16503.2" x2="10031.7" y2="14126.2"> <stop offset="0" style="stop-opacity:1; stop-color:white"/> </linearGradient> <rect style="fill:url(#id3)" x="11084" y="14860" width="1124" height="1143"/> </mask> </defs> <g id="Plan_x0020_1"> <metadata id="CorelCorpID_0Corel-Layer"/> <path class="fil0" d="M4737 14111c-582,-396 -1164,-792 -1560,-1420 -396,-629 -605,-1490 -617,-2375 -11,-885 175,-1792 559,-2625 384,-832 966,-1589 1612,-2153 646,-565 1356,-937 2480,-1182 1123,-244 2659,-361 4184,-221 1525,140 3038,536 4069,926 1030,389 1577,774 2025,1635 448,861 797,2200 1170,3189 372,990 768,1630 1059,2282 291,652 477,1315 576,1996 99,681 111,1380 -105,2148 -215,768 -657,1606 -1123,2188 -466,582 -954,908 -1426,1106 -471,198 -925,268 -1245,279 -320,12 -507,-35 -693,-81 12,-198 23,-396 35,-594 303,35 605,70 1001,18 396,-53 885,-192 1333,-536 448,-343 855,-890 1135,-1484 279,-594 431,-1234 337,-1810 -93,-576 -430,-1088 -867,-1647 -436,-559 -972,-1164 -1455,-1839 -483,-675 -914,-1420 -1210,-1863 -297,-442 -460,-582 -833,-698 -372,-116 -954,-210 -1536,-431 -582,-221 -1164,-570 -1630,-978 -465,-407 -815,-873 -1193,-1245 -378,-373 -786,-652 -1571,-786 -786,-134 -1950,-122 -2887,76 -937,198 -1647,582 -2159,1059 -513,477 -827,1048 -984,1711 -157,664 -157,1420 -87,2090 70,669 209,1251 541,1740 332,489 856,885 1379,1280 -104,82 -209,163 -314,245zm-744 -7380c499,-447 998,-894 1505,-1240 507,-346 1021,-592 1855,-764 834,-171 1989,-268 3051,-238 1061,30 2030,186 3017,443 987,257 1993,615 2641,958 648,342 939,670 1293,1456 354,786 771,2030 1099,2850 327,819 566,1214 821,1635 256,421 528,867 670,1508 141,641 152,1475 79,2139 -73,663 -229,1154 -386,1646 97,-641 194,-1281 119,-1885 -74,-603 -320,-1169 -681,-1657 -362,-488 -839,-898 -1222,-1419 -384,-522 -674,-1155 -898,-1800 -223,-644 -380,-1300 -942,-1620 -563,-320 -1531,-305 -2224,-432 -693,-127 -1110,-395 -1520,-794 -410,-398 -812,-927 -1192,-1300 -380,-372 -737,-588 -1408,-696 -670,-108 -1654,-108 -2458,0 -805,108 -1431,324 -1937,544 -507,219 -895,443 -1282,666z"/> <path class="fil1" d="M11078 6217c380,373 782,902 1192,1300 410,399 827,667 1520,794 693,127 1661,112 2224,432 562,320 719,976 942,1620 224,645 514,1278 898,1800 383,521 860,931 1222,1419 361,488 607,1054 681,1657 75,604 -22,1244 -119,1885 157,-492 313,-983 386,-1646 73,-664 62,-1498 -79,-2139 -142,-641 -414,-1087 -670,-1508 -255,-421 -494,-816 -821,-1635 -328,-820 -745,-2064 -1099,-2850 -354,-786 -645,-1114 -1293,-1456 -648,-343 -1654,-701 -2641,-958 -987,-257 -1956,-413 -3017,-443 -1062,-30 -2217,67 -3051,238 -834,172 -1495,438 -2002,785 -506,346 -831,717 -1358,1219 387,-223 775,-447 1282,-666 506,-220 1132,-436 1937,-544 804,-108 1788,-108 2458,0 671,108 1028,324 1408,696z"/> <path class="fil2" d="M16956 10363c224,645 514,1278 898,1800 383,521 860,931 1222,1419 361,488 607,1054 681,1657 75,604 -22,1244 -119,1885 157,-492 313,-983 386,-1646 73,-664 62,-1498 -79,-2139 -142,-641 -414,-1087 -670,-1508 -255,-421 -494,-816 -821,-1635 -328,-820 -745,-2064 -1099,-2850 -169,-375 -324,-646 -510,-864 50,164 98,322 144,474 209,698 363,1250 377,1630 14,381 -112,591 -433,395 -322,-196 -838,-796 -1331,-1114 -492,-318 -960,-353 -1449,-614 -489,-262 -999,-751 -1599,-1184 -601,-433 -1292,-810 -2085,-992 -793,-182 -1687,-168 -2578,-33 -891,134 -1779,389 -2683,899 -362,204 -727,449 -1093,718 348,-200 706,-400 1160,-596 506,-220 1132,-436 1937,-544 804,-108 1788,-108 2458,0 671,108 1028,324 1408,696 380,373 782,902 1192,1300 410,399 827,667 1520,794 693,127 1661,112 2224,432 562,320 719,976 942,1620z"/> <path class="fil0" d="M6165 10757c165,-505 330,-1010 554,-1461 223,-452 505,-849 778,-1111 272,-261 536,-387 820,-420 284,-34 588,24 793,147 206,123 313,311 288,523 -24,213 -181,450 -417,689 -237,239 -555,480 -794,690 -239,210 -400,389 -532,555 -132,165 -234,317 -337,469 125,-300 250,-599 469,-899 219,-299 532,-598 769,-793 237,-194 398,-284 465,-427 67,-143 40,-340 -56,-487 -96,-148 -262,-246 -510,-219 -248,27 -578,179 -867,483 -288,304 -534,760 -764,1162 -230,402 -445,751 -659,1099z"/> <path class="fil0" d="M7839 8190c-142,0 -284,0 -408,-45 -123,-46 -228,-138 -296,-225 -67,-87 -97,-169 -127,-251 73,59 147,119 240,166 94,46 209,81 323,77 115,-3 229,-44 300,-99 71,-55 98,-124 126,-192 -60,-129 -119,-257 -141,-386 -22,-129 -6,-260 10,-390 92,201 183,402 273,535 89,133 176,197 297,257 121,60 276,116 416,138 140,22 264,9 397,-50 132,-59 274,-164 416,-269 -46,96 -91,192 -156,292 -64,99 -147,202 -229,305 0,64 0,128 1,192 98,71 197,142 308,207 111,66 234,125 354,170 120,44 237,74 354,104 -167,5 -334,9 -495,-2 -162,-11 -317,-39 -472,-66 50,103 100,206 189,346 89,141 217,319 345,498 -167,-80 -334,-160 -459,-266 -124,-105 -207,-235 -289,-366 16,-208 32,-416 48,-625 -172,-119 -343,-238 -515,-357 -229,46 -458,92 -687,138 -41,55 -82,109 -123,164z"/> <path class="fil0" d="M4014 16787c-226,-118 -453,-235 -617,-364 -165,-128 -269,-268 -273,-430 -4,-162 91,-346 310,-584 220,-237 563,-528 896,-869 332,-340 653,-732 831,-990 177,-258 211,-384 226,-472 15,-88 13,-138 10,-189 109,48 218,95 362,125 144,29 322,40 501,51 -290,168 -581,336 -828,553 -247,218 -451,487 -588,713 -137,226 -207,411 -383,584 -176,173 -458,335 -643,490 -184,155 -271,303 -319,434 -49,132 -60,246 -14,341 46,95 149,171 310,147 160,-24 378,-147 596,-270 -126,243 -251,486 -377,730z"/> <path class="fil0" d="M6825 10891c-230,143 -460,285 -660,406 -199,121 -368,220 -490,345 -122,125 -198,277 -230,385 -32,108 -21,172 39,251 60,78 168,171 341,233 173,62 412,94 642,57 230,-38 451,-146 598,-243 147,-98 219,-185 312,-296 94,-110 207,-244 321,-378 -82,-3 -163,-6 -242,-76 -78,-70 -154,-206 -230,-343 -55,224 -110,448 -179,623 -68,174 -150,299 -323,369 -173,70 -438,84 -614,74 -176,-10 -263,-45 -330,-94 -66,-50 -112,-115 -103,-189 9,-74 72,-158 134,-188 62,-31 123,-7 189,42 65,50 135,125 227,159 91,33 205,24 297,-12 91,-36 161,-100 209,-150 48,-49 74,-84 100,-119 -43,-87 -87,-175 -145,-234 -58,-60 -131,-92 -204,-124 87,-84 175,-169 232,-252 56,-83 82,-164 109,-246z"/> <path class="fil0" d="M4907 12024c21,149 42,298 96,437 53,139 140,267 227,371 88,104 178,185 348,246 170,61 420,103 725,98 306,-4 666,-55 942,-183 276,-128 466,-334 636,-541 170,-207 319,-416 407,-672 88,-256 115,-560 68,-799 -46,-238 -165,-411 -254,-527 -90,-116 -149,-176 -197,-252 -47,-77 -83,-170 -118,-263 -156,300 -313,599 -469,899 102,-69 204,-139 297,-171 93,-31 177,-25 259,21 82,46 162,132 204,280 42,147 45,356 -30,596 -74,240 -226,511 -357,709 -132,198 -242,323 -395,414 -154,91 -350,148 -508,178 -158,30 -278,32 -355,21 -78,-12 -113,-39 -125,-112 -12,-73 0,-192 12,-312 -143,-29 -286,-59 -383,-83 -97,-24 -148,-42 -198,-60 6,114 12,227 -24,298 -36,72 -114,102 -201,88 -88,-13 -187,-70 -260,-135 -73,-66 -120,-140 -155,-225 -34,-85 -55,-181 -76,-276 -38,-15 -77,-30 -116,-45z"/> <path class="fil0" d="M10565 13175c150,-105 326,-210 641,-284 315,-74 768,-116 1256,-90 489,26 1013,121 1433,293 420,172 734,420 923,691 188,272 250,568 202,925 -47,358 -205,777 -460,1173 -255,396 -608,768 -989,1047 -382,279 -792,465 -1307,581 -515,117 -1134,165 -1578,146 -443,-19 -710,-105 -927,-272 -217,-167 -384,-415 -456,-646 -71,-231 -47,-446 24,-687 72,-240 191,-507 272,-808 81,-300 124,-634 212,-932 89,-298 222,-560 351,-744 128,-183 252,-288 403,-393zm386 174c179,-79 355,-126 679,-169 324,-43 796,-81 1254,-15 458,67 901,239 1202,434 300,196 457,415 496,749 38,334 -43,782 -265,1221 -222,438 -584,867 -1042,1168 -457,300 -1011,472 -1526,558 -514,85 -991,85 -1344,4 -353,-81 -582,-243 -706,-429 -124,-186 -143,-396 -88,-615 55,-219 184,-448 274,-779 91,-332 143,-766 224,-1088 81,-321 191,-531 336,-691 146,-160 327,-269 506,-348z"/> <path class="fil0" d="M9465 16684c-325,42 -649,84 -983,72 -333,-13 -675,-79 -951,-238 -276,-159 -486,-410 -659,-681 -173,-270 -309,-560 -363,-792 -54,-233 -26,-407 75,-598 102,-190 276,-396 536,-565 260,-170 606,-302 959,-453 353,-150 712,-317 988,-457 276,-140 468,-251 646,-353 178,-101 342,-192 548,-187 206,6 454,107 606,238 152,131 208,292 264,452 -115,67 -231,133 -346,199 2,-94 4,-189 -70,-274 -73,-86 -221,-162 -372,-199 -151,-37 -305,-33 -527,59 -222,93 -511,275 -913,460 -402,185 -915,373 -1303,574 -387,201 -649,414 -770,627 -120,213 -99,426 46,717 145,292 414,662 667,887 253,226 490,306 751,322 260,15 543,-33 730,-81 186,-47 277,-92 368,-138 24,137 49,273 73,409z"/> <path class="fil0" d="M4318 22614c-363,-178 -719,-472 -957,-1034 -237,-562 -356,-1393 -286,-2228 70,-835 328,-1673 625,-2361 297,-688 632,-1225 950,-1630 318,-406 618,-678 971,-933 352,-255 757,-492 991,-667 234,-174 297,-286 298,-425 1,-139 -61,-305 -122,-471 364,-138 729,-275 1093,-413 -152,146 -304,293 -364,455 -61,162 -31,341 93,329 123,-13 340,-215 609,-480 269,-266 590,-594 824,-950 234,-357 380,-741 443,-1006 63,-265 42,-412 21,-559 252,-56 503,-112 1027,-77 524,35 1320,161 2046,486 727,325 1383,848 1938,1355 556,506 1010,995 1464,1484 -63,265 -126,531 -189,796 -7,-216 -14,-433 -161,-688 -146,-255 -433,-548 -764,-873 -332,-325 -709,-681 -1121,-1002 -412,-321 -859,-608 -1310,-800 -450,-192 -904,-290 -1344,-311 -440,-21 -866,35 -1292,91 7,321 14,643 -137,985 -150,342 -457,705 -849,1043 -391,337 -867,649 -1429,1012 -562,363 -1211,778 -1696,1202 -485,424 -806,857 -1100,1269 -293,412 -558,803 -761,1376 -202,572 -342,1327 -339,2039 4,712 151,1383 378,1861 227,479 534,765 852,953 317,189 646,280 998,433 353,154 730,371 1062,528 332,157 618,255 1065,391 447,136 1055,311 1830,307 775,-3 1718,-185 2661,-366 -594,181 -1187,363 -1889,457 -702,94 -1512,101 -2169,17 -656,-83 -1159,-258 -1610,-488 -450,-231 -848,-517 -1232,-692 -385,-174 -755,-237 -1118,-415z"/> <path class="fil0" d="M15982 13489c59,51 118,102 75,312 -42,210 -188,579 -341,1079 -154,500 -316,1131 -330,1620 -14,489 120,835 263,1201 142,366 293,752 299,1266 5,514 -135,1157 -333,1693 -198,536 -455,967 -872,1363 -416,397 -991,760 -1567,1123 637,-575 1274,-1151 1700,-1790 426,-640 641,-1344 713,-1936 73,-592 3,-1073 -87,-1414 -91,-341 -203,-542 -365,-718 -162,-176 -374,-327 -586,-478 123,-111 246,-223 368,-472 123,-249 246,-634 386,-1058 140,-425 298,-887 370,-1209 73,-321 61,-501 49,-680 86,32 172,65 258,98z"/> <path class="fil3" d="M15982 13489c59,51 118,102 75,312 -42,210 -188,579 -341,1079 -154,500 -316,1131 -330,1620 -14,489 120,835 263,1201 142,366 293,752 299,1266 1,85 -3,173 -9,264 239,24 491,37 799,-4 396,-53 885,-192 1333,-536 448,-343 855,-890 1135,-1484 279,-594 431,-1234 337,-1810 -93,-576 -430,-1088 -867,-1647 -436,-559 -972,-1164 -1455,-1839 -483,-675 -914,-1420 -1210,-1863 -297,-442 -460,-582 -833,-698 -372,-116 -954,-210 -1536,-431 -582,-221 -1164,-570 -1630,-978 -465,-407 -815,-873 -1193,-1245 -378,-373 -786,-652 -1571,-786 -786,-134 -1950,-122 -2887,76 -937,198 -1647,582 -2159,1059 -513,477 -827,1048 -984,1711 -157,664 -157,1420 -87,2090 70,669 209,1251 541,1740 315,464 803,844 1300,1220 73,-94 137,-180 189,-256 177,-258 211,-384 226,-472 6,-35 9,-64 11,-89 -66,-45 -117,-97 -168,-157 -87,-104 -174,-232 -227,-371 -32,-82 -53,-168 -68,-255 -46,-26 -91,-59 -135,-99 -107,-97 -211,-234 -272,-404 -61,-170 -79,-372 -30,-612 49,-240 165,-517 317,-736 152,-219 340,-380 574,-498 234,-118 514,-192 743,-223 167,-23 307,-23 440,-17 46,-109 95,-217 147,-321 223,-452 505,-849 778,-1111 5,-6 11,-11 17,-17 -28,-6 -56,-13 -83,-23 -123,-46 -228,-138 -296,-225 -67,-87 -97,-169 -127,-251 73,59 147,119 240,166 94,46 209,81 323,77 115,-3 229,-44 300,-99 71,-55 98,-124 126,-192 -60,-129 -119,-257 -141,-386 -22,-129 -6,-260 10,-390 92,201 183,402 273,535 89,133 176,197 297,257 121,60 276,116 416,138 140,22 264,9 397,-50 132,-59 274,-164 416,-269 -46,96 -91,192 -156,292 -64,99 -147,202 -229,305 69,81 110,175 120,277 60,42 122,83 189,122 111,66 234,125 354,170 120,44 237,74 354,104 -167,5 -334,9 -495,-2 -162,-11 -317,-39 -472,-66 50,103 100,206 189,346 89,141 217,319 345,498 -167,-80 -334,-160 -459,-266 -105,-89 -180,-196 -251,-306 -51,64 -109,129 -173,194 -237,239 -555,480 -794,690 -127,112 -232,215 -323,312 13,27 26,52 41,76 48,76 107,136 197,252 89,116 208,289 254,527 47,239 20,543 -68,799 -88,256 -237,465 -407,672 -85,104 -175,207 -279,301 -36,50 -65,101 -85,154 -61,162 -31,341 93,329 123,-13 340,-215 609,-480 269,-266 590,-594 824,-950 234,-357 380,-741 443,-1006 63,-265 42,-412 21,-559 252,-56 503,-112 1027,-77 524,35 1320,161 2046,486 727,325 1383,848 1938,1355 556,506 1010,995 1464,1484z"/> <path class="fil4" d="M6132 9634c38,-6 74,-9 109,-12 -35,3 -71,6 -109,12zm9634 6955l-381 2c4,442 130,767 264,1110 142,366 293,752 299,1266 1,85 -3,173 -9,264 239,24 491,37 799,-4 396,-53 885,-192 1333,-536 448,-343 855,-890 1135,-1484 279,-594 431,-1234 337,-1810 -93,-576 -430,-1088 -867,-1647 -436,-559 -972,-1164 -1455,-1839 -483,-675 -914,-1420 -1210,-1863 -297,-442 -460,-582 -833,-698 -372,-116 -954,-210 -1536,-431 -582,-221 -1164,-570 -1630,-978 -465,-407 -815,-873 -1193,-1245 -378,-373 -786,-652 -1571,-786 -786,-134 -1950,-122 -2887,76 -937,198 -1647,582 -2159,1059 -513,477 -827,1048 -984,1711 -157,664 -157,1420 -87,2090 70,669 209,1251 541,1740 315,464 803,844 1300,1220 73,-94 137,-180 189,-256 177,-258 211,-384 226,-472l11 -89c-66,-45 -117,-97 -168,-157 -87,-104 -174,-232 -227,-371 -32,-82 -53,-168 -68,-255 -11,-60 -19,-121 -28,-182l116 45c15,66 29,132 48,195 25,7 49,12 75,16 111,17 235,6 321,-27 -44,-68 -51,-130 -22,-226 32,-108 108,-260 230,-385 61,-62 132,-117 214,-172 -109,-59 -211,-121 -284,-202 -95,-104 -143,-238 -164,-352 -21,-113 -15,-205 -9,-298 -30,191 -60,382 -62,543 -3,161 20,292 35,414 15,122 21,235 -15,319 -35,83 -113,137 -207,122 -94,-15 -204,-98 -278,-247 -75,-149 -114,-364 -85,-587 28,-224 123,-456 264,-645 140,-190 324,-336 521,-431 197,-95 405,-140 536,-128 56,6 98,22 130,44 -11,-136 -22,-273 -30,-400 -5,-84 -8,-163 -8,-236 0,-183 17,-322 34,-462 -69,75 -139,151 -302,157 -163,6 -419,-58 -547,-221 -128,-163 -128,-425 -35,-594 93,-169 279,-244 460,-201 180,44 355,207 529,370 18,-215 35,-431 108,-611 73,-181 201,-326 297,-431 96,-105 160,-169 224,-233 -181,35 -361,70 -489,32 -128,-38 -204,-148 -210,-270 -5,-123 59,-256 134,-320 76,-64 163,-59 221,8 59,67 88,195 117,323l46 -134c24,-64 59,-157 117,-192 58,-34 139,-11 186,50 47,61 58,160 70,259 151,-157 303,-314 477,-408 175,-93 373,-122 570,-151 12,-87 24,-174 88,-230 64,-55 180,-78 259,-17 78,61 119,206 102,297 -18,90 -93,125 -169,160 285,52 570,104 823,203 254,99 475,245 681,492 207,248 399,597 591,946 23,-76 47,-151 128,-166 82,-14 221,32 285,114 64,81 53,197 -14,259 -67,61 -189,66 -312,72 105,111 210,222 321,318 110,96 227,177 343,259 -6,-129 -12,-257 26,-338 38,-82 119,-116 233,-87 113,29 259,122 282,244 24,122 -75,274 -148,335 -70,59 -116,34 -161,6 138,86 276,172 426,221 151,49 314,61 442,61 128,0 221,-12 314,-23 -75,-70 -151,-140 -174,-219 -24,-78 5,-166 87,-186 81,-20 215,26 285,84 70,59 76,128 64,187 -12,58 -41,104 -70,151 245,-17 489,-35 786,-3 297,32 646,114 902,230 256,116 419,268 582,419 18,-81 35,-163 93,-209 58,-47 157,-59 219,-9 61,49 84,160 95,247 12,87 12,151 -32,184 -43,32 -130,32 -218,32 128,261 256,523 390,753 134,230 274,428 413,626 -11,-93 -23,-186 -5,-262 17,-76 64,-134 136,-131 73,3 172,67 230,154 58,88 76,198 61,274 -14,75 -61,116 -110,128 -50,11 -102,-6 -154,-23l349 384c0,-82 0,-163 35,-210 35,-46 105,-58 154,-12 49,47 79,152 79,228 0,75 -30,122 -59,145 -29,23 -58,23 -87,23 105,163 210,326 439,527 230,201 585,439 751,716 166,276 143,591 120,905 58,0 116,0 180,6 64,6 134,17 169,81 35,64 35,181 -12,274 -46,93 -140,163 -227,169 -87,5 -169,-53 -209,-99 -41,-47 -41,-82 -41,-117 -29,175 -58,349 -125,495 -67,145 -172,262 -277,378 117,18 233,35 320,73 88,38 146,96 163,230 18,134 -6,343 -104,486 -99,142 -274,218 -419,195 -146,-23 -262,-146 -309,-250 -46,-105 -23,-193 0,-280 -46,146 -93,291 -148,399 -56,108 -120,177 -195,180 -76,3 -163,-61 -204,-134 -41,-72 -35,-154 0,-197 35,-44 99,-50 163,-56 -186,0 -373,0 -512,21 -140,20 -233,61 -326,101 58,18 116,35 166,85 49,49 90,131 81,215 -9,85 -67,172 -151,184 -85,11 -195,-53 -256,-128 -61,-76 -73,-163 -82,-222l-20 -116z"/> <path class="fil4" d="M14518 12005c556,506 1010,995 1464,1484 59,51 118,102 75,312 -42,210 -188,579 -341,1079 -36,116 -72,239 -107,366 116,5 233,11 445,-100 212,-111 521,-338 649,-693 128,-355 76,-838 -128,-1298 -204,-460 -559,-896 -1088,-1330 -530,-434 -1234,-864 -1848,-1196 -614,-332 -1138,-565 -1740,-693 -603,-128 -1284,-151 -1802,-133 -518,17 -873,75 -1062,250 -189,174 -212,465 -212,756 0,291 23,582 -30,894 -35,210 -105,430 -186,652 156,-171 309,-356 436,-549 234,-357 380,-741 443,-1006 63,-265 42,-412 21,-559 252,-56 503,-112 1027,-77 524,35 1320,161 2046,486 727,325 1383,848 1938,1355z"/> <path class="fil5" d="M5335 7477c-37,-81 -89,-212 -12,-317 77,-105 284,-183 409,-118 125,66 169,275 102,396 -67,121 -245,153 -343,153 -99,0 -120,-32 -156,-114zm13317 7958c129,-89 385,-100 483,45 97,146 36,448 -67,611 -103,163 -249,187 -348,124 -99,-62 -151,-211 -176,-368 -25,-157 -22,-323 108,-412zm-2625 1953c16,-85 56,-209 135,-202 78,7 195,146 220,253 25,107 -42,183 -116,199 -75,16 -156,-28 -201,-73 -45,-45 -54,-91 -38,-177zm614 118c-60,-79 -135,-227 -81,-329 53,-102 237,-157 398,-104 162,54 301,217 269,324 -32,106 -235,155 -359,176 -124,20 -167,11 -227,-67zm-3361 -8243c27,-66 74,-159 154,-184 80,-24 193,19 202,85 9,65 -87,153 -172,196 -84,44 -157,44 -189,25 -32,-19 -23,-57 5,-122zm-2655 -1700c-59,-150 -65,-350 28,-398 93,-49 285,56 345,206 60,150 -13,345 -106,393 -93,48 -207,-51 -267,-201zm-5177 1995c22,-70 115,-160 178,-137 62,23 94,159 72,229 -22,70 -97,73 -160,50 -62,-23 -112,-72 -90,-142zm-975 -94c86,-133 246,-284 387,-299 142,-14 264,108 261,265 -3,157 -131,349 -278,421 -147,71 -313,21 -390,-60 -77,-82 -65,-195 20,-327z"/> <path class="fil0" d="M6720 9626c-179,-12 -358,-24 -588,8 -229,31 -509,105 -743,223 -234,118 -422,279 -574,498 -152,219 -268,496 -317,736 -49,240 -31,442 30,612 61,170 165,307 272,404 108,97 218,153 346,173 128,19 274,1 359,-43 85,-45 109,-117 118,-212 9,-95 3,-215 61,-302 58,-88 180,-145 302,-202 -143,-74 -286,-149 -381,-253 -95,-104 -143,-238 -164,-352 -21,-113 -15,-205 -9,-298 -30,191 -60,382 -62,543 -3,161 20,292 35,414 15,122 21,235 -15,319 -35,83 -113,137 -207,122 -94,-15 -204,-98 -278,-247 -75,-149 -114,-364 -85,-587 28,-224 123,-456 264,-645 140,-190 324,-336 521,-431 197,-95 405,-140 536,-128 130,13 182,83 216,151 35,69 52,136 69,202 98,-235 196,-470 294,-705z"/> <path class="fil6" d="M9320 19805c-128,94 -205,267 -208,407 -3,140 68,247 140,355 83,-30 167,-60 262,-97 95,-37 203,-82 359,-116 156,-35 362,-59 568,-82 32,-69 65,-137 58,-200 -8,-63 -55,-119 -177,-183 -123,-64 -319,-136 -507,-164 -188,-29 -367,-14 -495,80z"/> <path class="fil6" d="M11265 19670c-169,107 -300,247 -353,356 -54,109 -30,186 -6,264l313 125c44,-51 89,-102 184,-155 96,-54 242,-111 395,-145 154,-34 314,-46 475,-58l-1 -189c-2,-82 -5,-192 -43,-283 -39,-91 -114,-163 -184,-188 -70,-25 -135,-4 -271,43 -135,48 -341,122 -509,230z"/> <path class="fil7" d="M10749 20516c-207,-39 -401,-39 -645,1 -244,41 -539,121 -815,258 -276,137 -532,331 -788,525 74,35 149,71 344,147 195,76 511,192 872,251 360,58 765,58 1187,10 422,-48 860,-143 1252,-280 392,-137 737,-316 996,-502 260,-187 433,-380 605,-574 -324,-51 -649,-101 -932,-113 -283,-12 -525,15 -701,55 -175,40 -286,94 -396,148 60,74 119,148 165,260 47,112 79,261 112,410 -202,-134 -405,-268 -617,-374 -211,-106 -432,-183 -639,-222z"/> <path class="fil8" d="M11728 20442c60,74 119,148 165,260 47,112 79,261 112,410 -202,-134 -405,-268 -617,-374 -211,-106 -432,-183 -639,-222 -207,-39 -401,-39 -645,1 -244,41 -539,121 -815,258 -276,137 -532,331 -788,525 70,33 140,67 311,135 154,-119 320,-236 558,-337 289,-124 685,-226 996,-256 312,-31 539,10 763,85 224,76 445,187 610,294 126,83 219,164 304,245 36,-12 71,-24 107,-36 35,-124 67,-250 86,-383 25,-172 28,-355 22,-496 -5,-113 -15,-198 -26,-278 -38,6 -74,13 -108,21 -175,40 -286,94 -396,148z"/> <path class="fil8" d="M12101 20635c195,-46 390,-93 602,-104 211,-12 440,11 604,29 165,17 265,29 365,40 91,-116 181,-232 271,-349 -292,-45 -585,-90 -877,-135 -380,32 -760,64 -1140,96 59,141 117,282 175,423z"/> <path class="fil0" d="M4509 18256c182,-139 363,-279 608,-358 244,-79 551,-98 861,-28 310,70 622,228 864,435 242,207 414,463 775,678 361,214 910,386 1453,470 542,84 1078,79 1585,14 508,-65 987,-191 1378,-352 392,-160 694,-356 939,-554 244,-198 430,-398 556,-558 126,-161 191,-282 256,-403 -65,-28 -130,-56 -251,-37 -121,18 -298,83 -475,149 88,-89 177,-177 286,-243 110,-65 240,-107 366,-111 125,-5 246,28 347,77 100,48 179,114 235,211 56,98 88,228 121,359 -107,-79 -215,-158 -303,-203 -88,-44 -158,-53 -228,-63 70,135 140,271 205,517 65,247 126,606 140,939 13,332 -19,640 -119,935 -100,296 -268,580 -550,852 -281,273 -677,534 -1166,729 -489,196 -1071,326 -1620,363 -550,38 -1067,-18 -1565,-144 -498,-126 -978,-321 -1338,-605 -361,-284 -603,-657 -757,-1048 -154,-391 -219,-801 -312,-1115 -93,-314 -214,-533 -375,-703 -160,-170 -361,-291 -580,-352 -218,-60 -456,-60 -682,-25 -226,35 -440,104 -654,174zm3992 3044c256,-194 512,-388 788,-525 276,-137 571,-217 815,-258 244,-40 438,-40 645,-1 207,39 428,116 639,222 212,106 415,240 617,374 -33,-149 -65,-298 -112,-410 -46,-112 -105,-186 -165,-260 110,-54 221,-108 396,-148 176,-40 418,-67 701,-55 283,12 608,62 932,113 -172,194 -345,387 -605,574 -259,186 -604,365 -996,502 -392,137 -830,232 -1252,280 -422,48 -827,48 -1187,-10 -361,-59 -677,-175 -872,-251 -195,-76 -270,-112 -344,-147zm751 -733c-72,-108 -143,-215 -140,-355 3,-140 80,-313 208,-407 128,-94 307,-109 495,-80 188,28 384,100 507,164 122,64 169,120 177,183 7,63 -26,131 -58,200 -206,23 -412,47 -568,82 -156,34 -264,79 -359,116 -95,37 -179,67 -262,97zm1654 -277c-24,-78 -48,-155 6,-264 53,-109 184,-249 353,-356 168,-108 374,-182 509,-230 136,-47 201,-68 271,-43 70,25 145,97 184,188 38,91 41,201 43,283 1,82 1,135 1,189 -161,12 -321,24 -475,58 -153,34 -299,91 -395,145 -95,53 -140,104 -184,155 -105,-42 -209,-84 -313,-125z"/> <path class="fil9" d="M6484 11389c73,32 146,64 204,124 58,59 102,147 145,234 -26,35 -52,70 -100,119 -48,50 -118,114 -209,150 -92,36 -206,45 -297,12 -92,-34 -162,-109 -227,-159 -66,-49 -127,-73 -189,-42 -62,30 -125,114 -134,188 -9,74 37,139 103,189 67,49 154,84 330,94 176,10 441,-4 614,-74 173,-70 255,-195 323,-369 69,-175 124,-399 179,-623 76,137 152,273 230,343 79,70 160,73 242,76l-321 378c-93,111 -165,198 -312,296 -147,97 -368,205 -598,243 -53,8 -106,13 -159,15 -6,75 -8,143 0,191 12,73 47,100 125,112 77,11 197,9 355,-21l562 -212c126,-88 225,-206 341,-380 131,-198 283,-469 357,-709 75,-240 72,-449 30,-596 -42,-148 -122,-234 -204,-280 -82,-46 -166,-52 -259,-21 -93,32 -195,102 -297,171 125,-300 250,-599 469,-899 219,-299 532,-598 769,-793 237,-194 398,-284 465,-427 67,-143 40,-340 -56,-487 -96,-148 -262,-246 -510,-219 -248,27 -578,179 -867,483 -288,304 -534,760 -764,1162 -137,240 -269,460 -398,673 -88,145 -175,286 -261,426 66,-203 133,-406 203,-606 -3,-7 -7,-14 -11,-22 -19,-38 -44,-78 -86,-107 -32,-22 -74,-38 -130,-44 -131,-12 -339,33 -536,128 -197,95 -381,241 -521,431 -141,189 -236,421 -264,645 -29,223 10,438 85,587 74,149 184,232 278,247 94,15 172,-39 207,-122 36,-84 30,-197 15,-319 -15,-122 -38,-253 -35,-414 2,-161 32,-352 62,-543 -6,93 -12,185 9,298 21,114 69,248 164,352 73,81 175,143 284,202 83,-56 176,-112 276,-173l660 -406c-27,82 -53,163 -109,246 -57,83 -145,168 -232,252zm-406 1782c-228,134 -451,275 -646,447 -247,218 -451,487 -588,713 -137,226 -207,411 -383,584 -176,173 -458,335 -643,490 -184,155 -271,303 -319,434 -49,132 -60,246 -14,341 46,95 149,171 310,147 81,-12 178,-50 282,-100 189,-338 384,-626 573,-866 318,-406 618,-678 971,-933 352,-255 757,-492 991,-667 234,-174 297,-286 298,-425 0,-69 -15,-144 -37,-222 -190,41 -389,59 -570,62 -79,1 -154,-1 -225,-5zm-335 -694c-126,-59 -209,-134 -259,-199 -6,-9 -12,-17 -17,-25 -86,33 -210,44 -321,27 -26,-4 -51,-9 -75,-16 9,27 18,55 28,81 35,85 82,159 155,225 73,65 172,122 260,135 87,14 165,-16 201,-88 19,-37 26,-86 28,-140z"/> <path class="fil10" d="M5317 14293c-314,265 -547,600 -733,801 -187,200 -326,267 -438,263 -67,-3 -124,-30 -176,-68 -55,39 -106,78 -152,116 -184,155 -271,303 -319,434 -49,132 -60,246 -14,341 46,95 149,171 310,147 81,-12 178,-50 282,-100 189,-338 384,-626 573,-866 318,-406 618,-678 971,-933 352,-255 757,-492 991,-667 234,-174 297,-286 298,-425 0,-69 -15,-144 -37,-222 -66,14 -133,25 -199,35l-33 61c-52,102 -135,265 -375,444 -239,180 -635,375 -949,639z"/> <path class="fil0" d="M10043 13994c-38,-85 -131,-207 -238,-271 -108,-64 -230,-70 -431,-3 -201,67 -480,207 -706,346 -225,140 -397,280 -509,466 -112,186 -165,419 -165,592 0,173 53,287 176,368 124,82 319,131 470,128 152,-2 259,-58 424,-147 164,-88 385,-211 534,-362 148,-151 224,-332 272,-476 48,-144 68,-251 33,-264 -34,-14 -125,68 -235,104 -111,37 -242,28 -316,-11 -74,-40 -92,-109 -81,-187 10,-77 48,-161 107,-231 60,-70 141,-125 214,-148 73,-24 137,-15 188,14 51,29 89,79 131,126 43,46 89,90 121,88 32,-1 49,-48 11,-132zm-1228 230c15,67 29,133 -7,195 -37,61 -124,116 -172,197 -48,82 -57,190 3,262 60,73 188,111 288,114 101,3 173,-29 226,-54 52,-25 84,-42 116,-60 9,50 18,99 -33,168 -51,68 -162,155 -280,215 -118,60 -243,92 -362,93 -119,2 -233,-28 -297,-110 -64,-83 -78,-220 -48,-360 31,-140 106,-282 208,-393 102,-110 230,-189 358,-267z"/> <path class="fil0" d="M12480 14040c-256,61 -512,122 -762,272 -250,150 -495,390 -643,629 -147,240 -199,480 -182,698 16,217 100,413 246,515 147,103 357,112 569,59 211,-54 426,-170 606,-343 180,-172 327,-400 404,-615 77,-216 84,-418 91,-621 -86,103 -173,205 -291,262 -119,57 -270,69 -376,18 -106,-52 -167,-166 -173,-279 -5,-113 43,-224 138,-323 94,-99 234,-185 373,-272zm-847 1132c1,-6 2,-13 2,-19 7,-66 -13,-137 -53,-198 -22,-34 -51,-65 -82,-94 -87,75 -170,153 -242,246 -98,125 -174,277 -173,435 1,158 80,324 226,403 145,79 357,72 518,12 160,-61 270,-175 379,-289 -19,-54 -37,-107 -80,-131 -43,-23 -111,-16 -174,12 -63,28 -121,77 -200,82 -79,4 -179,-35 -236,-87 -57,-51 -71,-114 -43,-188 24,-66 82,-142 158,-184z"/> <path class="fil11" d="M8927 14992c-100,-3 -228,-41 -288,-114 -60,-72 -51,-180 -3,-262 48,-81 135,-136 172,-197 36,-62 22,-128 7,-195 -128,78 -256,157 -358,267 -102,111 -177,253 -208,393 -30,140 -16,277 48,360 64,82 178,112 297,110 119,-1 244,-33 362,-93 118,-60 229,-147 280,-215 51,-69 42,-118 33,-168 -32,18 -64,35 -116,60 -53,25 -125,57 -226,54z"/> <path class="fil11" d="M11258 15107c-98,125 -174,277 -173,435 1,158 80,324 226,403 145,79 357,72 518,12 160,-61 270,-175 379,-289 -19,-54 -37,-107 -80,-131 -43,-23 -111,-16 -174,12 -63,28 -121,77 -200,82 -79,4 -179,-35 -236,-87 -57,-51 -71,-114 -43,-188 24,-66 82,-142 158,-184l2 -19c7,-66 -13,-137 -53,-198 -22,-34 -51,-65 -82,-94 -87,75 -170,153 -242,246z"/> <path class="fil12" style="mask:url(#id0)" d="M8927 14992c-100,-3 -228,-41 -288,-114 -60,-72 -51,-180 -3,-262 48,-81 135,-136 172,-197 36,-62 22,-128 7,-195 -128,78 -256,157 -358,267 -102,111 -177,253 -208,393 -30,140 -16,277 48,360 64,82 178,112 297,110 119,-1 244,-33 362,-93 118,-60 229,-147 280,-215 51,-69 42,-118 33,-168 -32,18 -64,35 -116,60 -53,25 -125,57 -226,54z"/> <path class="fil12" style="mask:url(#id2)" d="M11258 15107c-98,125 -174,277 -173,435 1,158 80,324 226,403 145,79 357,72 518,12 160,-61 270,-175 379,-289 -19,-54 -37,-107 -80,-131 -43,-23 -111,-16 -174,12 -63,28 -121,77 -200,82 -79,4 -179,-35 -236,-87 -57,-51 -71,-114 -43,-188 24,-66 82,-142 158,-184l2 -19c7,-66 -13,-137 -53,-198 -22,-34 -51,-65 -82,-94 -87,75 -170,153 -242,246z"/> <path class="fil11" d="M9781 14423c9,-37 19,-74 30,-111 29,-96 62,-189 99,-277 -42,-45 -80,-94 -130,-123 -51,-29 -115,-38 -188,-14 -73,23 -154,78 -214,148 -59,70 -97,154 -107,231 -11,78 7,147 81,187 74,39 205,48 316,11 41,-13 79,-33 113,-52z"/> <path class="fil11" d="M8159 14532c112,-186 284,-326 509,-466 226,-139 505,-279 706,-346 201,-67 323,-61 431,3 66,39 127,101 172,162 59,-121 122,-228 185,-317 128,-183 252,-288 403,-393 51,-36 105,-72 167,-106 -5,-8 -11,-15 -17,-22 -73,-86 -221,-162 -372,-199 -151,-37 -305,-33 -527,59 -222,93 -511,275 -913,460 -402,185 -915,373 -1303,574 -387,201 -649,414 -770,627 -120,213 -99,426 46,717 145,292 414,662 667,887 253,226 490,306 751,322 260,15 543,-33 730,-81 106,-26 181,-53 243,-79 10,-91 31,-184 60,-282 72,-240 191,-507 272,-808 16,-60 31,-121 45,-183 -15,17 -30,34 -46,50 -149,151 -370,274 -534,362 -165,89 -272,145 -424,147 -151,3 -346,-46 -470,-128 -123,-81 -176,-195 -176,-368 0,-173 53,-406 165,-592z"/> <path class="fil11" d="M10445 13697c-145,160 -255,370 -336,691 -81,322 -133,756 -224,1088 -90,331 -219,560 -274,779 -55,219 -36,429 88,615 124,186 353,348 706,429 353,81 830,81 1344,-4 515,-86 1069,-258 1526,-558 458,-301 820,-730 1042,-1168 222,-439 303,-887 265,-1221 -39,-334 -196,-553 -496,-749 -301,-195 -744,-367 -1202,-434 -458,-66 -930,-28 -1254,15 -324,43 -500,90 -679,169 -179,79 -360,188 -506,348zm1273 615c250,-150 506,-211 762,-272 -139,87 -279,173 -373,272 -95,99 -143,210 -138,323 6,113 67,227 173,279 106,51 257,39 376,-18 118,-57 205,-159 291,-262 -7,203 -14,405 -91,621 -77,215 -224,443 -404,615 -180,173 -395,289 -606,343 -212,53 -422,44 -569,-59 -146,-102 -230,-298 -246,-515 -17,-218 35,-458 182,-698 148,-239 393,-479 643,-629z"/> <path class="fil13" d="M8870 16069c-258,28 -550,-24 -816,-161 -267,-138 -507,-361 -670,-603 -164,-242 -252,-504 -221,-753 19,-156 85,-307 168,-457 -242,155 -411,314 -501,473 -120,213 -99,426 46,717 145,292 414,662 667,887 253,226 490,306 751,322 260,15 543,-33 730,-81 106,-26 181,-53 243,-79 10,-91 31,-184 60,-282 13,-43 28,-88 43,-133 -157,71 -320,130 -500,150z"/> <path class="fil13" d="M9611 16255c-55,219 -36,429 88,615 124,186 353,348 706,429 353,81 830,81 1344,-4 515,-86 1069,-258 1526,-558 458,-301 820,-730 1042,-1168 222,-439 303,-887 265,-1221 -39,-334 -196,-553 -496,-749 -113,-73 -245,-143 -391,-205 116,314 217,638 238,1014 26,458 -65,995 -386,1419 -321,423 -871,733 -1408,910 -537,177 -1061,220 -1436,172 -375,-48 -602,-187 -705,-392 -102,-206 -81,-476 -99,-758 -6,-80 -14,-161 -25,-243 -90,310 -210,529 -263,739z"/> <path class="fil0" d="M3470 21139c-484,205 -969,410 -1467,755 -497,345 -1008,830 -1519,1314 380,-201 760,-401 1070,-513 310,-111 550,-133 790,-155 -162,114 -323,227 -423,304 -101,76 -140,115 -219,262 -78,146 -196,399 -314,652 236,-183 471,-366 666,-502 194,-135 347,-222 499,-310 31,144 61,288 278,404 216,116 617,203 966,306 350,102 647,220 948,369 301,148 606,327 912,506 -227,187 -454,375 -653,611 -198,236 -368,519 -539,803 528,-244 1057,-489 1672,-659 616,-170 1318,-266 2084,-314 766,-48 1596,-48 2292,-247 696,-198 1260,-594 1823,-990 -522,135 -1044,271 -1567,407 25,68 49,137 -11,232 -59,96 -203,218 -605,279 -402,61 -1061,61 -1709,72 -648,11 -1285,33 -1715,50 -430,18 -653,31 -876,44 385,-162 769,-323 1173,-425 404,-101 828,-143 1252,-185 -276,-57 -551,-115 -827,-172 -476,-115 -951,-230 -1314,-339 -362,-110 -611,-215 -965,-269 -353,-55 -811,-59 -1252,-116 -441,-57 -865,-166 -1288,-275 266,-118 533,-236 1047,-263 514,-27 1277,37 2039,100 -483,-151 -966,-301 -1449,-452 -293,0 -585,0 -845,30 -259,31 -487,92 -705,188 -218,96 -427,227 -637,358 306,-262 611,-524 897,-692 286,-168 552,-242 818,-317 -52,-87 -104,-174 -157,-262 -327,105 -654,210 -1023,352 -369,142 -779,321 -1190,500 397,-297 795,-594 1148,-797 354,-203 664,-312 974,-421 -27,-74 -53,-149 -79,-223zm1435 2486c202,24 431,46 799,124 368,77 874,210 1380,343 -242,33 -484,66 -686,112 -202,46 -363,104 -525,163 -297,-179 -594,-358 -847,-494 -253,-136 -462,-230 -672,-324 175,26 349,52 551,76z"/> <path class="fil14" d="M3309 21447c-232,86 -471,185 -734,336 -353,203 -751,500 -1148,797 411,-179 821,-358 1190,-500 301,-116 574,-207 843,-294 -35,-64 -68,-133 -99,-206 -18,-43 -35,-87 -52,-133z"/> <path class="fil14" d="M3621 22041c-208,61 -419,135 -642,266 -286,168 -591,430 -897,692 210,-131 419,-262 637,-358 218,-96 446,-157 705,-188 181,-21 378,-28 579,-30 -135,-100 -265,-225 -382,-382z"/> <path class="fil14" d="M4812 22804c-431,-29 -826,-45 -1133,-29 -514,27 -781,145 -1047,263 423,109 847,218 1288,275 441,57 899,61 1252,116 354,54 603,159 965,269 363,109 838,224 1314,339 -286,-86 -542,-193 -783,-316 -450,-231 -848,-517 -1232,-692 -212,-96 -419,-158 -624,-225z"/> <path class="fil15" d="M5704 23749c-368,-78 -597,-100 -799,-124 -202,-24 -376,-50 -551,-76 210,94 419,188 672,324 253,136 550,315 847,494 162,-59 323,-117 525,-163 202,-46 444,-79 686,-112 -506,-133 -1012,-266 -1380,-343z"/> <path class="fil14" d="M8278 24209c-424,42 -848,84 -1252,185 -404,102 -788,263 -1173,425 223,-13 446,-26 876,-44 430,-17 1067,-39 1715,-50 648,-11 1307,-11 1709,-72 402,-61 546,-183 605,-279 60,-95 36,-164 12,-233 -106,19 -213,36 -323,51 -702,94 -1512,101 -2169,17z"/> <path class="fil16" d="M2468 21993c-274,142 -569,321 -870,512 353,-153 701,-303 1019,-425 301,-116 574,-207 843,-294 -30,-55 -58,-113 -85,-175 -290,104 -585,217 -907,382z"/> <path class="fil16" d="M3424 22453c181,-21 378,-28 579,-30 -91,-67 -179,-146 -263,-238 -266,81 -535,173 -828,322 -159,82 -325,180 -495,289 99,-57 200,-110 302,-155 218,-96 446,-157 705,-188z"/> <path class="fil16" d="M3434 23008c-163,-30 -284,-77 -389,-131 -156,47 -285,104 -413,161 423,109 847,218 1288,275 441,57 899,61 1252,116 354,54 603,159 965,269 363,109 838,224 1314,339 -286,-86 -542,-193 -783,-316 -114,-59 -224,-120 -332,-183 -204,-69 -400,-131 -584,-185 -468,-136 -855,-213 -1247,-252 -393,-39 -793,-41 -1071,-93z"/> <path class="fil16" d="M7506 24487c-486,36 -928,115 -1357,209 -99,40 -197,82 -296,123 223,-13 446,-26 876,-44 430,-17 1067,-39 1715,-50 648,-11 1307,-11 1709,-72 402,-61 546,-183 605,-279 48,-76 42,-135 26,-190 -329,106 -684,199 -1144,239 -617,53 -1423,12 -2134,64z"/> <path class="fil0" d="M14831 21702c489,-236 978,-472 1528,-666 550,-194 1161,-347 1711,-443 550,-96 1039,-135 1527,-174 -755,318 -1510,637 -2143,966 -633,330 -1143,670 -1482,945 -338,276 -504,485 -670,695 524,-40 1048,-79 1469,-79 421,0 740,39 1028,116 288,76 546,190 803,303 -598,0 -1196,0 -1648,22 -451,22 -757,65 -1169,231 -413,166 -932,454 -1286,651 -353,196 -541,301 -757,310 -216,8 -461,-79 -616,-145 -155,-65 -220,-109 -286,-152 -305,74 -611,148 -964,196 -354,48 -756,70 -1157,92 357,-224 715,-448 1072,-672 171,67 342,133 517,136 174,3 353,-58 421,-145 68,-87 24,-201 -11,-266 -35,-66 -61,-83 -87,-101 161,13 323,26 559,4 235,-21 545,-78 794,-168 249,-89 436,-211 685,-416 249,-206 559,-494 961,-782 401,-288 894,-576 1348,-805 454,-229 869,-399 1284,-570 -616,162 -1231,323 -1762,509 -530,185 -975,395 -1391,611 -416,216 -802,439 -1188,661 303,-288 606,-576 910,-864zm-1339 2533c-62,-65 -134,-169 -85,-280 49,-110 219,-225 563,-353 344,-128 861,-267 1381,-345 519,-77 1041,-93 1562,-108 -548,118 -1095,236 -1568,402 -472,165 -870,379 -1138,520 -269,141 -408,209 -504,230 -96,22 -149,-2 -211,-66z"/> <path class="fil14" d="M12631 23522c161,13 323,26 559,4 235,-21 545,-78 794,-168 249,-89 436,-211 685,-416 249,-206 559,-494 961,-782 401,-288 894,-576 1348,-805 454,-229 869,-399 1284,-570 -616,162 -1231,323 -1762,509 -530,185 -975,395 -1391,611 -206,107 -404,215 -599,325 -379,312 -844,607 -1310,902 -207,153 -408,291 -598,399 -204,116 -395,198 -580,264 104,-20 209,-40 314,-60 -114,80 -228,159 -342,238 103,34 208,60 314,61 174,3 353,-58 421,-145 68,-87 24,-201 -11,-266 -35,-66 -61,-83 -87,-101z"/> <path class="fil14" d="M13970 23602c-344,128 -514,243 -563,353 -49,111 23,215 85,280 62,64 115,88 211,66 96,-21 235,-89 504,-230 268,-141 666,-355 1138,-520 473,-166 1020,-284 1568,-402 -521,15 -1043,31 -1562,108 -520,78 -1037,217 -1381,345z"/> <path class="fil16" d="M13398 23980c-30,101 36,195 94,255 62,64 115,88 211,66 96,-21 235,-89 504,-230 268,-141 666,-355 1138,-520 473,-166 1020,-284 1568,-402 -20,1 -40,1 -60,2 -462,62 -922,132 -1373,239 -570,134 -1126,326 -1521,444 -232,69 -408,113 -561,146z"/> <path class="fil16" d="M13984 23358c249,-89 436,-211 685,-416 249,-206 559,-494 961,-782 401,-288 894,-576 1348,-805 454,-229 869,-399 1284,-570 -62,17 -124,33 -186,49 -902,357 -1770,714 -2416,1069 -767,423 -1224,844 -1677,1114 -453,269 -902,387 -1352,505 161,13 323,26 559,4 235,-21 545,-78 794,-168z"/> <path class="fil9" d="M9070 19453c542,84 1078,79 1585,14 508,-65 987,-191 1378,-352 392,-160 694,-356 939,-554 244,-198 430,-398 556,-558 126,-161 191,-282 256,-403 -65,-28 -130,-56 -251,-37 -121,18 -298,83 -475,149 88,-89 177,-177 286,-243 110,-65 240,-107 366,-111 125,-5 246,28 347,77 100,48 179,114 235,211 56,98 88,228 121,359 -107,-79 -215,-158 -303,-203 -88,-44 -158,-53 -228,-63 70,135 140,271 205,517 65,247 126,606 140,939 13,332 -19,640 -119,935 -100,296 -268,580 -550,852 -281,273 -677,534 -1166,729 -489,196 -1071,326 -1620,363 -550,38 -1067,-18 -1565,-144 -498,-126 -978,-321 -1338,-605 -361,-284 -603,-657 -757,-1048 -154,-391 -219,-801 -312,-1115 -93,-314 -214,-533 -375,-703 -160,-170 -361,-291 -580,-352 -218,-60 -456,-60 -682,-25 -226,35 -440,104 -654,174 182,-139 363,-279 608,-358 244,-79 551,-98 861,-28 310,70 622,228 864,435 242,207 414,463 775,678 361,214 910,386 1453,470zm2773 3368c531,-116 1030,-319 1453,-555 423,-235 768,-504 1025,-756 257,-251 424,-485 592,-719 -196,321 -391,642 -721,976 -330,333 -795,679 -1350,936 -555,257 -1201,424 -1754,467 -552,44 -1011,-37 -1346,-126 -335,-89 -547,-186 -812,-273 -264,-87 -582,-164 -900,-241 272,3 545,7 904,86 360,78 807,232 1312,293 504,61 1067,30 1597,-88zm1333 325c637,-575 1274,-1151 1700,-1790 426,-640 641,-1344 713,-1936 73,-592 3,-1073 -87,-1414 -91,-341 -203,-542 -365,-718 -162,-176 -374,-327 -586,-478 123,-111 246,-223 368,-472 123,-249 246,-634 386,-1058 140,-425 298,-887 370,-1209 24,-106 39,-197 48,-277 -22,-63 -51,-129 -91,-197 -146,-255 -433,-548 -764,-873 -332,-325 -709,-681 -1121,-1002 -412,-321 -859,-608 -1310,-800 -450,-192 -904,-290 -1344,-311 -440,-21 -866,35 -1292,91 7,321 14,643 -137,985 -150,342 -457,705 -849,1043 -377,325 -832,626 -1368,973 195,-93 412,-180 632,-274 353,-150 712,-317 988,-457 276,-140 468,-251 646,-353 178,-101 342,-192 548,-187 206,6 454,107 606,238 92,79 148,168 191,261 46,-14 95,-27 148,-40 315,-74 768,-116 1256,-90 489,26 1013,121 1433,293 420,172 734,420 923,691 188,272 250,568 202,925 -47,358 -205,777 -460,1173 -255,396 -608,768 -989,1047 -382,279 -792,465 -1307,581 -515,117 -1134,165 -1578,146 -443,-19 -710,-105 -927,-272 -217,-167 -384,-415 -456,-646 -3,-11 -6,-22 -9,-33 -268,33 -537,60 -812,50 -333,-13 -675,-79 -951,-238 -276,-159 -486,-410 -659,-681 -173,-270 -309,-560 -363,-792 -54,-233 -26,-407 75,-598 65,-122 160,-250 289,-372 -417,275 -841,570 -1183,869 -485,424 -806,857 -1100,1269 -293,412 -558,803 -761,1376 -202,572 -342,1327 -339,2039 4,712 151,1383 378,1861 227,479 534,765 852,953 317,189 646,280 998,433 353,154 730,371 1062,528 332,157 618,255 1065,391 447,136 1055,311 1830,307 689,-3 1511,-147 2347,-306 185,-66 376,-148 580,-264 190,-108 391,-246 598,-399 -8,4 -16,9 -24,14z"/> <path class="fil10" d="M8872 8172c-6,125 -133,296 -384,537 -252,240 -627,550 -904,1023 -277,474 -456,1111 -617,1519 -64,165 -126,292 -187,392 18,33 36,69 53,104 -26,35 -52,70 -100,119 -48,50 -118,114 -209,150 -75,29 -163,41 -242,26 -101,29 -201,35 -287,20 -113,-18 -202,-73 -286,-135 -17,28 -28,59 -32,88 -9,74 37,139 103,189 67,49 154,84 330,94 176,10 441,-4 614,-74 173,-70 255,-195 323,-369 69,-175 124,-399 179,-623l92 -394c125,-300 250,-599 469,-899 105,-143 232,-287 361,-419 141,-143 285,-273 408,-374 237,-194 398,-284 465,-427 67,-143 40,-340 -56,-487 -27,-41 -59,-79 -97,-111 3,16 5,33 4,51z"/> <path class="fil10" d="M7840 11844c-79,3 -170,-15 -268,-44l-195 229c-93,111 -165,198 -312,296 -147,97 -368,205 -598,243 -53,8 -106,13 -159,15 -6,75 -8,143 0,191 12,73 47,100 125,112 77,11 197,9 355,-21l562 -212c126,-88 225,-206 341,-380 84,-128 178,-287 253,-448 -32,10 -67,17 -104,19z"/> <path class="fil10" d="M5743 12477c-126,-59 -209,-134 -259,-199 -6,-9 -12,-17 -17,-25 -86,33 -210,44 -321,27 -26,-4 -51,-9 -75,-16l28 81c35,85 82,159 155,225 73,65 172,122 260,135 87,14 165,-16 201,-88 19,-37 26,-86 28,-140z"/> <path class="fil10" d="M5183 12016c94,15 172,-39 207,-122 20,-45 27,-99 27,-158 -105,2 -210,4 -286,-75 -77,-80 -125,-242 -128,-443 -3,-201 39,-441 147,-633 107,-192 281,-336 455,-479 -197,95 -381,241 -521,431 -141,189 -236,421 -264,645 -29,223 10,438 85,587 74,149 184,232 278,247z"/> <path class="fil10" d="M8930 22771c-3,-2 -7,-3 -11,-4 4,1 8,2 11,4zm2158 399c-552,44 -1011,-37 -1346,-126 -335,-89 -547,-186 -812,-273 165,40 330,83 510,123 479,106 1064,191 1648,276zm1566 -385c-509,210 -1075,347 -1566,385l1566 -385zm1420 -904c-319,297 -740,594 -1232,822 -62,28 -124,56 -188,82l1420 -904zm-7892 421c-630,-232 -1189,-694 -1569,-1188 -379,-493 -580,-1017 -704,-1531 -125,-515 -173,-1020 -80,-1606 46,-285 124,-590 221,-905 -80,157 -154,327 -221,517 -202,572 -342,1327 -339,2039 4,712 151,1383 378,1861 227,479 534,765 852,953 317,189 646,280 998,433 353,154 730,371 1062,528 332,157 618,255 1065,391 447,136 1055,311 1830,307 689,-3 1511,-147 2347,-306 185,-66 376,-148 580,-264 190,-108 391,-246 598,-399 -8,4 -16,9 -24,14 637,-575 1274,-1151 1700,-1790 426,-640 641,-1344 713,-1936 73,-592 3,-1073 -87,-1414 -91,-341 -203,-542 -365,-718 -162,-176 -374,-327 -586,-478 123,-111 246,-223 368,-472 123,-249 246,-634 386,-1058 140,-425 298,-887 370,-1209 24,-106 39,-197 48,-277 -22,-63 -51,-129 -91,-197 -146,-255 -433,-548 -764,-873 -332,-325 -709,-681 -1121,-1002 -412,-321 -859,-608 -1310,-800 -450,-192 -904,-290 -1344,-311 -440,-21 -866,35 -1292,91 7,321 14,643 -137,985 -92,210 -244,429 -438,644 357,-142 690,-260 974,-327 540,-130 901,-77 1088,2 188,79 203,183 218,287 436,-88 873,-175 1292,-184 419,-8 821,61 1235,315 415,253 843,689 928,1145 28,150 20,301 -13,454 84,206 106,431 72,687 -47,358 -205,777 -460,1173 -186,289 -424,564 -687,801 294,256 587,512 808,789 221,276 369,573 439,892 70,318 61,659 14,1067 -48,408 -135,883 -221,1359 -196,321 -391,642 -721,976 -38,38 -77,76 -118,114l455 -591c-63,72 -132,145 -208,220 -257,252 -602,521 -1025,756 -423,236 -922,439 -1453,555 -530,118 -1093,149 -1597,88 -505,-61 -952,-215 -1312,-293 -359,-79 -632,-83 -904,-86 313,76 627,151 889,237 -269,-68 -538,-131 -868,-170 -538,-64 -1239,-64 -1869,-295z"/> <path class="fil0" d="M8030 22530c272,3 545,7 904,86 360,78 807,232 1312,293 504,61 1067,30 1597,-88 531,-116 1030,-319 1453,-555 423,-235 768,-504 1025,-756 257,-251 424,-485 592,-719 -196,321 -391,642 -721,976 -330,333 -795,679 -1350,936 -555,257 -1201,424 -1754,467 -552,44 -1011,-37 -1346,-126 -335,-89 -547,-186 -812,-273 -264,-87 -582,-164 -900,-241z"/> <path class="fil10" d="M9294 16706c-268,33 -537,60 -812,50 -333,-13 -675,-79 -951,-238 -276,-159 -486,-410 -659,-681 -173,-270 -309,-560 -363,-792 0,-1 0,-2 0,-2 -49,114 -91,238 -117,386 -50,286 -41,657 83,960 125,304 365,539 644,696 279,158 598,236 901,267 304,30 592,13 880,-5 153,210 306,419 609,553 303,133 757,189 1340,135 583,-55 1294,-221 1816,-491 232,-121 427,-262 600,-415 -297,172 -620,296 -1001,382 -515,117 -1134,165 -1578,146 -443,-19 -710,-105 -927,-272 -217,-167 -384,-415 -456,-646 -3,-11 -6,-22 -9,-33z"/> </g> </svg>