<?xml version="1.0" encoding="UTF-8" standalone="no"?>
<!-- Created with Inkscape (http://www.inkscape.org/) -->

<svg
   xmlns:dc="http://purl.org/dc/elements/1.1/"
   xmlns:cc="http://creativecommons.org/ns#"
   xmlns:rdf="http://www.w3.org/1999/02/22-rdf-syntax-ns#"
   xmlns:svg="http://www.w3.org/2000/svg"
   xmlns="http://www.w3.org/2000/svg"
   xmlns:sodipodi="http://sodipodi.sourceforge.net/DTD/sodipodi-0.dtd"
   xmlns:inkscape="http://www.inkscape.org/namespaces/inkscape"
   width="119.01397mm"
   height="93.007782mm"
   viewBox="0 0 421.70304 329.55513"
   id="svg2"
   version="1.1"
   inkscape:version="0.91 r13725"
   sodipodi:docname="fortune-cookie-glitch.svg">
  <defs
     id="defs4">
    <radialGradient
       r="12.212"
       gradientTransform="matrix(0.8,0,0,0.7992,0.0050706,-0.952)"
       cx="14.5"
       cy="9.7002001"
       gradientUnits="userSpaceOnUse"
       id="radialGradient26">
      <stop
         offset="0"
         style="stop-color:#bea154"
         id="stop28" />
      <stop
         offset=".64310"
         style="stop-color:#ecc868"
         id="stop30" />
      <stop
         offset="1"
         style="stop-color:#bea154"
         id="stop32" />
    </radialGradient>
  </defs>
  <sodipodi:namedview
     id="base"
     pagecolor="#ffffff"
     bordercolor="#666666"
     borderopacity="1.0"
     inkscape:pageopacity="0.0"
     inkscape:pageshadow="2"
     inkscape:zoom="0.35"
     inkscape:cx="-238.4342"
     inkscape:cy="-162.36528"
     inkscape:document-units="px"
     inkscape:current-layer="layer1"
     showgrid="false"
     inkscape:window-width="1920"
     inkscape:window-height="1029"
     inkscape:window-x="0"
     inkscape:window-y="0"
     inkscape:window-maximized="1"
     fit-margin-top="0"
     fit-margin-left="0"
     fit-margin-right="0"
     fit-margin-bottom="0" />
  <metadata
     id="metadata7">
    <rdf:RDF>
      <cc:Work
         rdf:about="">
        <dc:format>image/svg+xml</dc:format>
        <dc:type
           rdf:resource="http://purl.org/dc/dcmitype/StillImage" />
        <dc:title></dc:title>
      </cc:Work>
    </rdf:RDF>
  </metadata>
  <g
     inkscape:label="Layer 1"
     inkscape:groupmode="layer"
     id="layer1"
     transform="translate(-12.005629,-40.44178)">
    <g
       transform="matrix(24.288254,0,0,-22.725969,11.991711,370.01965)"
       id="g10">
      <g
         id="g12">
        <path
           inkscape:connector-curvature="0"
           d="m 15.684,0.04 c -0.051,0.055 -0.161,0.145 -0.321,0.282 -0.16,0.132 -0.25,0.238 -0.277,0.316 -0.082,0.215 -0.027,0.535 0.16,0.961 0.133,0.426 0.223,0.68 0.277,0.762 C 15.496,2.333 15.43,2.294 15.324,2.24 14.844,1.947 14.496,1.759 14.285,1.681 c -0.371,-0.133 -0.707,-0.148 -1,-0.043 -0.105,0.055 -0.172,0.16 -0.199,0.32 -0.027,0.11 -0.027,0.215 0,0.321 0.051,0.214 0.254,0.359 0.598,0.441 0.402,0.106 0.789,0.254 1.16,0.438 0.109,0.054 0.16,0.148 0.16,0.281 0.027,0.133 0.082,0.226 0.16,0.281 l 0.563,0.16 c 0.476,-0.054 1.023,-0.054 1.636,0 C 17.07,2.974 16.711,2.118 16.285,1.322 16.02,0.814 15.926,0.439 16.004,0.201 c 0.027,-0.106 0.082,-0.176 0.16,-0.2 l -0.48,0.039 z m -1.36,4.121 c 0.028,-0.027 0.067,-0.039 0.121,-0.043 l -0.199,0 0.078,0.043 z"
           style="fill:#ddd5c2;fill-rule:evenodd"
           id="path14" />
        <g
           id="g16">
          <g
             id="g18">
            <g
               id="g24">
              <path
                 inkscape:connector-curvature="0"
                 d="M 6.125,11.279 6.566,11.118 6.684,11.04 C 7.352,10.665 8.59,9.958 10.406,8.919 l 0.16,-0.121 1.36,-1.117 C 12.059,7.576 12.59,7.185 13.523,6.521 14.324,5.908 14.871,5.466 15.164,5.201 14.898,5.173 14.578,5.079 14.203,4.919 13.914,4.732 13.457,4.505 12.844,4.24 12.551,4.134 12.258,4.052 11.965,3.997 11.777,3.919 11.645,3.865 11.566,3.841 11.43,3.865 11.34,3.865 11.285,3.841 L 11.164,3.72 C 10.766,3.72 10.496,3.693 10.363,3.638 10.258,3.533 10.18,3.482 10.125,3.482 10.098,3.454 9.977,3.439 9.766,3.439 c -0.934,0 -1.547,0.027 -1.84,0.082 l -0.602,0 C 7.113,3.548 6.926,3.587 6.766,3.638 6.684,3.693 6.457,3.759 6.086,3.841 5.82,3.919 5.617,4.013 5.484,4.118 5.406,4.173 5.324,4.306 5.246,4.521 5.191,4.708 5.125,4.826 5.047,4.88 4.938,4.931 4.777,4.947 4.566,4.919 4.352,4.919 4.191,4.935 4.086,4.958 3.926,5.04 3.844,5.161 3.844,5.322 c 0,0.183 -0.012,0.332 -0.039,0.437 -0.266,0 -0.442,0.082 -0.52,0.242 0.027,0.184 0.027,0.321 0,0.399 C 3.23,6.509 3.086,6.576 2.844,6.599 2.551,6.626 2.363,6.693 2.285,6.798 2.23,6.88 2.137,7.04 2.004,7.279 1.926,7.466 1.82,7.615 1.684,7.72 1.48,7.872 1.289,8.025 1.105,8.181 1.07,8.279 1.039,8.38 1.004,8.482 c -0.293,0.933 -0.184,1.797 0.32,2.597 0.082,0.133 0.188,0.282 0.321,0.442 0.242,0.265 0.558,0.558 0.96,0.879 0.215,0.054 0.387,0.133 0.52,0.242 0.133,0.051 0.293,0.105 0.48,0.156 l 0.52,0.121 c 0.238,0.055 0.574,0.215 1,0.481 0.078,0.054 0.199,0.093 0.359,0.121 0.133,0.027 0.243,0.051 0.321,0.078 0.054,0.055 0.121,0.133 0.199,0.242 0.082,0.106 0.187,0.16 0.32,0.16 0.188,0.028 0.453,0.028 0.801,0 0.105,0.028 0.238,0.067 0.398,0.117 0.297,0.028 0.735,0.016 1.321,-0.039 L 9.766,14.04 c 0.371,0 0.679,-0.039 0.918,-0.121 l 0.8,-0.277 c 0.055,0 0.266,-0.082 0.641,-0.242 0.266,-0.133 0.48,-0.188 0.641,-0.16 0.105,0.027 0.16,0.066 0.16,0.121 -0.188,0.105 -0.403,0.199 -0.641,0.281 0.559,-0.137 1.184,-0.496 1.879,-1.082 0.469,-0.383 0.75,-0.688 0.84,-0.918 -0.051,-0.188 -0.145,-0.281 -0.277,-0.281 -0.11,0 -0.27,0.093 -0.481,0.281 -0.242,0.184 -0.574,0.383 -1,0.598 l -0.601,0.199 0.32,-0.238 c 0.238,-0.215 0.375,-0.415 0.398,-0.602 0.055,-0.266 -0.144,-0.586 -0.597,-0.957 -0.508,-0.402 -1.067,-0.602 -1.68,-0.602 -0.617,0 -1.27,0.161 -1.961,0.481 -0.613,0.265 -1.16,0.597 -1.641,1 C 7.219,11.759 6.926,11.88 6.605,11.88 6.07,12.146 5.59,12.228 5.164,12.118 5.004,12.068 4.738,11.908 4.363,11.642 4.23,11.56 4.352,11.505 4.727,11.482 5.363,11.427 5.832,11.361 6.125,11.279 Z m 7.238,-1.118 c 0.133,0.051 0.254,0.106 0.364,0.161 l -0.063,-0.063 c -0.102,-0.043 -0.203,-0.074 -0.301,-0.098 z m -2.519,3.079 c 0.293,0.132 0.293,0.242 0,0.32 l -0.399,-0.199 c -0.054,-0.243 0.078,-0.282 0.399,-0.121 z M 8.246,12.841 7.926,12.919 7.805,12.72 c -0.028,-0.078 0,-0.148 0.082,-0.199 0.051,-0.055 0.199,-0.082 0.437,-0.082 0.028,0.215 0,0.347 -0.078,0.402 z m 1.039,0.559 -0.558,0 C 8.699,13.212 8.926,13.118 9.406,13.118 9.43,13.279 9.391,13.372 9.285,13.4 Z M 7.484,13.919 7.203,13.642 c 0.055,-0.082 0.27,-0.109 0.641,-0.082 0,0.16 -0.012,0.254 -0.039,0.281 -0.055,0.051 -0.16,0.078 -0.321,0.078 z M 6.246,13.118 6.047,12.919 c -0.16,0 -0.242,-0.054 -0.242,-0.16 -0.028,-0.16 0.121,-0.277 0.441,-0.359 0.293,-0.028 0.453,0.082 0.481,0.32 0.05,0.293 -0.11,0.426 -0.481,0.398 z M 4.887,10.599 C 4.777,10.388 4.793,10.228 4.926,10.118 5.059,10.04 5.23,10.001 5.445,10.001 c 0.078,0 0.266,-0.015 0.559,-0.043 0.242,-0.023 0.402,0 0.48,0.082 0.028,0.028 0.067,0.094 0.121,0.2 0.028,0.105 0.04,0.175 0.04,0.199 -0.028,0.054 -0.079,0.121 -0.161,0.203 -0.078,0.051 -0.121,0.105 -0.121,0.156 l -0.398,0.203 c -0.32,0 -0.52,-0.015 -0.602,-0.043 C 5.125,10.908 4.965,10.786 4.887,10.599 Z M 2.586,5.822 C 2.641,5.743 2.699,5.673 2.766,5.599 2.699,5.665 2.637,5.732 2.586,5.798 l 0,0.024 z M 3.363,12.04 C 3.152,11.935 2.98,11.786 2.844,11.599 c -0.293,-0.371 -0.293,-0.707 0,-1 l 0.64,-0.758 c -0.105,0.16 -0.199,0.371 -0.281,0.641 -0.156,0.531 -0.105,1.051 0.16,1.558 z M 3.164,9.4 C 3.004,9.24 3.059,9.118 3.324,9.04 3.566,8.986 3.672,9.107 3.645,9.4 l -0.481,0 z M 3.086,8.439 2.766,8.4 C 2.5,8.454 2.363,8.279 2.363,7.88 2.34,7.482 2.539,7.333 2.965,7.439 3.152,7.493 3.258,7.654 3.285,7.919 3.312,8.161 3.246,8.333 3.086,8.439 Z m 3.078,0 C 6.137,8.279 6.23,8.201 6.445,8.201 6.738,8.146 6.871,8.322 6.844,8.72 L 6.445,8.798 C 6.258,8.72 6.164,8.599 6.164,8.439 Z M 4.887,7.642 C 4.672,7.505 4.551,7.427 4.523,7.4 4.391,7.267 4.312,7.118 4.285,6.958 4.258,6.642 4.391,6.427 4.684,6.322 4.898,6.24 5.047,6.212 5.125,6.24 5.18,6.294 5.23,6.415 5.285,6.599 5.391,7.001 5.391,7.267 5.285,7.4 L 4.887,7.642 Z M 5.766,9.599 5.285,9.4 C 4.992,9.665 4.738,9.505 4.523,8.919 4.312,8.388 4.484,8.118 5.047,8.118 c 0.238,0 0.41,0.028 0.519,0.083 0.161,0.078 0.278,0.226 0.36,0.441 C 6.031,9.04 5.98,9.361 5.766,9.599 Z M 5.844,6.24 C 5.738,6.001 5.727,5.814 5.805,5.681 5.887,5.493 6.07,5.439 6.363,5.521 6.445,5.896 6.457,6.161 6.406,6.322 6.324,6.454 6.219,6.56 6.086,6.642 5.953,6.72 5.82,6.747 5.684,6.72 L 5.844,6.24 Z M 7.445,6.841 C 7.363,6.865 7.297,6.853 7.246,6.798 7.191,6.747 7.18,6.681 7.203,6.599 7.285,6.361 7.605,6.294 8.164,6.4 8.191,6.587 8.164,6.747 8.086,6.88 8.004,6.958 7.859,7.04 7.645,7.118 l -0.2,-0.277 z m 0,-1.64 C 7.363,5.173 7.312,5.146 7.285,5.118 L 7.246,4.798 C 7.191,4.693 7.203,4.626 7.285,4.599 7.336,4.576 7.43,4.56 7.566,4.56 l 0.2,0 0.078,0.16 C 7.898,4.986 7.832,5.146 7.645,5.201 l -0.2,0 z"
                 style="fill:url(#radialGradient26);fill-rule:evenodd"
                 id="path34" />
            </g>
          </g>
        </g>
        <path
           inkscape:connector-curvature="0"
           d="m 2.605,12.4 c 0.106,0.082 0.215,0.148 0.321,0.199 l 1.121,0.723 c 0.265,0.183 0.558,0.359 0.879,0.519 1.172,0.613 2.597,0.801 4.277,0.559 0.883,-0.16 1.91,-0.414 3.082,-0.758 0.242,-0.082 0.453,-0.176 0.641,-0.281 0,-0.055 -0.055,-0.094 -0.16,-0.121 -0.161,-0.028 -0.375,0.027 -0.641,0.16 -0.371,0.16 -0.586,0.242 -0.641,0.242 l -0.8,0.277 C 10.445,14.001 10.137,14.04 9.766,14.04 L 8.844,14.079 C 8.258,14.134 7.82,14.146 7.523,14.118 7.363,14.068 7.23,14.025 7.125,14.001 c -0.348,0.028 -0.613,0.028 -0.801,0 -0.133,0 -0.238,-0.054 -0.32,-0.16 C 5.926,13.732 5.859,13.654 5.805,13.599 5.727,13.576 5.617,13.548 5.484,13.521 5.324,13.493 5.203,13.454 5.125,13.4 4.699,13.134 4.363,12.974 4.125,12.919 L 3.605,12.798 C 3.418,12.747 3.258,12.693 3.125,12.642 2.992,12.533 2.82,12.454 2.605,12.4 Z"
           style="fill:#ecd16e;fill-rule:evenodd"
           id="path36" />
        <path
           inkscape:connector-curvature="0"
           d="m 13.664,10.259 0.063,0.063 c -0.11,-0.055 -0.231,-0.11 -0.364,-0.161 L 12.047,9.72 C 11.992,9.72 11.766,9.681 11.363,9.599 10.512,9.493 9.645,9.759 8.766,10.4 8.285,10.747 7.793,11.013 7.285,11.201 6.75,11.439 6.34,11.521 6.047,11.439 5.859,11.415 5.887,11.361 6.125,11.279 5.832,11.361 5.363,11.427 4.727,11.482 4.352,11.505 4.23,11.56 4.363,11.642 c 0.375,0.266 0.641,0.426 0.801,0.476 0.426,0.11 0.906,0.028 1.441,-0.238 0.321,0 0.614,-0.121 0.879,-0.359 0.481,-0.403 1.028,-0.735 1.641,-1 0.691,-0.32 1.348,-0.481 1.961,-0.481 0.609,0 1.172,0.2 1.68,0.602 0.453,0.371 0.652,0.691 0.597,0.957 -0.023,0.187 -0.16,0.387 -0.398,0.602 l -0.32,0.238 0.601,-0.199 c 0.426,-0.215 0.758,-0.414 1,-0.598 0.211,-0.188 0.371,-0.281 0.481,-0.281 0.132,0 0.226,0.093 0.277,0.281 0.027,-0.055 0.043,-0.109 0.043,-0.16 l 0,-0.043 c 0,-0.133 -0.067,-0.266 -0.203,-0.399 -0.024,-0.027 -0.051,-0.039 -0.078,-0.039 -0.082,-0.082 -0.414,-0.308 -1,-0.679 l -0.243,-0.161 c 0.047,0.043 0.094,0.079 0.141,0.098 z M 6.566,11.118 C 7.336,10.88 7.91,10.642 8.285,10.4 L 8.484,10.279 C 9.02,9.935 9.656,9.482 10.402,8.919 8.59,9.958 7.352,10.665 6.684,11.04 l -0.118,0.078 z"
           style="fill:#b3933e;fill-rule:evenodd"
           id="path38" />
        <path
           inkscape:connector-curvature="0"
           d="M 10.406,8.919 C 9.656,9.482 9.02,9.935 8.484,10.279 L 8.285,10.4 C 7.91,10.642 7.34,10.88 6.566,11.118 l -0.441,0.161 c -0.238,0.082 -0.266,0.136 -0.078,0.16 0.293,0.082 0.703,0 1.238,-0.238 0.508,-0.188 1,-0.454 1.481,-0.801 0.879,-0.641 1.746,-0.907 2.597,-0.801 0.403,0.082 0.629,0.121 0.684,0.121 l 1.316,0.441 c 0.098,0.024 0.199,0.055 0.301,0.098 -0.047,-0.019 -0.094,-0.055 -0.141,-0.098 l -0.117,-0.043 c -0.535,-0.371 -1.16,-0.703 -1.883,-1 l -0.957,-0.32 -0.16,0.121 z"
           style="fill:#8d7431;fill-rule:evenodd"
           id="path40" />
        <path
           inkscape:connector-curvature="0"
           d="m 9.285,13.4 c 0.106,-0.028 0.149,-0.121 0.121,-0.282 -0.48,0 -0.707,0.094 -0.679,0.282 l 0.558,0 z M 8.246,12.841 c 0.078,-0.055 0.106,-0.187 0.078,-0.402 -0.238,0 -0.386,0.027 -0.437,0.082 -0.082,0.055 -0.11,0.121 -0.082,0.199 l 0.121,0.199 0.32,-0.078 z m 2.598,0.399 c -0.317,-0.161 -0.453,-0.122 -0.399,0.121 l 0.399,0.199 c 0.293,-0.078 0.293,-0.188 0,-0.32 z M 4.887,10.599 c 0.078,0.187 0.238,0.309 0.476,0.359 0.082,0.028 0.282,0.043 0.602,0.043 l 0.398,-0.203 c 0,-0.051 0.043,-0.105 0.121,-0.156 0.082,-0.082 0.133,-0.149 0.161,-0.203 0,-0.024 -0.012,-0.094 -0.04,-0.199 C 6.551,10.134 6.512,10.068 6.484,10.04 6.406,9.958 6.246,9.935 6.004,9.958 5.711,9.986 5.523,10.001 5.445,10.001 c -0.215,0 -0.386,0.039 -0.519,0.117 -0.133,0.11 -0.149,0.27 -0.039,0.481 z m 1.359,2.519 C 6.617,13.146 6.777,13.013 6.727,12.72 6.699,12.482 6.539,12.372 6.246,12.4 c -0.32,0.082 -0.469,0.199 -0.441,0.359 0,0.106 0.082,0.16 0.242,0.16 l 0.199,0.199 z m 1.238,0.801 c 0.161,0 0.266,-0.027 0.321,-0.078 0.027,-0.027 0.039,-0.121 0.039,-0.281 -0.371,-0.027 -0.586,0 -0.641,0.082 l 0.281,0.277 z M 3.086,8.439 C 3.246,8.333 3.312,8.161 3.285,7.919 3.258,7.654 3.152,7.493 2.965,7.439 2.539,7.333 2.34,7.482 2.363,7.88 2.363,8.279 2.5,8.454 2.766,8.4 l 0.32,0.039 z M 3.164,9.4 3.645,9.4 C 3.672,9.107 3.566,8.986 3.324,9.04 3.059,9.118 3.004,9.24 3.164,9.4 Z m 4.281,-4.199 0.2,0 C 7.832,5.146 7.898,4.986 7.844,4.72 l -0.078,-0.16 -0.2,0 C 7.43,4.56 7.336,4.576 7.285,4.599 7.203,4.626 7.191,4.693 7.246,4.798 l 0.039,0.32 c 0.027,0.028 0.078,0.055 0.16,0.083 z m 0,1.64 0.2,0.277 C 7.859,7.04 8.004,6.958 8.086,6.88 8.164,6.747 8.191,6.587 8.164,6.4 7.605,6.294 7.285,6.361 7.203,6.599 7.18,6.681 7.191,6.747 7.246,6.798 7.297,6.853 7.363,6.865 7.445,6.841 Z M 5.844,6.24 5.684,6.72 C 5.82,6.747 5.953,6.72 6.086,6.642 6.219,6.56 6.324,6.454 6.406,6.322 6.457,6.161 6.445,5.892 6.363,5.521 6.07,5.439 5.887,5.493 5.805,5.681 5.727,5.814 5.738,6.001 5.844,6.24 Z M 5.766,9.599 C 5.98,9.361 6.031,9.04 5.926,8.642 5.844,8.427 5.727,8.279 5.566,8.201 5.457,8.146 5.285,8.118 5.047,8.118 4.484,8.118 4.312,8.388 4.523,8.919 4.738,9.505 4.992,9.665 5.285,9.4 L 5.766,9.599 Z M 4.887,7.642 5.285,7.4 C 5.391,7.267 5.391,7.001 5.285,6.599 5.23,6.415 5.18,6.294 5.125,6.24 5.047,6.212 4.898,6.24 4.684,6.322 4.391,6.427 4.258,6.642 4.285,6.962 4.312,7.122 4.391,7.267 4.523,7.4 4.551,7.427 4.672,7.505 4.887,7.642 Z m 1.277,0.797 c 0,0.16 0.094,0.281 0.281,0.359 L 6.844,8.72 C 6.871,8.322 6.738,8.146 6.445,8.201 6.23,8.201 6.137,8.279 6.164,8.439 Z"
           style="fill:#f5dc84;fill-rule:evenodd"
           id="path42" />
        <path
           inkscape:connector-curvature="0"
           d="m 15.566,4.681 c 0,-0.027 -0.015,-0.043 -0.043,-0.043 L 14.406,4.322 C 14.324,4.294 14.246,4.267 14.164,4.24 14.113,4.24 14.07,4.224 14.047,4.201 L 13.926,4.161 C 13.34,3.814 12.777,3.521 12.246,3.279 11.578,2.986 10.844,2.775 10.043,2.638 9.617,2.56 9.18,2.509 8.727,2.482 7.363,2.372 5.953,2.892 4.484,4.04 L 4.285,4.201 C 4.203,4.251 4.137,4.306 4.086,4.361 3.953,4.466 3.82,4.572 3.684,4.681 L 2.766,5.599 C 2.699,5.673 2.641,5.743 2.586,5.822 L 2.566,5.841 C 2.262,6.189 1.996,6.54 1.766,6.9 L 1.387,7.54 C 1.273,7.755 1.172,7.978 1.086,8.201 L 1.105,8.181 C 1.289,8.025 1.48,7.872 1.684,7.72 1.82,7.615 1.926,7.466 2.004,7.279 2.137,7.04 2.23,6.88 2.285,6.798 2.363,6.693 2.551,6.626 2.844,6.599 3.086,6.576 3.23,6.509 3.285,6.4 3.312,6.322 3.312,6.185 3.285,6.001 3.363,5.841 3.539,5.759 3.805,5.759 3.832,5.654 3.844,5.509 3.844,5.322 3.844,5.161 3.926,5.04 4.086,4.958 4.191,4.935 4.352,4.919 4.566,4.919 4.777,4.947 4.938,4.935 5.047,4.88 5.125,4.826 5.191,4.708 5.246,4.521 5.324,4.306 5.406,4.173 5.484,4.118 5.617,4.013 5.82,3.919 6.086,3.841 6.457,3.759 6.684,3.693 6.766,3.642 6.926,3.587 7.113,3.548 7.324,3.521 l 0.602,0 c 0.293,-0.055 0.906,-0.082 1.84,-0.082 0.214,0 0.332,0.015 0.359,0.043 0.055,0 0.133,0.051 0.238,0.16 0.133,0.051 0.403,0.078 0.801,0.078 l 0.121,0.121 c 0.055,0.027 0.149,0.027 0.281,0 0.079,0.027 0.215,0.078 0.399,0.16 0.293,0.051 0.586,0.133 0.883,0.239 0.613,0.269 1.066,0.492 1.359,0.679 0.371,0.16 0.691,0.254 0.957,0.282 l 0.082,-0.079 c 0.211,-0.214 0.32,-0.363 0.32,-0.441 z"
           style="fill:#bb9b47;fill-rule:evenodd"
           id="path44" />
        <path
           inkscape:connector-curvature="0"
           d="M 1.105,8.181 1.086,8.201 C 1.172,7.978 1.273,7.755 1.387,7.54 L 1.766,6.9 c 0.23,-0.36 0.496,-0.715 0.8,-1.059 l 0.02,-0.019 0,-0.02 L 2.965,4.88 C 3.766,3.572 4.859,2.786 6.246,2.521 7.152,2.333 8.297,2.161 9.684,2.001 c 0.695,-0.082 1.07,-0.215 1.121,-0.402 0.027,-0.133 0.027,-0.266 0,-0.398 C 10.645,1.146 10.484,1.095 10.324,1.04 10.191,1.415 9.859,1.599 9.324,1.599 9.059,1.548 8.766,1.548 8.445,1.599 7.883,1.681 6.91,2.025 5.523,2.642 4.004,3.333 2.816,4.201 1.965,5.24 1.219,6.146 0.727,7.134 0.484,8.201 0.406,8.626 0.379,9.118 0.406,9.681 c 0,0.027 0.012,0.066 0.039,0.117 0.266,0.59 0.493,0.961 0.68,1.121 l 0.199,0.16 C 0.82,10.279 0.711,9.415 1.004,8.482 1.039,8.38 1.07,8.279 1.105,8.181 Z"
           style="fill:#907836;fill-rule:evenodd"
           id="path46" />
        <path
           inkscape:connector-curvature="0"
           d="M 3.363,12.04 C 3.098,11.533 3.047,11.013 3.203,10.482 3.285,10.212 3.379,10.001 3.484,9.841 l -0.64,0.758 c -0.293,0.293 -0.293,0.629 0,1 0.136,0.187 0.308,0.336 0.519,0.441 z"
           style="fill:#a28638;fill-rule:evenodd"
           id="path48" />
        <path
           inkscape:connector-curvature="0"
           d="m 10.047,2.642 c 0.664,-0.32 1.105,-0.629 1.316,-0.922 0.055,-0.078 0.133,-0.16 0.242,-0.238 -0.265,-0.11 -0.535,-0.199 -0.8,-0.281 0.027,0.132 0.027,0.265 0,0.398 C 10.754,1.786 10.379,1.919 9.684,2.001 8.297,2.161 7.152,2.333 6.246,2.521 4.859,2.786 3.766,3.572 2.965,4.88 L 2.586,5.798 C 2.637,5.732 2.699,5.665 2.766,5.599 L 3.684,4.681 C 3.82,4.572 3.953,4.466 4.086,4.361 4.137,4.306 4.203,4.251 4.285,4.201 L 4.484,4.04 C 5.953,2.892 7.363,2.372 8.727,2.482 c 0.453,0.027 0.89,0.078 1.32,0.16 z m 5.519,2.039 C 15.699,4.439 15.684,4.185 15.523,3.919 15.098,3.947 14.75,4.013 14.484,4.118 l -0.039,0 c -0.054,0.004 -0.093,0.016 -0.121,0.043 l -0.16,0.079 c 0.082,0.027 0.16,0.054 0.242,0.082 l 1.117,0.32 c 0.028,0 0.043,0.012 0.043,0.039 z"
           style="fill:#675627;fill-rule:evenodd"
           id="path50" />
        <path
           inkscape:connector-curvature="0"
           d="M 10.324,1.04 C 9.977,0.958 9.645,0.908 9.324,0.88 8.844,0.853 8.031,0.947 6.887,1.161 5.926,1.349 4.887,1.853 3.766,2.681 2.777,3.454 1.938,4.322 1.246,5.283 0.684,6.052 0.312,6.732 0.125,7.322 -0.008,7.72 -0.035,8.107 0.047,8.482 0.07,8.775 0.191,9.173 0.406,9.681 0.379,9.118 0.406,8.626 0.484,8.201 0.727,7.134 1.219,6.146 1.965,5.24 2.82,4.201 4.004,3.333 5.523,2.642 6.91,2.025 7.887,1.681 8.445,1.599 c 0.321,-0.051 0.614,-0.051 0.879,0 0.535,0 0.867,-0.188 1,-0.559 z"
           style="fill:#a3873e;fill-rule:evenodd"
           id="path52" />
        <path
           inkscape:connector-curvature="0"
           d="m 15.684,0.04 -0.68,0 C 14.828,0.052 14.641,0.079 14.445,0.122 L 14.246,1.001 C 14.191,0.896 14.07,0.736 13.887,0.521 13.805,0.415 13.738,0.361 13.684,0.361 l -0.399,0.16 c -0.09,0.035 -0.183,0.078 -0.281,0.121 l -0.039,0 -0.039,0.156 c 0.027,0.16 0.012,0.254 -0.043,0.281 -0.106,0.055 -0.199,0.11 -0.278,0.161 -0.375,0.242 -0.585,0.507 -0.64,0.8 -0.082,0.266 -0.055,0.442 0.078,0.52 0.109,0.082 0.309,0.16 0.602,0.238 0.16,0.11 0.398,0.297 0.718,0.563 0.106,0.05 0.309,0.215 0.602,0.48 l 0.281,0.281 0.238,0 C 14.75,4.013 15.098,3.947 15.523,3.919 15.586,3.9 15.652,3.888 15.727,3.88 L 15.164,3.72 C 15.086,3.669 15.031,3.576 15.004,3.439 15.004,3.306 14.953,3.212 14.844,3.161 14.473,2.974 14.086,2.826 13.684,2.72 13.34,2.638 13.137,2.493 13.086,2.279 c -0.027,-0.106 -0.027,-0.211 0,-0.321 0.027,-0.16 0.094,-0.265 0.199,-0.316 0.293,-0.109 0.629,-0.094 1,0.039 0.215,0.078 0.559,0.266 1.039,0.559 0.11,0.054 0.176,0.093 0.203,0.121 C 15.473,2.279 15.379,2.025 15.246,1.599 15.059,1.173 15.004,0.853 15.086,0.642 15.113,0.56 15.203,0.454 15.363,0.322 15.523,0.185 15.633,0.095 15.684,0.04 Z"
           style="fill:#c6c0af;fill-rule:evenodd"
           id="path54" />
        <path
           inkscape:connector-curvature="0"
           d="m 12.965,0.642 c -0.613,0.266 -1.067,0.547 -1.36,0.84 -0.109,0.078 -0.187,0.16 -0.242,0.238 -0.211,0.293 -0.652,0.602 -1.316,0.922 0.797,0.133 1.531,0.344 2.199,0.641 0.531,0.238 1.094,0.531 1.68,0.878 l 0.121,0.04 C 14.07,4.228 14.113,4.24 14.164,4.24 L 14.324,4.161 14.246,4.118 13.965,3.841 C 13.672,3.576 13.473,3.415 13.363,3.361 13.047,3.095 12.805,2.908 12.645,2.798 12.352,2.72 12.152,2.642 12.047,2.56 11.914,2.482 11.887,2.306 11.965,2.04 12.02,1.747 12.23,1.482 12.605,1.24 12.684,1.189 12.777,1.134 12.887,1.079 12.938,1.052 12.953,0.962 12.926,0.798 l 0.039,-0.156 z m 1.48,-0.524 c -0.242,0.059 -0.492,0.137 -0.761,0.243 0.054,0 0.121,0.05 0.203,0.16 0.183,0.211 0.304,0.371 0.359,0.48 l 0.199,-0.883 z"
           style="fill:#858174;fill-rule:evenodd"
           id="path56" />
      </g>
    </g>
  </g>
</svg>
