<?xml version="1.0" encoding="UTF-8" standalone="no"?>
<!-- Created with Inkscape (http://www.inkscape.org/) -->
<svg xmlns:dc="http://purl.org/dc/elements/1.1/" xmlns:cc="http://web.resource.org/cc/" xmlns:rdf="http://www.w3.org/1999/02/22-rdf-syntax-ns#" xmlns:svg="http://www.w3.org/2000/svg" xmlns="http://www.w3.org/2000/svg" xmlns:sodipodi="http://sodipodi.sourceforge.net/DTD/sodipodi-0.dtd" xmlns:inkscape="http://www.inkscape.org/namespaces/inkscape" width="111.66992" height="199.38048" id="svg2" sodipodi:version="0.32" inkscape:version="0.45.1" version="1.0" sodipodi:docbase="D:\Documents and Settings\Emmanuel\Mes documents\Mes images" sodipodi:docname="fée.svg" inkscape:output_extension="org.inkscape.output.svg.inkscape">
  <defs id="defs4"/>
  <sodipodi:namedview id="base" pagecolor="#ffffff" bordercolor="#666666" borderopacity="1.0" inkscape:pageopacity="0.0" inkscape:pageshadow="2" inkscape:zoom="0.97782041" inkscape:cx="213.61757" inkscape:cy="15.379786" inkscape:document-units="px" inkscape:current-layer="layer1" inkscape:window-width="1024" inkscape:window-height="722" inkscape:window-x="-4" inkscape:window-y="-4"/>
  <metadata id="metadata7">
    <rdf:RDF>
      <cc:Work rdf:about="">
        <dc:format>image/svg+xml</dc:format>
        <dc:type rdf:resource="http://purl.org/dc/dcmitype/StillImage"/>
        <dc:title>Fée</dc:title>
        <dc:date>06-10-2007</dc:date>
        <dc:creator>
          <cc:Agent>
            <dc:title>Elemiah</dc:title>
          </cc:Agent>
        </dc:creator>
        <dc:publisher>
          <cc:Agent>
            <dc:title>Inkscape</dc:title>
          </cc:Agent>
        </dc:publisher>
        <dc:subject>
          <rdf:Bag>
            <rdf:li>Fée</rdf:li>
            <rdf:li>fee</rdf:li>
            <rdf:li>fairy</rdf:li>
          </rdf:Bag>
        </dc:subject>
        <dc:description>Une fée - A fairy</dc:description>
        <cc:license rdf:resource="http://creativecommons.org/licenses/by-sa/2.5/"/>
      </cc:Work>
      <cc:license rdf:about="http://creativecommons.org/licenses/by-sa/2.5/">
        <cc:permits rdf:resource="http://web.resource.org/cc/Reproduction"/>
        <cc:permits rdf:resource="http://web.resource.org/cc/Distribution"/>
        <cc:requires rdf:resource="http://web.resource.org/cc/Notice"/>
        <cc:requires rdf:resource="http://web.resource.org/cc/Attribution"/>
        <cc:permits rdf:resource="http://web.resource.org/cc/DerivativeWorks"/>
        <cc:requires rdf:resource="http://web.resource.org/cc/ShareAlike"/>
      </cc:license>
    </rdf:RDF>
  </metadata>
  <g inkscape:label="Calque 1" inkscape:groupmode="layer" id="layer1" transform="translate(-156.507, -197.167)">
    <g id="g5206">
      <path sodipodi:nodetypes="csssssccccssssssssssssssssscsssssssssssssssssscsssssssssscssssssssssssssssccssc" style="fill: rgb(0, 0, 0); fill-opacity: 1;" d="M 201.72792,394.29691 C 199.06907,389.07499 198.61793,380.82344 200.77151,376.80353 C 201.95706,374.59057 202.87323,370.17787 203.26296,364.80353 C 203.60197,360.12853 204.79502,353.15496 205.91417,349.30671 C 208.30143,341.098 208.50256,336.07782 206.53212,333.88227 C 202.12265,328.96902 194.98008,313.6413 193.68071,306.30353 C 193.09634,303.00353 191.79264,299.37453 190.78361,298.23908 C 189.51152,296.80763 186.30899,297.18842 188.71368,293.68769 C 189.86837,291.34767 189.68467,289.20537 191.95025,285.04913 C 193.95136,282.19647 194.11066,281.55097 194.94899,278.92156 C 194.94899,278.37156 195.1084,277.34225 195.48152,276.73619 C 196.6553,274.82962 196.89968,270.56095 194.0314,266.0948 C 191.21309,261.70646 189.28149,260.57315 190.62923,256.58145 C 191.37768,254.36471 193.33744,253.01042 193.93673,251.82645 C 194.79361,250.13357 193.08354,247.50862 179.08599,240.81684 C 167.43932,235.24893 165.88333,234.76049 163.56025,230.17611 C 160.40887,223.95716 156.50705,211.55421 156.50705,209.0244 C 156.50705,206.98914 158.75058,202.73024 160.55163,202.73024 C 161.11177,202.73024 162.8345,200.01311 163.45393,198.77561 C 164.52724,196.63134 165.87931,196.52589 165.33842,199.0925 C 164.548,202.84315 163.58159,206.85688 165.99605,205.20025 C 171.64025,201.3276 168.99012,204.49617 167.32179,207.17749 C 166.39646,208.66467 164.66149,210.01989 163.69899,210.34578 C 160.54429,211.41392 162.19411,213.80578 169.553,225.19827 C 172.57727,229.88022 174.15688,229.81452 180.67357,232.09422 C 199.12685,238.54963 200.31273,240.26166 202.48412,239.42842 C 203.7983,238.92413 202.99283,236.58602 200.59461,233.68766 C 199.86104,232.80111 198.98895,232.24422 198.67526,231.75204 C 198.21861,231.15145 197.45413,230.93698 197.28328,230.19005 C 197.05695,229.20059 198.76451,228.81495 198.45665,227.19168 C 197.85647,224.02697 197.59349,224.75728 195.86378,221.57717 C 194.63772,219.32303 194.2556,217.13561 197.35181,214.36915 C 200.97306,211.13357 208.75893,209.27551 211.92764,210.97135 C 214.94146,212.5843 217.94085,218.73951 217.94525,222.49451 C 217.94731,224.24955 217.70451,225.52167 218.25451,225.86159 C 220.34089,227.15104 220.25963,232.45332 217.00959,233.89909 C 212.51791,235.89719 215.53076,236.2984 216.7066,236.75827 C 217.5316,237.08092 219.74601,239.45566 221.39601,241.34098 C 223.04601,243.2263 225.48719,247.28593 227.97832,250.13088 C 230.46946,252.97584 233.24961,255.5495 234.15644,257.54776 C 235.06327,259.54601 238.42943,263.83243 240.71083,265.68418 C 242.99224,267.53592 246.93455,270.31431 249.78019,272.70717 C 252.62582,275.10004 255.9514,278.12484 257.24753,278.73447 C 258.79876,279.46409 262.10138,282.66231 264.66941,286.25674 C 269.49866,293.01618 268.39306,295.32702 266.91296,293.28826 C 264.31326,289.7073 263.32784,289.64103 263.11653,293.26731 C 262.95045,296.11755 261.89145,299.14556 261.87603,294.78286 C 261.54494,298.02788 260.61594,293.44024 260.70986,291.85522 C 260.98103,287.34201 257.79942,285.29757 256.44924,286.46054 C 254.66656,287.99606 254.19138,290.72475 254.25451,285.2842 C 254.27737,283.29164 253.60098,282.14808 246.92763,278.79279 C 242.51588,276.57461 237.11588,273.14222 234.92763,271.16527 C 232.73938,269.18831 230.94899,267.95466 230.94899,268.42382 C 230.94899,268.89298 229.43124,267.03284 227.57622,264.29018 C 225.7212,261.54752 223.31221,258.50602 222.22291,257.53129 C 220.27385,255.78723 220.23218,255.86674 219.60278,262.53129 C 218.51156,274.08593 218.77352,276.87984 221.26032,280.20914 C 223.5837,283.31966 226.79958,285.95798 226.24159,288.36939 C 224.88003,289.70937 225.63744,295.82243 225.00817,303.02527 C 224.37015,310.32831 223.71808,316.97853 223.55914,317.80353 C 223.4002,318.62853 222.93802,321.10353 222.53208,323.30353 C 222.12613,325.50353 221.10753,329.32853 220.26852,331.80353 C 218.93152,335.74754 218.91021,337.66261 220.09602,347.30353 C 221.27041,356.85161 221.68174,358.26434 223.21237,358.00662 C 226.0787,357.524 226.32396,360.45293 223.94899,366.80353 C 222.72298,370.08185 221.98231,373.44798 222.30305,374.28382 C 223.16221,376.52276 221.60696,376.13281 219.12021,373.48579 C 217.06014,371.29295 216.78254,369.88474 216.03864,357.85353 C 215.88176,355.31623 214.30527,358.07147 212.92027,363.30353 C 212.1923,366.05353 210.50722,370.05138 209.17564,372.18764 C 207.13135,375.4673 206.93978,376.41781 207.94466,378.29543 C 208.93,380.13656 208.77468,381.22488 207.04186,384.62148 C 205.89078,386.87779 204.91736,389.75428 204.87871,391.01369 C 204.84005,392.2731 204.45824,394.20055 204.03024,395.29691 C 203.31185,397.13716 203.13498,397.06034 201.72792,394.29691 z M 209.79115,303.89823 C 209.79115,303.34823 209.47243,302.01435 208.88997,302.01435 C 208.30751,302.01435 208.10907,303.25353 208.44899,303.80353 C 209.24093,305.08491 209.79115,305.17961 209.79115,303.89823 z " id="path2194"/>
      <path sodipodi:nodetypes="cssccssssssccsssssssssccccssssssssssssssssssssssssssssscccssssssssssssssssc" style="fill: rgb(0, 0, 0); fill-opacity: 1;" d="M 240.87308,321.63902 C 240.31362,321.07694 239.23857,319.52097 238.8644,318.7518 C 238.49022,317.98264 237.59597,316.27447 236.87717,314.76571 C 235.87249,312.6569 235.55245,311.59466 235.23467,311.59466 C 235.72579,312.58728 235.59388,313.49598 236.17196,314.45844 C 237.28028,317.34125 236.99385,318.1787 236.81094,318.3245 C 236.2966,318.7345 234.80248,315.76954 233.88771,314.17649 C 232.87134,312.40652 231.82115,309.45452 230.06062,303.41888 C 229.83626,302.64971 229.59467,301.29425 229.52374,300.40675 C 229.45282,299.51925 229.25906,298.30901 229.09318,297.71735 C 228.5456,295.76426 228.09048,292.75506 227.95543,291.92866 C 227.84442,291.24939 227.80538,289.77678 227.66222,289.16778 C 227.56175,287.9162 226.95284,284.66413 226.71766,285.04329 C 226.75327,286.03663 227.26596,290.42855 227.4092,291.4257 C 227.90759,294.89508 227.65744,295.64618 225.93,292.65027 C 225.57077,292.02725 225.34522,291.2332 225.33834,290.93408 C 225.33145,290.63496 225.13761,290.22909 224.90759,290.03214 C 224.67757,289.83519 224.43014,289.30538 224.35775,288.85477 C 224.28535,288.40417 224.08682,287.7187 223.91657,287.3315 C 223.53342,286.4601 223.0919,283.71711 223.28459,283.40531 C 223.36263,283.27904 223.33513,283.05895 223.22347,282.91622 C 222.46768,281.9501 222.61257,271.61848 222.64666,269.73373 C 222.6606,268.96287 223.09509,268.07618 222.9948,267.2735 C 223.07589,265.92981 223.33963,265.05913 223.622,263.7145 C 223.78778,263.33446 224.04237,262.9741 224.05495,262.38243 C 223.9767,261.3837 224.39514,261.58884 224.03363,260.42071 C 223.66879,260.05588 223.60241,260.94872 223.60241,261.69076 C 223.60241,262.06073 223.41893,262.72632 223.19467,262.97061 C 222.70926,263.4994 221.94208,267.42209 221.94208,268.36452 C 221.94208,268.72759 221.79888,269.30155 221.62387,269.63998 C 221.44886,269.97842 221.20965,271.10033 221.0923,272.1331 C 220.97495,273.16588 220.82828,274.06153 220.76637,274.12344 C 220.70446,274.18535 219.96828,273.18881 219.72809,272.97144 C 219.07351,272.37906 219.28184,273.26494 219.30619,274.87045 C 219.31757,275.62101 219.13951,276.5798 219.04331,276.73546 C 218.788,277.14854 217.8212,275.51769 217.62287,274.34747 C 217.47239,273.45955 217.41923,274.37946 216.70198,274.31883 C 215.97136,274.25707 215.90421,273.19923 215.02962,271.35252 C 214.52847,270.29434 213.99003,269.00189 213.83308,268.4804 C 213.67614,267.95892 213.30532,267.20774 213.00904,266.81111 C 212.18812,265.71217 211.33517,263.71119 210.80665,261.13875 C 210.67614,260.50352 210.38726,261.69366 210.18215,262.22816 C 209.97183,262.77623 209.71659,261.50753 209.23725,260.33466 C 208.2279,257.86491 207.59011,254.98803 208.22539,251.95925 C 208.32439,251.48725 208.69647,251.01267 208.45867,250.67316 C 207.85858,249.8164 208.15403,244.1789 208.83867,243.42238 C 209.03157,243.20922 209.19244,242.84881 209.19616,242.62146 C 209.20709,241.9534 209.87969,241.05325 211.48529,240.94269 C 217.52902,240.52652 219.73634,238.62774 226.09896,234.33163 C 226.95883,233.75104 227.97108,233.08765 228.34841,232.85744 C 228.72573,232.62724 229.45986,232.11894 229.97979,231.7279 C 230.49973,231.33685 231.01253,231.01691 231.11936,231.01691 C 231.2262,231.01691 232.06895,230.58122 232.99215,230.04873 C 233.91535,229.51622 234.78195,229.08054 234.91792,229.08054 C 235.05389,229.08054 235.78331,228.78847 236.53885,228.4315 C 237.71083,227.87776 238.64132,227.59952 240.66575,227.48369 L 243.20161,227.45659 L 244.19419,228.38459 C 244.50554,228.72054 244.99651,229.64808 245.30514,230.62058 C 245.81097,232.21449 245.79409,233.34634 245.68966,235.72947 C 245.62687,237.16252 245.42443,239.05048 245.23979,239.92494 C 245.05516,240.79939 244.76049,242.19259 244.58496,243.02092 C 242.51274,252.80024 241.78104,257.17277 241.49955,261.03391 C 241.43485,261.92141 241.34812,263.34345 241.1642,264.52679 C 240.98027,265.71013 240.83552,266.82354 240.84253,267.00105 C 240.92671,269.13228 240.90279,275.55121 240.80125,278.07541 C 240.7209,280.07296 240.63681,281.56631 240.77038,281.81588 C 240.89516,282.04905 241.00904,284.72985 241.04107,288.18814 C 241.07148,291.4715 241.1668,294.27189 241.25291,294.41122 C 241.33902,294.55054 241.38924,295.31641 241.36451,296.11315 C 241.33978,296.90989 241.1958,298.61725 241.3298,299.85975 C 241.60281,302.3911 242.05833,308.16244 242.54398,315.24313 C 242.72254,317.84647 243.12223,320.46575 243.19449,320.96867 C 243.31435,321.80289 243.75186,324.13907 243.32765,324.13907 C 243.05915,324.13907 241.46048,322.22919 240.87308,321.63902 z " id="path3229"/>
      <path sodipodi:nodetypes="cssccssssssccsssssssssccccssssssssssssssssssssssssssssscccssssssssssssssssc" style="fill: rgb(0, 0, 0); fill-opacity: 1;" d="M 223.76605,321.52657 C 223.44892,320.92288 222.83951,319.2517 222.62741,318.42557 C 222.4153,317.59946 221.90839,315.76481 221.50093,314.14434 C 220.93142,311.87938 220.75,310.73849 220.56986,310.73849 C 220.84826,311.80461 220.77348,312.78059 221.10117,313.81431 C 221.72944,316.91058 221.56707,317.81004 221.46339,317.96663 C 221.17183,318.40699 220.32487,315.22249 219.80632,313.51149 C 219.23019,311.61046 218.63487,308.43988 217.6369,301.95734 C 217.50972,301.13122 217.37277,299.67539 217.33256,298.72218 C 217.29236,297.76896 217.18253,296.46911 217.0885,295.83364 C 216.7781,293.73594 216.52011,290.50392 216.44355,289.61633 C 216.38062,288.88677 216.35849,287.30512 216.27734,286.65103 C 216.22039,285.30677 215.87522,281.81391 215.74191,282.22114 C 215.7621,283.28803 216.05272,288.00515 216.13392,289.07613 C 216.41643,292.8024 216.27463,293.60911 215.29542,290.39138 C 215.09178,289.72222 214.96393,288.86938 214.96003,288.54811 C 214.95612,288.22684 214.84624,287.79092 214.71585,287.57939 C 214.58546,287.36785 214.44521,286.79882 214.40417,286.31484 C 214.36313,285.83088 214.25059,285.09465 214.15408,284.67878 C 213.93689,283.74286 213.68661,280.79677 213.79584,280.46188 C 213.84008,280.32626 213.82449,280.08987 213.76119,279.93658 C 213.33277,278.89892 213.4149,267.8023 213.43422,265.778 C 213.44212,264.95006 213.68842,263.99772 213.63157,263.1356 C 213.67754,261.69242 213.82704,260.75727 213.9871,259.31308 C 214.08108,258.9049 214.22539,258.51786 214.23253,257.88238 C 214.18817,256.8097 214.42537,257.03003 214.22044,255.7754 C 214.01363,255.38356 213.976,256.34251 213.976,257.13949 C 213.976,257.53686 213.87199,258.25173 213.74487,258.51411 C 213.46971,259.08205 213.03482,263.29519 213.03482,264.30741 C 213.03482,264.69736 212.95365,265.31382 212.85444,265.67731 C 212.75524,266.04081 212.61964,267.24579 212.55312,268.35503 C 212.4866,269.46428 212.40346,270.42625 212.36836,270.49274 C 212.33327,270.55923 211.91596,269.48891 211.7798,269.25544 C 211.40875,268.6192 211.52684,269.57067 211.54064,271.29506 C 211.54709,272.1012 211.44616,273.13098 211.39163,273.29817 C 211.2469,273.74183 210.69886,271.99023 210.58644,270.73336 C 210.50114,269.77969 210.471,270.76772 210.06442,270.7026 C 209.65026,270.63627 209.6122,269.5001 209.11643,267.51665 C 208.83234,266.38012 208.52712,264.99197 208.43816,264.43187 C 208.34919,263.87177 208.13899,263.06497 207.97104,262.63897 C 207.50569,261.45866 207.02219,259.30952 206.72259,256.54661 C 206.64861,255.86434 206.48486,257.14261 206.36859,257.71668 C 206.24937,258.30534 206.10468,256.9427 205.83296,255.68298 C 205.2608,253.03036 204.89927,249.94046 205.25938,246.68742 C 205.3155,246.18047 205.52642,245.67075 205.39162,245.3061 C 205.05145,244.3859 205.21893,238.33098 205.60702,237.51844 C 205.71637,237.2895 205.80756,236.9024 205.80967,236.65822 C 205.81587,235.94069 206.19714,234.97389 207.10729,234.85515 C 210.53324,234.40816 211.78448,232.36879 215.39119,227.75458 C 215.87862,227.131 216.45242,226.41849 216.66632,226.17123 C 216.8802,225.92399 217.29635,225.37805 217.59108,224.95806 C 217.88581,224.53805 218.1765,224.19442 218.23706,224.19442 C 218.29762,224.19442 218.77534,223.72647 219.29867,223.15455 C 219.82199,222.58261 220.31323,222.11467 220.39031,222.11467 C 220.46739,222.11467 220.88086,221.80098 221.30915,221.41758 C 221.9735,220.82284 222.50096,220.52399 223.64852,220.39959 L 225.086,220.37048 L 225.64866,221.36719 C 225.82515,221.72802 226.10346,222.72424 226.27841,223.76875 C 226.56514,225.48067 226.55558,226.69633 226.49638,229.25592 C 226.46079,230.79508 226.34603,232.82283 226.24137,233.76204 C 226.13671,234.70124 225.96967,236.1976 225.87017,237.08726 C 224.69551,247.59068 224.28074,252.28697 224.12117,256.43401 C 224.0845,257.38722 224.03533,258.91455 223.93108,260.18551 C 223.82681,261.45647 223.74476,262.65233 223.74873,262.84298 C 223.79645,265.13201 223.78289,272.02623 223.72533,274.73733 C 223.67979,276.88279 223.63212,278.48671 223.70784,278.75476 C 223.77857,279.0052 223.84312,281.88449 223.86128,285.59885 C 223.87852,289.12532 223.93255,292.13307 223.98136,292.28271 C 224.03017,292.43235 224.05864,293.25493 224.04462,294.11066 C 224.03061,294.9664 223.94899,296.80018 224.02495,298.13468 C 224.17971,300.85346 224.43792,307.05213 224.71322,314.65711 C 224.81444,317.45321 225.04101,320.26643 225.08197,320.80659 C 225.14991,321.70258 225.39792,324.21174 225.15745,324.21174 C 225.00525,324.21174 224.09903,322.16044 223.76605,321.52657 z " id="path4227"/>
    </g>
  </g>
</svg>
