<?xml version="1.0" encoding="UTF-8" standalone="yes"?>
<!DOCTYPE svg PUBLIC "-//W3C//DTD SVG 1.0//EN" "http://www.w3.org/TR/2001/REC-SVG-20010904/DTD/svg10.dtd">
<svg height="300" width="300" xmlns="http://www.w3.org/2000/svg" xmlns:svg="http://www.w3.org/2000/svg" xmlns:xlink="http://www.w3.org/1999/xlink">
	<svg:rect height="300" id="rect_0" style="fill-opacity: 0; stroke: black; stroke-width: 1" transform="translate(150,150) rotate(0) scale(1,1)" width="300" x="-150" y="-150" />
	<svg:rect height="300" id="rect_1" style="fill-opacity: 0; stroke: black; stroke-width: 1" transform="translate(150,150) rotate(6.34019174590991) scale(0.905538513813742,0.905538513813742)" width="300" x="-150" y="-150" />
	<svg:rect height="300" id="rect_2" style="fill-opacity: 0; stroke: black; stroke-width: 1" transform="translate(150,150) rotate(12.6803834918198) scale(0.82,0.82)" width="300" x="-150" y="-150" />
	<svg:rect height="300" id="rect_3" style="fill-opacity: 0; stroke: black; stroke-width: 1" transform="translate(150,150) rotate(19.0205752377297) scale(0.742541581327268,0.742541581327268)" width="300" x="-150" y="-150" />
	<svg:rect height="300" id="rect_4" style="fill-opacity: 0; stroke: black; stroke-width: 1" transform="translate(150,150) rotate(25.3607669836396) scale(0.6724,0.6724)" width="300" x="-150" y="-150" />
	<svg:rect height="300" id="rect_5" style="fill-opacity: 0; stroke: black; stroke-width: 1" transform="translate(150,150) rotate(31.7009587295495) scale(0.60888409668836,0.60888409668836)" width="300" x="-150" y="-150" />
	<svg:rect height="300" id="rect_6" style="fill-opacity: 0; stroke: black; stroke-width: 1" transform="translate(150,150) rotate(38.0411504754595) scale(0.551368,0.551368)" width="300" x="-150" y="-150" />
	<svg:rect height="300" id="rect_7" style="fill-opacity: 0; stroke: black; stroke-width: 1" transform="translate(150,150) rotate(44.3813422213694) scale(0.499284959284455,0.499284959284455)" width="300" x="-150" y="-150" />
	<svg:rect height="300" id="rect_8" style="fill-opacity: 0; stroke: black; stroke-width: 1" transform="translate(150,150) rotate(50.7215339672793) scale(0.45212176,0.45212176)" width="300" x="-150" y="-150" />
	<svg:rect height="300" id="rect_9" style="fill-opacity: 0; stroke: black; stroke-width: 1" transform="translate(150,150) rotate(57.0617257131892) scale(0.409413666613253,0.409413666613253)" width="300" x="-150" y="-150" />
	<svg:rect height="300" id="rect_10" style="fill-opacity: 0; stroke: black; stroke-width: 1" transform="translate(150,150) rotate(63.4019174590991) scale(0.3707398432,0.3707398432)" width="300" x="-150" y="-150" />
	<svg:rect height="300" id="rect_11" style="fill-opacity: 0; stroke: black; stroke-width: 1" transform="translate(150,150) rotate(69.742109205009) scale(0.335719206622868,0.335719206622868)" width="300" x="-150" y="-150" />
	<svg:rect height="300" id="rect_12" style="fill-opacity: 0; stroke: black; stroke-width: 1" transform="translate(150,150) rotate(76.0823009509189) scale(0.304006671424,0.304006671424)" width="300" x="-150" y="-150" />
	<svg:rect height="300" id="rect_13" style="fill-opacity: 0; stroke: black; stroke-width: 1" transform="translate(150,150) rotate(82.4224926968288) scale(0.275289749430752,0.275289749430752)" width="300" x="-150" y="-150" />
	<svg:rect height="300" id="rect_14" style="fill-opacity: 0; stroke: black; stroke-width: 1" transform="translate(150,150) rotate(88.7626844427387) scale(0.24928547056768,0.24928547056768)" width="300" x="-150" y="-150" />
	<svg:rect height="300" id="rect_15" style="fill-opacity: 0; stroke: black; stroke-width: 1" transform="translate(150,150) rotate(95.1028761886487) scale(0.225737594533216,0.225737594533216)" width="300" x="-150" y="-150" />
	<svg:rect height="300" id="rect_16" style="fill-opacity: 0; stroke: black; stroke-width: 1" transform="translate(150,150) rotate(101.443067934559) scale(0.204414085865498,0.204414085865498)" width="300" x="-150" y="-150" />
	<svg:rect height="300" id="rect_17" style="fill-opacity: 0; stroke: black; stroke-width: 1" transform="translate(150,150) rotate(107.783259680468) scale(0.185104827517238,0.185104827517238)" width="300" x="-150" y="-150" />
	<svg:rect height="300" id="rect_18" style="fill-opacity: 0; stroke: black; stroke-width: 1" transform="translate(150,150) rotate(114.123451426378) scale(0.167619550409708,0.167619550409708)" width="300" x="-150" y="-150" />
	<svg:rect height="300" id="rect_19" style="fill-opacity: 0; stroke: black; stroke-width: 1" transform="translate(150,150) rotate(120.463643172288) scale(0.151785958564135,0.151785958564135)" width="300" x="-150" y="-150" />
	<svg:rect height="300" id="rect_20" style="fill-opacity: 0; stroke: black; stroke-width: 1" transform="translate(150,150) rotate(126.803834918198) scale(0.137448031335961,0.137448031335961)" width="300" x="-150" y="-150" />
	<svg:rect height="300" id="rect_21" style="fill-opacity: 0; stroke: black; stroke-width: 1" transform="translate(150,150) rotate(133.144026664108) scale(0.124464486022591,0.124464486022591)" width="300" x="-150" y="-150" />
	<svg:rect height="300" id="rect_22" style="fill-opacity: 0; stroke: black; stroke-width: 1" transform="translate(150,150) rotate(139.484218410018) scale(0.112707385695488,0.112707385695488)" width="300" x="-150" y="-150" />
	<svg:rect height="300" id="rect_23" style="fill-opacity: 0; stroke: black; stroke-width: 1" transform="translate(150,150) rotate(145.824410155928) scale(0.102060878538524,0.102060878538524)" width="300" x="-150" y="-150" />
	<svg:rect height="300" id="rect_24" style="fill-opacity: 0; stroke: black; stroke-width: 1" transform="translate(150,150) rotate(152.164601901838) scale(0.0924200562703001,0.0924200562703001)" width="300" x="-150" y="-150" />
	<svg:rect height="300" id="rect_25" style="fill-opacity: 0; stroke: black; stroke-width: 1" transform="translate(150,150) rotate(158.504793647748) scale(0.0836899204015899,0.0836899204015899)" width="300" x="-150" y="-150" />
	<svg:rect height="300" id="rect_26" style="fill-opacity: 0; stroke: black; stroke-width: 1" transform="translate(150,150) rotate(164.844985393658) scale(0.0757844461416461,0.0757844461416461)" width="300" x="-150" y="-150" />
	<svg:rect height="300" id="rect_27" style="fill-opacity: 0; stroke: black; stroke-width: 1" transform="translate(150,150) rotate(171.185177139568) scale(0.0686257347293037,0.0686257347293037)" width="300" x="-150" y="-150" />
	<svg:rect height="300" id="rect_28" style="fill-opacity: 0; stroke: black; stroke-width: 1" transform="translate(150,150) rotate(177.525368885477) scale(0.0621432458361498,0.0621432458361498)" width="300" x="-150" y="-150" />
	<svg:rect height="300" id="rect_29" style="fill-opacity: 0; stroke: black; stroke-width: 1" transform="translate(150,150) rotate(183.865560631387) scale(0.0562731024780291,0.0562731024780291)" width="300" x="-150" y="-150" />
	<svg:rect height="300" id="rect_30" style="fill-opacity: 0; stroke: black; stroke-width: 1" transform="translate(150,150) rotate(190.205752377297) scale(0.0509574615856428,0.0509574615856428)" width="300" x="-150" y="-150" />
	<svg:rect height="300" id="rect_31" style="fill-opacity: 0; stroke: black; stroke-width: 1" transform="translate(150,150) rotate(196.545944123207) scale(0.0461439440319838,0.0461439440319838)" width="300" x="-150" y="-150" />
	<svg:rect height="300" id="rect_32" style="fill-opacity: 0; stroke: black; stroke-width: 1" transform="translate(150,150) rotate(202.886135869117) scale(0.0417851185002271,0.0417851185002271)" width="300" x="-150" y="-150" />
	<svg:rect height="300" id="rect_33" style="fill-opacity: 0; stroke: black; stroke-width: 1" transform="translate(150,150) rotate(209.226327615027) scale(0.0378380341062268,0.0378380341062268)" width="300" x="-150" y="-150" />
	<svg:rect height="300" id="rect_34" style="fill-opacity: 0; stroke: black; stroke-width: 1" transform="translate(150,150) rotate(215.566519360937) scale(0.0342637971701862,0.0342637971701862)" width="300" x="-150" y="-150" />
	<svg:rect height="300" id="rect_35" style="fill-opacity: 0; stroke: black; stroke-width: 1" transform="translate(150,150) rotate(221.906711106847) scale(0.0310271879671059,0.0310271879671059)" width="300" x="-150" y="-150" />
	<svg:rect height="300" id="rect_36" style="fill-opacity: 0; stroke: black; stroke-width: 1" transform="translate(150,150) rotate(228.246902852757) scale(0.0280963136795527,0.0280963136795527)" width="300" x="-150" y="-150" />
	<svg:rect height="300" id="rect_37" style="fill-opacity: 0; stroke: black; stroke-width: 1" transform="translate(150,150) rotate(234.587094598667) scale(0.0254422941330269,0.0254422941330269)" width="300" x="-150" y="-150" />
	<svg:rect height="300" id="rect_38" style="fill-opacity: 0; stroke: black; stroke-width: 1" transform="translate(150,150) rotate(240.927286344577) scale(0.0230389772172332,0.0230389772172332)" width="300" x="-150" y="-150" />
	<svg:rect height="300" id="rect_39" style="fill-opacity: 0; stroke: black; stroke-width: 1" transform="translate(150,150) rotate(247.267478090486) scale(0.020862681189082,0.020862681189082)" width="300" x="-150" y="-150" />
	<svg:rect height="300" id="rect_40" style="fill-opacity: 0; stroke: black; stroke-width: 1" transform="translate(150,150) rotate(253.607669836396) scale(0.0188919613181313,0.0188919613181313)" width="300" x="-150" y="-150" />
	<svg:rect height="300" id="rect_41" style="fill-opacity: 0; stroke: black; stroke-width: 1" transform="translate(150,150) rotate(259.947861582306) scale(0.0171073985750473,0.0171073985750473)" width="300" x="-150" y="-150" />
	<svg:rect height="300" id="rect_42" style="fill-opacity: 0; stroke: black; stroke-width: 1" transform="translate(150,150) rotate(266.288053328216) scale(0.0154914082808676,0.0154914082808676)" width="300" x="-150" y="-150" />
	<svg:rect height="300" id="rect_43" style="fill-opacity: 0; stroke: black; stroke-width: 1" transform="translate(150,150) rotate(272.628245074126) scale(0.0140280668315388,0.0140280668315388)" width="300" x="-150" y="-150" />
	<svg:rect height="300" id="rect_44" style="fill-opacity: 0; stroke: black; stroke-width: 1" transform="translate(150,150) rotate(278.968436820036) scale(0.0127029547903115,0.0127029547903115)" width="300" x="-150" y="-150" />
	<svg:rect height="300" id="rect_45" style="fill-opacity: 0; stroke: black; stroke-width: 1" transform="translate(150,150) rotate(285.308628565946) scale(0.0115030148018618,0.0115030148018618)" width="300" x="-150" y="-150" />
	<svg:rect height="300" id="rect_46" style="fill-opacity: 0; stroke: black; stroke-width: 1" transform="translate(150,150) rotate(291.648820311856) scale(0.0104164229280554,0.0104164229280554)" width="300" x="-150" y="-150" />
	<svg:rect height="300" id="rect_47" style="fill-opacity: 0; stroke: black; stroke-width: 1" transform="translate(150,150) rotate(297.989012057766) scale(0.00943247213752667,0.00943247213752667)" width="300" x="-150" y="-150" />
	<svg:rect height="300" id="rect_48" style="fill-opacity: 0; stroke: black; stroke-width: 1" transform="translate(150,150) rotate(304.329203803676) scale(0.00854146680100543,0.00854146680100543)" width="300" x="-150" y="-150" />
	<svg:rect height="300" id="rect_49" style="fill-opacity: 0; stroke: black; stroke-width: 1" transform="translate(150,150) rotate(310.669395549586) scale(0.00773462715277187,0.00773462715277187)" width="300" x="-150" y="-150" /><!--
	Generated using the Perl SVG Module V2.33
	by Ronan Oger
	Info: http://www.roasp.com/
 -->
</svg>
