<?xml version="1.0" encoding="UTF-8" standalone="no"?>
<svg
   xmlns:dc="http://purl.org/dc/elements/1.1/"
   xmlns:cc="http://creativecommons.org/ns#"
   xmlns:rdf="http://www.w3.org/1999/02/22-rdf-syntax-ns#"
   xmlns:svg="http://www.w3.org/2000/svg"
   xmlns="http://www.w3.org/2000/svg"
   xmlns:xlink="http://www.w3.org/1999/xlink"
   xmlns:sodipodi="http://sodipodi.sourceforge.net/DTD/sodipodi-0.dtd"
   xmlns:inkscape="http://www.inkscape.org/namespaces/inkscape"
   sodipodi:docname="shlomif-fortunes.svg"
   inkscape:version="1.0beta1 (a5d079675f, 2019-11-30)"
   sodipodi:version="0.32"
   id="svg2"
   height="1052.3622"
   width="744.09448"
   version="1.1">
  <defs
     id="defs3">
    <linearGradient
       id="linearGradient2070">
      <stop
         style="stop-color:#9c9c9c;stop-opacity:1.0000000;"
         offset="0.0000000"
         id="stop2072" />
      <stop
         style="stop-color:#fbfbfb;stop-opacity:1.0000000;"
         offset="1.0000000"
         id="stop2074" />
    </linearGradient>
    <linearGradient
       id="linearGradient2339">
      <stop
         style="stop-color:#36d21c;stop-opacity:1.0000000;"
         offset="0.0000000"
         id="stop2341" />
      <stop
         id="stop2347"
         offset="0.23364486"
         style="stop-color:#780ccb;stop-opacity:1.0000000;" />
      <stop
         style="stop-color:#818181;stop-opacity:1.0000000;"
         offset="1.0000000"
         id="stop2343" />
    </linearGradient>
    <linearGradient
       inkscape:collect="always"
       xlink:href="#linearGradient2339"
       id="linearGradient1298"
       gradientUnits="userSpaceOnUse"
       spreadMethod="pad"
       x1="204.72853"
       y1="147.79912"
       x2="204.72853"
       y2="183.43912"
       gradientTransform="translate(3.230992,42.00289)" />
    <linearGradient
       inkscape:collect="always"
       xlink:href="#linearGradient2070"
       id="linearGradient2078"
       gradientTransform="matrix(1.267546,0,0,0.600968,29.99065,27.71562)"
       x1="131.49345"
       y1="450.07196"
       x2="128.16599"
       y2="232.90671"
       gradientUnits="userSpaceOnUse" />
    <linearGradient
       inkscape:collect="always"
       xlink:href="#linearGradient2339"
       id="linearGradient2090"
       gradientUnits="userSpaceOnUse"
       gradientTransform="translate(3.230992,42.00289)"
       spreadMethod="pad"
       x1="204.72853"
       y1="147.79912"
       x2="204.72853"
       y2="183.43912" />
    <linearGradient
       inkscape:collect="always"
       xlink:href="#linearGradient2339"
       id="linearGradient1314"
       gradientUnits="userSpaceOnUse"
       gradientTransform="translate(-10.98537,261.4172)"
       spreadMethod="pad"
       x1="204.72853"
       y1="147.79912"
       x2="204.72853"
       y2="183.43912" />
    <linearGradient
       inkscape:collect="always"
       xlink:href="#linearGradient2070"
       id="linearGradient1317"
       gradientUnits="userSpaceOnUse"
       gradientTransform="matrix(1.267546,0,0,0.600968,22.23627,3.806289)"
       x1="131.49345"
       y1="450.07196"
       x2="128.16599"
       y2="232.90671" />
    <linearGradient
       inkscape:collect="always"
       xlink:href="#linearGradient2339"
       id="linearGradient3615"
       gradientUnits="userSpaceOnUse"
       gradientTransform="translate(-10.98537,261.4172)"
       spreadMethod="pad"
       x1="204.72853"
       y1="147.79912"
       x2="204.72853"
       y2="183.43912" />
    <linearGradient
       inkscape:collect="always"
       xlink:href="#linearGradient2339"
       id="linearGradient3621"
       gradientUnits="userSpaceOnUse"
       gradientTransform="matrix(1.120541,0,0,1.120541,-30.8348,249.7101)"
       spreadMethod="pad"
       x1="204.72853"
       y1="147.79912"
       x2="204.72853"
       y2="183.43912" />
    <linearGradient
       inkscape:collect="always"
       xlink:href="#linearGradient2339"
       id="linearGradient4394"
       gradientUnits="userSpaceOnUse"
       gradientTransform="matrix(1.120541,0,0,1.120541,-30.8348,249.7101)"
       spreadMethod="pad"
       x1="204.72853"
       y1="147.79912"
       x2="204.72853"
       y2="183.43912" />
    <linearGradient
       inkscape:collect="always"
       xlink:href="#linearGradient3811"
       id="linearGradient3809"
       x1="176.66534"
       y1="287.00787"
       x2="276.87796"
       y2="287.00787"
       gradientUnits="userSpaceOnUse" />
    <linearGradient
       inkscape:collect="always"
       xlink:href="#linearGradient3789"
       id="linearGradient3787"
       x1="176.66534"
       y1="283.46457"
       x2="276.87796"
       y2="283.46457"
       gradientUnits="userSpaceOnUse" />
    <linearGradient
       y2="183.43912"
       x2="204.72853"
       y1="147.79912"
       x1="204.72853"
       spreadMethod="pad"
       gradientTransform="matrix(1.120541,0,0,1.120541,-30.8348,249.7101)"
       gradientUnits="userSpaceOnUse"
       id="linearGradient4394-0"
       xlink:href="#linearGradient2339-1"
       inkscape:collect="always" />
    <linearGradient
       y2="232.90671"
       x2="128.16599"
       y1="450.07196"
       x1="131.49345"
       gradientTransform="matrix(1.267546,0,0,0.600968,22.23627,3.806289)"
       gradientUnits="userSpaceOnUse"
       id="linearGradient1317-2"
       xlink:href="#linearGradient2070-6"
       inkscape:collect="always" />
    <linearGradient
       id="linearGradient2339-1">
      <stop
         id="stop2341-8"
         offset="0.0000000"
         style="stop-color:#36d21c;stop-opacity:1.0000000;" />
      <stop
         style="stop-color:#780ccb;stop-opacity:1.0000000;"
         offset="0.23364486"
         id="stop2347-7" />
      <stop
         id="stop2343-9"
         offset="1.0000000"
         style="stop-color:#818181;stop-opacity:1.0000000;" />
    </linearGradient>
    <linearGradient
       id="linearGradient2070-6">
      <stop
         id="stop2072-2"
         offset="0.0000000"
         style="stop-color:#9c9c9c;stop-opacity:1.0000000;" />
      <stop
         id="stop2074-6"
         offset="1.0000000"
         style="stop-color:#fbfbfb;stop-opacity:1.0000000;" />
    </linearGradient>
    <linearGradient
       id="linearGradient3789">
      <stop
         id="stop3791"
         offset="0"
         style="stop-color:#cc9830;stop-opacity:1;" />
      <stop
         id="stop3793"
         offset="1"
         style="stop-color:#d07421;stop-opacity:1;" />
    </linearGradient>
    <linearGradient
       id="linearGradient3811">
      <stop
         style="stop-color:#a9791d;stop-opacity:1;"
         offset="0"
         id="stop3813" />
      <stop
         style="stop-color:#774213;stop-opacity:1;"
         offset="1"
         id="stop3815" />
    </linearGradient>
    <linearGradient
       id="linearGradient5065">
      <stop
         id="stop5067"
         style="stop-color:#ececec"
         offset="0" />
      <stop
         id="stop5069"
         style="stop-color:#a0a0a0"
         offset="1" />
    </linearGradient>
    <linearGradient
       id="linearGradient3868">
      <stop
         id="stop3870"
         style="stop-color:#c1c1c1"
         offset="0" />
      <stop
         id="stop3872"
         style="stop-color:#858585"
         offset="1" />
    </linearGradient>
  </defs>
  <sodipodi:namedview
     inkscape:document-rotation="0"
     fit-margin-bottom="0"
     fit-margin-right="0"
     fit-margin-top="0"
     fit-margin-left="0"
     inkscape:window-maximized="1"
     showgrid="true"
     id="base"
     pagecolor="#705faf"
     bordercolor="#666666"
     borderopacity="1.0"
     inkscape:pageopacity="1"
     inkscape:pageshadow="2"
     inkscape:zoom="0.7744482"
     inkscape:cx="372.04724"
     inkscape:cy="526.18109"
     inkscape:document-units="px"
     inkscape:current-layer="layer1"
     inkscape:window-width="1920"
     inkscape:window-height="1029"
     inkscape:window-x="0"
     inkscape:window-y="27">
    <inkscape:grid
       spacingy="1"
       spacingx="1"
       originy="-24.450924"
       originx="-170.16122"
       snapvisiblegridlinesonly="true"
       enabled="true"
       visible="true"
       empspacing="5"
       id="grid3885"
       type="xygrid" />
  </sodipodi:namedview>
  <metadata
     id="metadata4">
    <rdf:RDF>
      <cc:Work
         rdf:about="">
        <dc:format>image/svg+xml</dc:format>
        <dc:type
           rdf:resource="http://purl.org/dc/dcmitype/StillImage" />
      </cc:Work>
    </rdf:RDF>
  </metadata>
  <g
     transform="translate(-170.16122,24.450934)"
     inkscape:label="Layer 1"
     inkscape:groupmode="layer"
     id="layer1">
    <g
       transform="translate(-12.40599,136)"
       id="g3194">
      <g
         transform="translate(-2043.0066,2352.4957)"
         id="layer2-6">
        <g
           transform="translate(1.2226,0)"
           id="g8578">
          <rect
             x="2365.3999"
             y="-1838.7"
             width="462"
             height="353"
             style="color:#000000;fill:none"
             id="rect8481" />
          <g
             transform="translate(821.59,-389.04)"
             id="g8555">
            <path
               d="m 1950.2,-1352.6 c -18.732,3.7349 -39.795,12.001 -68.034,29.824 -42.783,27.002 -86.264,71.4 -116.25,64.921 -66.15,-14.289 -120.94,-14.177 -150.99,-7.3678 -18.954,4.2937 -47.431,19.216 -71.119,38.582 6.3911,20.928 18.314,42.309 33.029,59.294 19.979,-33.712 48.815,-61.051 143.66,-37.296 100.01,25.05 165.07,-54.516 176.52,-63.436 31.255,-24.348 49.341,-17.142 65.398,-11.337 l 43.394,-75.897 c 0,0 -34.155,-1.5626 -55.598,2.7129 z"
               id="path8557"
               inkscape:connector-curvature="0"
               style="fill:#f9f9f9" />
            <path
               d="m 1982.6,36.969 c -10.98,0.14072 -24.621,0.86775 -34.375,2.8125 -17.654,3.52 -37.704,11.286 -65.375,28.75 -20.758,13.101 -42.232,30.892 -62.656,44.875 -20.425,13.983 -40.052,25.319 -59.469,21.125 -65.26,-14.097 -119.54,-13.761 -147.59,-7.4062 -15.711,3.5591 -41.498,16.613 -63.469,33.594 5.2056,14.914 13.279,29.871 23.094,42.969 9.6429,-13.946 22.171,-26.76 41.5,-34 23.71,-8.8805 56.326,-9.4723 104.62,2.625 47.697,11.947 86.503,-0.9301 115.5,-18.094 14.499,-8.5818 26.446,-18.246 35.469,-26.344 9.0224,-8.0974 14.254,-14.06 18.75,-17.562 16.51,-12.862 30.586,-18.015 42.875,-18.625 9.2302,-0.4581 17.108,1.5783 23.812,3.8438 l 33.5,-58.47 c -2.7675,-0.03193 -2.6361,-0.13846 -6.125,-0.09375 z"
               transform="translate(0,-1384.5)"
               id="path8559"
               inkscape:connector-curvature="0"
               style="fill:#ffffff" />
          </g>
          <path
             d="m 2444.9,-1783.2 c -13.246,23.521 -20.824,50.661 -20.824,79.579 0,89.717 72.752,162.44 162.47,162.44 89.719,0 162.44,-72.722 162.44,-162.44 0,-28.918 -7.5783,-56.058 -20.824,-79.579 -37.37,10.224 -102.81,32.237 -141.62,94.546 -29.046,-55.275 -99.19,-87.395 -141.65,-94.546 z"
             style="color:#000000;fill:#fcb659"
             id="path8561"
             inkscape:connector-curvature="0" />
          <path
             d="m 2445.2,-1783.1 -0.6423,0.8657 c 0.866,-0.4017 112.48,108.13 118.93,121.08 7.1821,-10.984 14.59,-21.178 23.12,-27.44 -29.134,-54.89 -99.041,-87.289 -141.41,-94.503 z"
             id="path8563"
             inkscape:connector-curvature="0"
             style="fill:#f79937" />
          <path
             d="m 2728.2,-1783.2 -2.569,0.3351 c 7.6804,76.555 12.07,152.55 -53.307,216.02 45.774,-28.729 76.176,-79.66 76.176,-137.69 0,-28.544 -7.3712,-55.352 -20.301,-78.661 z"
             id="path8565"
             inkscape:connector-curvature="0"
             style="fill:#f79937" />
          <path
             d="m 2445.2,-1783.1 c 47.941,25.523 90.124,63.411 125.21,111.86 3.0682,-4.2076 6.2156,-8.1307 9.522,-11.505 l 0.055,-0.055 c -30.351,-49.351 -94.686,-84.27 -134.79,-100.3 z"
             id="path8567"
             inkscape:connector-curvature="0"
             style="fill:#f68914;fill-rule:evenodd" />
          <path
             d="m 2733.5,-1754.6 -1.7492,0.2282 c -2.6574,0.3466 3.2149,43.346 1.3395,63.574 -3.2321,34.862 -11.968,60.552 -11.968,60.552 -0.9766,2.8692 1.0604,6.944 3.615,2.7113 6.7279,-11.148 21.139,-46.314 21.139,-74.953 0,-19.434 -3.6575,-53.25 -12.376,-52.112 z"
             id="path8569"
             inkscape:connector-curvature="0"
             style="fill:#f68914" />
          <path
             d="m 2810.7,-1744.6 c -11.662,0.058 -27.171,0.6498 -38.898,2.9879 -10.717,2.1367 -22.201,5.7651 -35.352,11.812 v 61.349 c 20.826,-10.048 34.828,-4.5733 47.554,0.028 l 43.394,-75.897 c 0,0 -4.8167,-0.23 -11.951,-0.2792 -1.4863,-0.01 -3.081,-0.01 -4.747,0 z"
             style="color:#000000;fill:#f9f9f9"
             id="path8571"
             inkscape:connector-curvature="0" />
          <path
             d="m 2451.3,-1737.9 c -7.3041,16.822 -9.377,60.996 -3.3252,80.772 10.122,33.075 69.382,99.896 111.14,102.06 64.079,3.3287 119.79,-48.746 119.79,-112.91 0,-20.681 -6.1428,-52.382 -15.616,-69.204 -26.727,7.3121 -73.529,55.94 -101.28,100.5 -20.774,-39.532 -80.338,-96.112 -110.7,-101.23 z"
             style="color:#000000;fill:#fdc67d"
             id="path8574"
             inkscape:connector-curvature="0" />
          <path
             d="m 2803.6,-1735.4 c -10.98,0.1408 -24.621,0.8677 -34.375,2.8125 -9.8779,1.9694 -20.52,5.2916 -32.812,10.875 v 44.281 c 5.6798,-1.9921 11.028,-3.0002 16.062,-3.25 9.2302,-0.4582 17.108,1.5782 23.812,3.8437 l 33.438,-58.469 c -2.7675,-0.032 -2.6361,-0.1383 -6.125,-0.094 z"
             style="color:#000000;fill:#ffffff"
             id="path8576"
             inkscape:connector-curvature="0" />
        </g>
      </g>
    </g>
    <text
       id="text3182"
       y="136.36217"
       x="543.22266"
       style="font-style:normal;font-variant:normal;font-weight:normal;font-stretch:normal;line-height:0%;font-family:Edgewater;-inkscape-font-specification:Edgewater;text-align:center;letter-spacing:0px;word-spacing:0px;writing-mode:lr-tb;text-anchor:middle;fill:#ffffff;fill-opacity:1;stroke:none"
       xml:space="preserve"><tspan
         style="font-size:72px;line-height:1.25"
         y="136.36217"
         x="543.22266"
         id="tspan3184"
         sodipodi:role="line">Shlomi Fish’s</tspan><tspan
         style="font-size:72px;line-height:1.25"
         id="tspan3186"
         y="226.36217"
         x="543.22266"
         sodipodi:role="line">Quotes</tspan><tspan
         style="font-size:72px;line-height:1.25"
         id="tspan3188"
         y="316.36218"
         x="543.22266"
         sodipodi:role="line">( Fortune</tspan><tspan
         style="font-size:72px;line-height:1.25"
         id="tspan3192"
         y="406.36218"
         x="543.22266"
         sodipodi:role="line">Cookies )</tspan><tspan
         style="font-size:72px;line-height:1.25"
         id="tspan3190"
         y="496.36218"
         x="543.22266"
         sodipodi:role="line">Collection</tspan></text>
  </g>
  <g
     transform="translate(-170.16122,24.450934)"
     inkscape:groupmode="layer"
     id="layer2"
     inkscape:label="Text" />
</svg>
