<?xml version="1.0" encoding="UTF-8" standalone="no"?>
<!DOCTYPE svg PUBLIC "-//W3C//DTD SVG 1.0//EN" "http://www.w3.org/TR/2001/PR-SVG-20010719/DTD/svg10.dtd">
<svg width="26cm" height="16cm" viewBox="12 89 510 309" xmlns="http://www.w3.org/2000/svg" xmlns:xlink="http://www.w3.org/1999/xlink">
  <g>
    <rect style="fill: #ffffff" x="13.5" y="90.0002" width="507" height="307"/>
    <rect style="fill: none; fill-opacity:0; stroke-width: 2; stroke: #000000" x="13.5" y="90.0002" width="507" height="307"/>
  </g>
  <g>
    <g>
      <rect style="fill: #ffffff" x="199.418" y="132.5" width="152.502" height="222"/>
      <rect style="fill: none; fill-opacity:0; stroke-width: 2; stroke: #000000" x="199.418" y="132.5" width="152.502" height="222"/>
      <text font-size="24" style="fill: #000000;text-anchor:middle;font-family:sans-serif;font-style:normal;font-weight:normal" x="275.669" y="250.8">
        <tspan x="275.669" y="250.8">Unixdoc</tspan>
      </text>
    </g>
    <g>
      <line style="fill: none; fill-opacity:0; stroke-width: 2; stroke: #000000" x1="131.715" y1="158.5" x2="220.49" y2="159.401"/>
      <polygon style="fill: #000000" points="227.99,159.478 217.94,164.376 220.49,159.401 218.041,154.376 "/>
      <polygon style="fill: none; fill-opacity:0; stroke-width: 2; stroke: #000000" points="227.99,159.478 217.94,164.376 220.49,159.401 218.041,154.376 "/>
    </g>
    <g>
      <line style="fill: none; fill-opacity:0; stroke-width: 2; stroke: #000000" x1="146.918" y1="214.834" x2="223.183" y2="213.651"/>
      <polygon style="fill: #000000" points="230.682,213.535 220.761,218.689 223.183,213.651 220.606,208.69 "/>
      <polygon style="fill: none; fill-opacity:0; stroke-width: 2; stroke: #000000" points="230.682,213.535 220.761,218.689 223.183,213.651 220.606,208.69 "/>
    </g>
    <g>
      <line style="fill: none; fill-opacity:0; stroke-width: 2; stroke: #000000" x1="145.918" y1="271.166" x2="220.578" y2="270.89"/>
      <polygon style="fill: #000000" points="228.078,270.862 218.096,275.899 220.578,270.89 218.06,265.899 "/>
      <polygon style="fill: none; fill-opacity:0; stroke-width: 2; stroke: #000000" points="228.078,270.862 218.096,275.899 220.578,270.89 218.06,265.899 "/>
    </g>
    <g>
      <line style="fill: none; fill-opacity:0; stroke-width: 2; stroke: #000000" x1="128.215" y1="327.5" x2="220.498" y2="326.595"/>
      <polygon style="fill: #000000" points="227.998,326.522 218.048,331.62 220.498,326.595 217.95,321.62 "/>
      <polygon style="fill: none; fill-opacity:0; stroke-width: 2; stroke: #000000" points="227.998,326.522 218.048,331.62 220.498,326.595 217.95,321.62 "/>
    </g>
    <g>
      <g>
        <rect style="fill: #ffffff" x="55.0931" y="139.5" width="77.65" height="38"/>
        <rect style="fill: none; fill-opacity:0; stroke-width: 2; stroke: #000000" x="55.0931" y="139.5" width="77.65" height="38"/>
        <text font-size="12.8" style="fill: #000000;text-anchor:middle;font-family:sans-serif;font-style:normal;font-weight:normal" x="93.9181" y="162.4">
          <tspan x="93.9181" y="162.4">Perl POD</tspan>
        </text>
      </g>
      <g>
        <rect style="fill: #ffffff" x="40.918" y="195.834" width="106" height="38"/>
        <rect style="fill: none; fill-opacity:0; stroke-width: 2; stroke: #000000" x="40.918" y="195.834" width="106" height="38"/>
        <text font-size="12.8" style="fill: #000000;text-anchor:middle;font-family:sans-serif;font-style:normal;font-weight:normal" x="93.918" y="218.734">
          <tspan x="93.918" y="218.734">Man Pages</tspan>
        </text>
      </g>
      <g>
        <rect style="fill: #ffffff" x="41.918" y="252.166" width="104" height="38"/>
        <rect style="fill: none; fill-opacity:0; stroke-width: 2; stroke: #000000" x="41.918" y="252.166" width="104" height="38"/>
        <text font-size="12.8" style="fill: #000000;text-anchor:middle;font-family:sans-serif;font-style:normal;font-weight:normal" x="93.918" y="275.066">
          <tspan x="93.918" y="275.066">DocBook</tspan>
        </text>
      </g>
      <g>
        <rect style="fill: #ffffff" x="59.4181" y="308.5" width="69" height="38"/>
        <rect style="fill: none; fill-opacity:0; stroke-width: 2; stroke: #000000" x="59.4181" y="308.5" width="69" height="38"/>
        <text font-size="12.8" style="fill: #000000;text-anchor:middle;font-family:sans-serif;font-style:normal;font-weight:normal" x="93.9181" y="331.4">
          <tspan x="93.9181" y="331.4">Perldoc</tspan>
        </text>
      </g>
    </g>
    <g>
      <g>
        <rect style="fill: #ffffff" x="388.993" y="224" width="105.85" height="38"/>
        <rect style="fill: none; fill-opacity:0; stroke-width: 2; stroke: #000000" x="388.993" y="224" width="105.85" height="38"/>
        <text font-size="12.8" style="fill: #000000;text-anchor:middle;font-family:sans-serif;font-style:normal;font-weight:normal" x="441.918" y="246.9">
          <tspan x="441.918" y="246.9">Web Browser</tspan>
        </text>
      </g>
      <g>
        <rect style="fill: #ffffff" x="419.393" y="284.5" width="45.05" height="38"/>
        <rect style="fill: none; fill-opacity:0; stroke-width: 2; stroke: #000000" x="419.393" y="284.5" width="45.05" height="38"/>
        <text font-size="12.8" style="fill: #000000;text-anchor:middle;font-family:sans-serif;font-style:normal;font-weight:normal" x="441.918" y="307.4">
          <tspan x="441.918" y="307.4">GUI</tspan>
        </text>
      </g>
      <g>
        <rect style="fill: #ffffff" x="403.868" y="163.5" width="76.1" height="38"/>
        <rect style="fill: none; fill-opacity:0; stroke-width: 2; stroke: #000000" x="403.868" y="163.5" width="76.1" height="38"/>
        <text font-size="12.8" style="fill: #000000;text-anchor:middle;font-family:sans-serif;font-style:normal;font-weight:normal" x="441.918" y="186.4">
          <tspan x="441.918" y="186.4">Terminal</tspan>
        </text>
      </g>
    </g>
    <g>
      <line style="fill: none; fill-opacity:0; stroke-width: 2; stroke: #000000" x1="334.49" y1="182.492" x2="395.666" y2="182.499"/>
      <polygon style="fill: #000000" points="403.166,182.5 393.165,187.499 395.666,182.499 393.166,177.499 "/>
      <polygon style="fill: none; fill-opacity:0; stroke-width: 2; stroke: #000000" points="403.166,182.5 393.165,187.499 395.666,182.499 393.166,177.499 "/>
    </g>
    <g>
      <line style="fill: none; fill-opacity:0; stroke-width: 2; stroke: #000000" x1="336.49" y1="243.068" x2="381.018" y2="243.012"/>
      <polygon style="fill: #000000" points="388.518,243.003 378.524,248.015 381.018,243.012 378.512,238.015 "/>
      <polygon style="fill: none; fill-opacity:0; stroke-width: 2; stroke: #000000" points="388.518,243.003 378.524,248.015 381.018,243.012 378.512,238.015 "/>
    </g>
    <g>
      <line style="fill: none; fill-opacity:0; stroke-width: 2; stroke: #000000" x1="332.49" y1="303.5" x2="410.682" y2="303.5"/>
      <polygon style="fill: #000000" points="418.182,303.5 408.182,308.5 410.682,303.5 408.182,298.5 "/>
      <polygon style="fill: none; fill-opacity:0; stroke-width: 2; stroke: #000000" points="418.182,303.5 408.182,308.5 410.682,303.5 408.182,298.5 "/>
    </g>
  </g>
</svg>
