<svg xmlns:dc="http://purl.org/dc/elements/1.1/" xmlns:cc="http://creativecommons.org/ns#" xmlns:rdf="http://www.w3.org/1999/02/22-rdf-syntax-ns#" xmlns:svg="http://www.w3.org/2000/svg" xmlns="http://www.w3.org/2000/svg" xmlns:xlink="http://www.w3.org/1999/xlink" xmlns:sodipodi="http://sodipodi.sourceforge.net/DTD/sodipodi-0.dtd" xmlns:inkscape="http://www.inkscape.org/namespaces/inkscape" width="88.635mm" height="71.06mm" viewBox="0 0 88.635 71.06" id="svg8" sodipodi:docname="evilphish-svg--facing-left.svg" inkscape:version="0.92.4 (5da689c313, 2019-01-14)"><defs id="defs2"><linearGradient inkscape:collect="always" id="linearGradient937"><stop style="stop-color:#1f8438;stop-opacity:1" offset="0" id="stop933"/><stop style="stop-color:#88c33e;stop-opacity:1" offset="1" id="stop935"/></linearGradient><linearGradient inkscape:collect="always" id="linearGradient903"><stop style="stop-color:#88c33e;stop-opacity:1" offset="0" id="stop899"/><stop id="stop907" offset=".68623" style="stop-color:#bdee8f;stop-opacity:.93564355"/><stop style="stop-color:#89d4d6;stop-opacity:1" offset=".70049" id="stop925"/><stop style="stop-color:#fdfeff;stop-opacity:.01176471" offset="1" id="stop901"/></linearGradient><linearGradient inkscape:collect="always" id="linearGradient893"><stop style="stop-color:#157e37;stop-opacity:1" offset="0" id="stop889"/><stop style="stop-color:#88c33e;stop-opacity:.99504948" offset="1" id="stop891"/></linearGradient><linearGradient inkscape:collect="always" xlink:href="#linearGradient893" id="linearGradient895" x1="16.036" y1="78.073" x2="18.341" y2="77.071" gradientUnits="userSpaceOnUse"/><radialGradient inkscape:collect="always" xlink:href="#linearGradient903" id="radialGradient905" cx="20.045" cy="56.725" fx="20.045" fy="56.725" r="58.948" gradientTransform="matrix(0.77783624,0,0,0.48576938,4.4533208,29.169574)" gradientUnits="userSpaceOnUse"/><filter inkscape:collect="always" style="color-interpolation-filters:sRGB" id="filter921" x="-.087374" width="1.1747" y="-.14137" height="1.2827"><feGaussianBlur inkscape:collect="always" stdDeviation="4.2193" id="feGaussianBlur923"/></filter><linearGradient inkscape:collect="always" xlink:href="#linearGradient937" id="linearGradient939" x1="22.868" y1="39.598" x2="24.663" y2="41.488" gradientUnits="userSpaceOnUse"/><pattern patternUnits="userSpaceOnUse" width="21.119" height="10.56" patternTransform="matrix(0.26458333,0,0,0.26458333,-4.1908178,0)" id="pattern2471"><rect transform="rotate(90)" id="rect2469" height="21.119" width="10.57" y="-21.119" x="96988e-20" style="fill:#117c37;fill-opacity:1;stroke:none;stroke-width:10.55954075"/></pattern><filter style="color-interpolation-filters:sRGB" id="filter2522" inkscape:label="filter1"><feTurbulence id="feTurbulence2524" result="result2" baseFrequency=".151" numOctaves="5" seed="0"/><feFlood id="feFlood2528" flood-color="rgb(48,113,27)" result="result1"/><feComposite in2="result1" id="feComposite2530" in="result2" operator="in" result="result3"/><feComposite in2="result3" id="feComposite2532" in="SourceGraphic" operator="in"/></filter></defs><sodipodi:namedview id="base" pagecolor="#ffffff" bordercolor="#666666" borderopacity="1" inkscape:pageopacity="0" inkscape:pageshadow="2" inkscape:zoom="1.4" inkscape:cx="8.1505" inkscape:cy="131.87" inkscape:document-units="mm" inkscape:current-layer="layer1" showgrid="false" inkscape:window-width="1920" inkscape:window-height="1015" inkscape:window-x="0" inkscape:window-y="0" inkscape:window-maximized="1" inkscape:document-rotation="0"/><g inkscape:label="Layer 1" inkscape:groupmode="layer" id="layer1" transform="translate(22.516205,-19.699402)"><g id="g856" transform="matrix(-1,0,0,1,40.090435,0)"><ellipse cx="20.045" cy="56.725" rx="57.948" ry="35.814" id="path897" style="opacity:1;fill:url(#radialGradient905);fill-opacity:1;stroke:#fff;stroke-width:2;stroke-linecap:round;stroke-linejoin:round;stroke-miterlimit:4;stroke-dasharray:none;paint-order:fill markers stroke;filter:url(#filter921)"/><path sodipodi:nodetypes="cccc" inkscape:connector-curvature="0" id="path35" d="m24.899 38.275.09449 6.4728-9.0242.37798c2.3724-2.6513 3.8427-5.8518 8.9297-6.8508z" style="fill:url(#linearGradient939);fill-opacity:1;stroke:#000;stroke-width:2;stroke-linecap:butt;stroke-linejoin:miter;stroke-miterlimit:4;stroke-dasharray:none;stroke-opacity:1"/><path sodipodi:nodetypes="cccc" inkscape:connector-curvature="0" id="path33" d="m18.946 83.207c-.58905-3.646-.17857-7.4549 1.3702-9.9691L13.276 71.159C14.295 75.238 14.278 80.07 18.946 83.207z" style="fill:url(#linearGradient895);fill-opacity:1;stroke:#000;stroke-width:2;stroke-linecap:butt;stroke-linejoin:miter;stroke-miterlimit:4;stroke-dasharray:none;stroke-opacity:1"/><path sodipodi:nodetypes="zzcccccccszzz" inkscape:connector-curvature="0" id="path23" d="m-2.4722 58.195c.37182 3.0834 4.47 5.0385 7.0826 8.4858C7.223 70.128 13.114 74.096 16.504 74.699c5.6004 1.1254 6.934-1.5871 11.426-4.0759C31.99 69.024 34.487 65.594 38.153 63.072 40.4 61.565 43.127 59.957 44.465 59.837c1.0563 2.4452 4.4134 3.7496 7.6523 2.3663-2.9852-3.08-2.2699-10.476-.96885-13.664-1.5114.69414-4.5992 2.429-6.9156 7.4501C38.664 51.669 27.929 44.285 25.725 42.693 24.148 41.555 19.828 41.731 15.568 42.893 11.309 44.056 4.1845 47.973 1.3363 50.912-1.5118 53.85-2.8441 55.111-2.4722 58.195z" style="fill:#88c33e;fill-opacity:1;stroke:#000;stroke-width:2;stroke-linecap:butt;stroke-linejoin:miter;stroke-miterlimit:4;stroke-dasharray:none;stroke-opacity:1"/><path style="fill:#379239;fill-opacity:1;stroke:#000;stroke-width:2;stroke-linecap:butt;stroke-linejoin:miter;stroke-miterlimit:4;stroke-dasharray:none;stroke-opacity:1;filter:url(#filter2522)" d="m-2.4722 58.195c.37182 3.0834 4.47 5.0385 7.0826 8.4858C7.223 70.128 13.114 74.096 16.504 74.699c5.6004 1.1254 6.934-1.5871 11.426-4.0759C31.99 69.024 34.487 65.594 38.153 63.072 40.4 61.565 43.127 59.957 44.465 59.837c1.0563 2.4452 4.4134 3.7496 7.6523 2.3663-2.9852-3.08-2.2699-10.476-.96885-13.664-1.5114.69414-4.5992 2.429-6.9156 7.4501C38.664 51.669 27.929 44.285 25.725 42.693 24.148 41.555 19.828 41.731 15.568 42.893 11.309 44.056 4.1845 47.973 1.3363 50.912-1.5118 53.85-2.8441 55.111-2.4722 58.195z" id="path2427" inkscape:connector-curvature="0" sodipodi:nodetypes="zzcccccccszzz"/><circle style="fill:#fff;fill-opacity:1;stroke:#000;stroke-width:1.7;stroke-linecap:round;stroke-linejoin:round;stroke-miterlimit:4;stroke-dasharray:none;paint-order:fill markers stroke" id="circle27" cx="2.0222" cy="44.606" r="8.7879"/><circle r="8.7879" cy="44.606" cx="6.7091" id="path25" style="fill:#fff;fill-opacity:1;stroke:#000;stroke-width:1.6;stroke-linecap:round;stroke-linejoin:round;stroke-miterlimit:4;stroke-dasharray:none;paint-order:fill markers stroke"/><circle r="1.1812" cy="43.661" cx="-4.1577" id="path29" style="opacity:1;fill:#000;fill-opacity:1;stroke:#fff;stroke-width:.113407;stroke-linecap:round;stroke-linejoin:round;stroke-miterlimit:4;stroke-dasharray:none;paint-order:fill markers stroke"/><circle r="1.6064" cy="43.472" cx="1.1339" id="path31" style="opacity:1;fill:#000;fill-opacity:.980198;stroke:none;stroke-width:2;stroke-linecap:round;stroke-linejoin:round;stroke-miterlimit:4;stroke-dasharray:none;paint-order:fill markers stroke"/><path sodipodi:nodetypes="cc" inkscape:connector-curvature="0" id="path37" d="m16.103 56.658c2.0407 4.0815-2.1484 7.6634-11.893 9.5549" style="fill:none;stroke:#000;stroke-width:2;stroke-linecap:round;stroke-linejoin:miter;stroke-miterlimit:4;stroke-dasharray:none;stroke-opacity:1"/></g></g></svg>