<?xml version="1.0" encoding="UTF-8" standalone="no"?>
<!-- Created with Inkscape (http://www.inkscape.org/) -->
<svg
   xmlns:dc="http://purl.org/dc/elements/1.1/"
   xmlns:cc="http://web.resource.org/cc/"
   xmlns:rdf="http://www.w3.org/1999/02/22-rdf-syntax-ns#"
   xmlns:svg="http://www.w3.org/2000/svg"
   xmlns="http://www.w3.org/2000/svg"
   xmlns:xlink="http://www.w3.org/1999/xlink"
   xmlns:sodipodi="http://sodipodi.sourceforge.net/DTD/sodipodi-0.dtd"
   xmlns:inkscape="http://www.inkscape.org/namespaces/inkscape"
   width="128"
   height="128"
   id="svg4659"
   sodipodi:version="0.32"
   inkscape:version="0.45"
   version="1.0"
   sodipodi:docbase="/Users/david/Progetti/oxygen-dev/icons/apps"
   sodipodi:docname="gwenview.svg"
   inkscape:output_extension="org.inkscape.output.svg.inkscape"
   inkscape:export-filename="/Users/david/Progetti/oxygen-dev/icons/apps/gwenview.png"
   inkscape:export-xdpi="360"
   inkscape:export-ydpi="360"
   sodipodi:modified="true">
  <defs
     id="defs4661">
    <radialGradient
       id="XMLID_54_"
       cx="2.4061999"
       cy="61.116699"
       r="2.0318"
       gradientUnits="userSpaceOnUse">
      <stop
         offset="0"
         style="stop-color:#FFFFFF"
         id="stop267" />
      <stop
         offset="1"
         style="stop-color:#ffffff;stop-opacity:0;"
         id="stop269" />
    </radialGradient>
    <linearGradient
       y2="19.127899"
       x2="48.762501"
       y1="65.933098"
       x1="66.777298"
       gradientUnits="userSpaceOnUse"
       id="XMLID_53_">
      <stop
         id="stop242"
         style="stop-color:#000000"
         offset="0" />
      <stop
         id="stop244"
         style="stop-color:#363636"
         offset="0.0473" />
      <stop
         id="stop246"
         style="stop-color:#6B6B6B"
         offset="0.0999" />
      <stop
         id="stop248"
         style="stop-color:#989898"
         offset="0.1534" />
      <stop
         id="stop250"
         style="stop-color:#BDBDBD"
         offset="0.2066" />
      <stop
         id="stop252"
         style="stop-color:#DADADA"
         offset="0.2594" />
      <stop
         id="stop254"
         style="stop-color:#EFEFEF"
         offset="0.3118" />
      <stop
         id="stop256"
         style="stop-color:#FBFBFB"
         offset="0.3637" />
      <stop
         id="stop258"
         style="stop-color:#FFFFFF"
         offset="0.4142" />
      <stop
         id="stop260"
         style="stop-color:#FFFFFF"
         offset="0.5" />
      <stop
         id="stop262"
         style="stop-color:#0066FF"
         offset="1" />
    </linearGradient>
    <linearGradient
       y2="19.131599"
       x2="48.7644"
       y1="65.936996"
       x1="66.779297"
       gradientUnits="userSpaceOnUse"
       id="XMLID_52_">
      <stop
         id="stop217"
         style="stop-color:#000000"
         offset="0" />
      <stop
         id="stop219"
         style="stop-color:#363636"
         offset="0.0473" />
      <stop
         id="stop221"
         style="stop-color:#6B6B6B"
         offset="0.0999" />
      <stop
         id="stop223"
         style="stop-color:#989898"
         offset="0.1534" />
      <stop
         id="stop225"
         style="stop-color:#BDBDBD"
         offset="0.2066" />
      <stop
         id="stop227"
         style="stop-color:#DADADA"
         offset="0.2594" />
      <stop
         id="stop229"
         style="stop-color:#EFEFEF"
         offset="0.3118" />
      <stop
         id="stop231"
         style="stop-color:#FBFBFB"
         offset="0.3637" />
      <stop
         id="stop233"
         style="stop-color:#FFFFFF"
         offset="0.4142" />
      <stop
         id="stop235"
         style="stop-color:#FFFFFF"
         offset="0.5" />
      <stop
         id="stop237"
         style="stop-color:#0066FF"
         offset="1" />
    </linearGradient>
    <radialGradient
       id="XMLID_51_"
       cx="59.940899"
       cy="87.7798"
       r="29.5884"
       fx="49"
       fy="96.866699"
       gradientUnits="userSpaceOnUse"
       xlink:href="#XMLID_45_"
       spreadMethod="pad">
      <stop
         offset="0"
         style="stop-color:#FFFFFF"
         id="stop208" />
      <stop
         offset="1"
         style="stop-color:#ffffff;stop-opacity:0;"
         id="stop210" />
    </radialGradient>
    <radialGradient
       id="XMLID_50_"
       cx="102.4912"
       cy="24.8745"
       r="6.4119"
       gradientUnits="userSpaceOnUse">
      <stop
         offset="0.432"
         style="stop-color:#FF80DF"
         id="stop197" />
      <stop
         offset="0.9408"
         style="stop-color:#730055"
         id="stop199" />
    </radialGradient>
    <radialGradient
       id="XMLID_49_"
       cx="102.4902"
       cy="24.878401"
       r="6.4099998"
       gradientUnits="userSpaceOnUse">
      <stop
         offset="0.432"
         style="stop-color:#FF80DF"
         id="stop190" />
      <stop
         offset="0.9408"
         style="stop-color:#730055"
         id="stop192" />
    </radialGradient>
    <radialGradient
       id="XMLID_48_"
       cx="11.166"
       cy="57.1987"
       r="6.1454"
       gradientUnits="userSpaceOnUse">
      <stop
         offset="0.432"
         style="stop-color:#FF80DF"
         id="stop183" />
      <stop
         offset="0.9408"
         style="stop-color:#730055"
         id="stop185" />
    </radialGradient>
    <radialGradient
       id="XMLID_47_"
       cx="11.166"
       cy="57.194801"
       r="6.1473999"
       gradientUnits="userSpaceOnUse">
      <stop
         offset="0.432"
         style="stop-color:#FF80DF"
         id="stop176" />
      <stop
         offset="0.9408"
         style="stop-color:#730055"
         id="stop178" />
    </radialGradient>
    <linearGradient
       id="XMLID_46_"
       gradientUnits="userSpaceOnUse"
       x1="60.065899"
       y1="45.0518"
       x2="59.9221"
       y2="16.2199"
       gradientTransform="matrix(0.995,-9.96e-2,9.96e-2,0.995,-3.6499,5.6456)">
      <stop
         offset="0.0237"
         style="stop-color:#FF00BF"
         id="stop161" />
      <stop
         offset="0.6746"
         style="stop-color:#590042"
         id="stop163" />
      <stop
         offset="0.7785"
         style="stop-color:#67004D"
         id="stop165" />
      <stop
         offset="0.8935"
         style="stop-color:#730055"
         id="stop167" />
      <stop
         offset="0.9384"
         style="stop-color:#7E005D"
         id="stop169" />
      <stop
         offset="1"
         style="stop-color:#8A0066"
         id="stop171" />
    </linearGradient>
    <linearGradient
       id="XMLID_45_"
       gradientUnits="userSpaceOnUse"
       x1="47.716301"
       y1="7.0795999"
       x2="49.716301"
       y2="12.0796">
      <stop
         offset="0"
         style="stop-color:#FFFFFF"
         id="stop154" />
      <stop
         offset="1"
         style="stop-color:#ffffff;stop-opacity:0;"
         id="stop156" />
    </linearGradient>
    <linearGradient
       id="XMLID_44_"
       gradientUnits="userSpaceOnUse"
       x1="-1.9263"
       y1="39.286598"
       x2="122"
       y2="39.286598"
       gradientTransform="matrix(0.995,-9.96e-2,9.96e-2,0.995,-3.6499,5.6456)">
      <stop
         offset="0"
         style="stop-color:#A3007B"
         id="stop143" />
      <stop
         offset="0.213"
         style="stop-color:#A3007B"
         id="stop145" />
      <stop
         offset="0.4556"
         style="stop-color:#FF00BF"
         id="stop147" />
      <stop
         offset="1"
         style="stop-color:#A3007B"
         id="stop149" />
    </linearGradient>
    <radialGradient
       gradientUnits="userSpaceOnUse"
       gradientTransform="matrix(0.7692,-7.7e-2,9.96e-2,0.995,9.042,4.4224)"
       r="11.3073"
       cy="37.257301"
       cx="64.929703"
       id="XMLID_43_">
      <stop
         id="stop136"
         style="stop-color:#FFFFFF"
         offset="0" />
      <stop
         id="stop138"
         style="stop-color:#ffffff;stop-opacity:0;"
         offset="1" />
    </radialGradient>
    <radialGradient
       gradientUnits="userSpaceOnUse"
       gradientTransform="matrix(-0.7974,0.6035,-0.6035,-0.7974,192.8121,60.3074)"
       fy="77.369499"
       fx="93.291801"
       r="10.5683"
       cy="84.462402"
       cx="94.107399"
       id="XMLID_42_">
      <stop
         id="stop129"
         style="stop-color:#E1FF00"
         offset="0" />
      <stop
         id="stop131"
         style="stop-color:#008C00"
         offset="1" />
    </radialGradient>
    <linearGradient
       gradientTransform="matrix(0.8476,0.5306,-0.5306,0.8476,27.873,-13.0597)"
       y2="21.4753"
       x2="35.213902"
       y1="37.138199"
       x1="49.512699"
       gradientUnits="userSpaceOnUse"
       id="XMLID_41_">
      <stop
         id="stop120"
         style="stop-color:#0066FF"
         offset="0" />
      <stop
         id="stop122"
         style="stop-color:#FF80DF"
         offset="1" />
    </linearGradient>
    <radialGradient
       gradientUnits="userSpaceOnUse"
       gradientTransform="matrix(-1,0.1001,-9.9e-2,-0.9896,-209.1207,-219.9872)"
       fy="-289.96829"
       fx="-239.6393"
       r="3.1496999"
       cy="-291.40619"
       cx="-241.3511"
       id="XMLID_40_">
      <stop
         id="stop91"
         style="stop-color:#FFFFFF"
         offset="0" />
      <stop
         id="stop93"
         style="stop-color:#FEFEFA"
         offset="0.0516" />
      <stop
         id="stop95"
         style="stop-color:#FDF9ED"
         offset="0.1096" />
      <stop
         id="stop97"
         style="stop-color:#FBF2D6"
         offset="0.1706" />
      <stop
         id="stop99"
         style="stop-color:#F7E8B7"
         offset="0.2337" />
      <stop
         id="stop101"
         style="stop-color:#F3DB8E"
         offset="0.2985" />
      <stop
         id="stop103"
         style="stop-color:#EDCB5D"
         offset="0.3646" />
      <stop
         id="stop105"
         style="stop-color:#E7B823"
         offset="0.4307" />
      <stop
         id="stop107"
         style="stop-color:#E3AD00"
         offset="0.4675" />
      <stop
         id="stop109"
         style="stop-color:#323232"
         offset="0.7633" />
    </radialGradient>
    <radialGradient
       gradientUnits="userSpaceOnUse"
       gradientTransform="matrix(0.8595,-8.6e-2,8.29e-2,0.8286,-19.5073,-14.4469)"
       fy="76.091599"
       fx="82.07"
       r="3.1494"
       cy="74.653801"
       cx="80.358398"
       id="XMLID_39_">
      <stop
         id="stop82"
         style="stop-color:#FFFFFF"
         offset="0" />
      <stop
         id="stop84"
         style="stop-color:#0066FF"
         offset="0.4675" />
      <stop
         id="stop86"
         style="stop-color:#323232"
         offset="1" />
    </radialGradient>
    <linearGradient
       gradientTransform="matrix(0.995,-9.96e-2,9.96e-2,0.995,-3.6499,5.6456)"
       y2="37.773399"
       x2="62.564999"
       y1="47.355499"
       x1="52.982899"
       gradientUnits="userSpaceOnUse"
       id="XMLID_38_">
      <stop
         id="stop73"
         style="stop-color:#000000"
         offset="0" />
      <stop
         id="stop75"
         style="stop-color:#BBBBBB"
         offset="0.5" />
      <stop
         id="stop77"
         style="stop-color:#000000"
         offset="1" />
    </linearGradient>
    <radialGradient
       gradientUnits="userSpaceOnUse"
       gradientTransform="matrix(0.995,-9.96e-2,9.96e-2,0.995,-3.6499,5.6456)"
       r="14.0121"
       cy="48.294399"
       cx="61.839802"
       id="XMLID_37_">
      <stop
         id="stop64"
         style="stop-color:#000000"
         offset="0" />
      <stop
         id="stop66"
         style="stop-color:#323232"
         offset="1" />
    </radialGradient>
    <radialGradient
       gradientUnits="userSpaceOnUse"
       gradientTransform="matrix(0.995,-9.96e-2,9.96e-2,0.995,-3.6499,5.6456)"
       r="11.5037"
       cy="42.564499"
       cx="57.773399"
       id="XMLID_36_">
      <stop
         id="stop57"
         style="stop-color:#888888"
         offset="0.4675" />
      <stop
         id="stop59"
         style="stop-color:#323232"
         offset="0.8639" />
    </radialGradient>
    <radialGradient
       gradientUnits="userSpaceOnUse"
       gradientTransform="matrix(0.995,-9.96e-2,9.96e-2,0.995,-3.6499,5.6456)"
       r="52.707901"
       cy="18.5327"
       cx="42.681198"
       id="XMLID_35_">
      <stop
         id="stop44"
         style="stop-color:#000000"
         offset="0" />
      <stop
         id="stop46"
         style="stop-color:#323232"
         offset="1" />
    </radialGradient>
    <radialGradient
       id="XMLID_34_"
       cx="60.612301"
       cy="42.709499"
       r="77.481102"
       gradientTransform="matrix(1.0108,-5.78e-2,0.1586,1.1511,-7.7408,-4.3987)"
       gradientUnits="userSpaceOnUse">
      <stop
         offset="0.432"
         style="stop-color:#FFFFFF"
         id="stop35" />
      <stop
         offset="0.7574"
         style="stop-color:#0066FF"
         id="stop37" />
    </radialGradient>
    <linearGradient
       id="XMLID_33_"
       gradientUnits="userSpaceOnUse"
       x1="78.878899"
       y1="95.536598"
       x2="10.0799"
       y2="26.7376">
      <stop
         offset="0.2071"
         style="stop-color:#FF00BF"
         id="stop28" />
      <stop
         offset="0.6036"
         style="stop-color:#730055"
         id="stop30" />
    </linearGradient>
    <linearGradient
       id="XMLID_32_"
       gradientUnits="userSpaceOnUse"
       x1="77.677696"
       y1="97.692902"
       x2="7.9267001"
       y2="27.941799">
      <stop
         offset="0"
         style="stop-color:#CC009A"
         id="stop21" />
      <stop
         offset="1"
         style="stop-color:#A3007B"
         id="stop23" />
    </linearGradient>
    <filter
       id="AI_Sfocatura_4">
      <feGaussianBlur
         stdDeviation="2"
         id="feGaussianBlur6" />
    </filter>
    <radialGradient
       inkscape:collect="always"
       xlink:href="#XMLID_54_"
       id="radialGradient5041"
       gradientUnits="userSpaceOnUse"
       cx="2.4061999"
       cy="61.116699"
       r="2.0318"
       gradientTransform="translate(4,11.451503)" />
    <radialGradient
       inkscape:collect="always"
       xlink:href="#XMLID_50_"
       id="radialGradient5076"
       gradientUnits="userSpaceOnUse"
       cx="102.4912"
       cy="24.8745"
       r="6.4119"
       gradientTransform="translate(4,11.451503)" />
    <radialGradient
       inkscape:collect="always"
       xlink:href="#XMLID_49_"
       id="radialGradient5079"
       gradientUnits="userSpaceOnUse"
       cx="102.4902"
       cy="24.878401"
       r="6.4099998"
       gradientTransform="translate(4,11.451503)" />
    <radialGradient
       inkscape:collect="always"
       xlink:href="#XMLID_48_"
       id="radialGradient5082"
       gradientUnits="userSpaceOnUse"
       cx="11.166"
       cy="57.1987"
       r="6.1454"
       gradientTransform="translate(4,11.451503)" />
    <radialGradient
       inkscape:collect="always"
       xlink:href="#XMLID_47_"
       id="radialGradient5085"
       gradientUnits="userSpaceOnUse"
       cx="11.166"
       cy="57.194801"
       r="6.1473999"
       gradientTransform="translate(4,11.451503)" />
    <linearGradient
       inkscape:collect="always"
       xlink:href="#XMLID_46_"
       id="linearGradient5088"
       gradientUnits="userSpaceOnUse"
       gradientTransform="matrix(0.995,-9.96e-2,9.96e-2,0.995,0.3501,17.097103)"
       x1="60.065899"
       y1="45.0518"
       x2="59.9221"
       y2="16.2199" />
    <linearGradient
       inkscape:collect="always"
       xlink:href="#XMLID_45_"
       id="linearGradient5091"
       gradientUnits="userSpaceOnUse"
       x1="47.716301"
       y1="7.0795999"
       x2="50.054924"
       y2="13.095473"
       gradientTransform="translate(4,11.451503)" />
    <linearGradient
       inkscape:collect="always"
       xlink:href="#XMLID_44_"
       id="linearGradient5094"
       gradientUnits="userSpaceOnUse"
       gradientTransform="matrix(0.995,-9.96e-2,9.96e-2,0.995,0.3501,17.097103)"
       x1="-1.9263"
       y1="39.286598"
       x2="122"
       y2="39.286598" />
    <radialGradient
       inkscape:collect="always"
       xlink:href="#XMLID_34_"
       id="radialGradient5152"
       gradientUnits="userSpaceOnUse"
       gradientTransform="matrix(1.0108,-5.78e-2,0.1586,1.1511,-3.7408,7.052803)"
       cx="60.612301"
       cy="42.709499"
       r="77.481102" />
    <linearGradient
       inkscape:collect="always"
       xlink:href="#XMLID_33_"
       id="linearGradient5155"
       gradientUnits="userSpaceOnUse"
       x1="78.878899"
       y1="95.536598"
       x2="10.0799"
       y2="26.7376"
       gradientTransform="translate(4,11.451503)" />
    <linearGradient
       inkscape:collect="always"
       xlink:href="#XMLID_32_"
       id="linearGradient5158"
       gradientUnits="userSpaceOnUse"
       x1="77.677696"
       y1="97.692902"
       x2="7.9267001"
       y2="27.941799"
       gradientTransform="translate(4,11.451503)" />
    <filter
       inkscape:collect="always"
       id="filter6134">
      <feGaussianBlur
         inkscape:collect="always"
         stdDeviation="0.50115957"
         id="feGaussianBlur6136" />
    </filter>
    <filter
       inkscape:collect="always"
       id="filter4382">
      <feGaussianBlur
         inkscape:collect="always"
         stdDeviation="2.4485287"
         id="feGaussianBlur4384" />
    </filter>
    <filter
       inkscape:collect="always"
       x="-0.066692657"
       width="1.1333853"
       y="-0.23497093"
       height="1.4699419"
       id="filter4434">
      <feGaussianBlur
         inkscape:collect="always"
         stdDeviation="2.2482571"
         id="feGaussianBlur4436" />
    </filter>
  </defs>
  <sodipodi:namedview
     id="base"
     pagecolor="#ffffff"
     bordercolor="#666666"
     borderopacity="1.0"
     gridtolerance="10000"
     guidetolerance="10"
     objecttolerance="10"
     inkscape:pageopacity="0.0"
     inkscape:pageshadow="2"
     inkscape:zoom="2.953125"
     inkscape:cx="62.555702"
     inkscape:cy="64"
     inkscape:document-units="px"
     inkscape:current-layer="layer1"
     width="128px"
     height="128px"
     inkscape:window-width="697"
     inkscape:window-height="581"
     inkscape:window-x="264"
     inkscape:window-y="221" />
  <metadata
     id="metadata4664">
    <rdf:RDF>
      <cc:Work
         rdf:about="">
        <dc:format>image/svg+xml</dc:format>
        <dc:type
           rdf:resource="http://purl.org/dc/dcmitype/StillImage" />
      </cc:Work>
    </rdf:RDF>
  </metadata>
  <g
     inkscape:label="Layer 1"
     inkscape:groupmode="layer"
     id="layer1">
    <g
       id="g9"
       style="opacity:0.5;filter:url(#filter4382)"
       transform="translate(4,11.451503)">
      <path
         id="path11"
         d="M 53.298,17.39 L 53.298,17.39 C 28.352,26.824 16.131,57.326 12.981,66.449 C 12.655,67.39 12.728,68.392 13.212,69.263 L 13.534,69.839 C 14.444,71.462 16.472,72.104 18.142,71.282 C 18.147,71.28 18.151,71.279 18.152,71.279 C 28.335,76.437 54.44,87.533 76.646,79.135 C 100.945,69.947 113.349,40.111 116.573,31.185 C 117.159,29.561 116.475,27.754 114.962,26.923 C 106.642,22.364 77.604,8.199 53.298,17.39 z " />
    </g>
    <g
       id="g13"
       style="opacity:0.5;filter:url(#filter4434)"
       transform="translate(4,11.451503)">
      <path
         id="path15"
         d="M 27.201,87.519 C 26.745,88.203 26.559,88.992 26.624,89.757 C 26.702,90.681 27.144,91.569 27.915,92.192 C 38.046,100.364 49.052,104.696 60.628,105.066 C 72.813,105.456 83.581,102.185 92.641,95.344 C 94.036,94.29 104.93835,84.918265 104.08535,81.698143 C 103.6377,80.008207 90.889,88.649 89.258,89.283 C 80.149,92.828 71.475,94.721 63.479,94.912 C 53.29,95.155 42.627,92.286 31.791,86.387 C 30.198,85.521 28.208,86.012 27.201,87.519 z "
         sodipodi:nodetypes="cscssssscc" />
    </g>
    <path
       d="M 4.094,72.619503 C 4.261,72.978503 21.268,108.6005 56.881,112.7405 L 56.88,112.7405 C 92.788,116.9155 109.503,90.268503 109.503,90.268503 C 109.268,90.395503 85.76,105.9425 61.094,104.4595 C 29.77,102.5785 6.001,71.832503 5.765,71.552503 L 4.094,72.619503 z "
       id="path25"
       style="fill:url(#linearGradient5158)" />
    <path
       d="M 59.094,105.4605 C 83.76,106.9425 109.268,90.396503 109.503,90.269503 C 109.268,90.396503 85.76,102.9435 61.094,101.4605 C 29.77,99.578503 6.001,71.832503 5.765,71.552503 C 6.001,71.832503 27.77,103.5785 59.094,105.4605 z "
       id="path32"
       style="fill:url(#linearGradient5155)" />
    <path
       d="M 7.804,71.245503 C 7.804,71.245503 44.617,92.643503 75.616,80.922503 C 106.612,69.200503 120.054,28.795503 120.054,28.795503 C 120.054,28.795503 85.273,12.770503 54.276,24.492503 C 23.279,36.214503 7.804,71.245503 7.804,71.245503 z "
       id="path39"
       style="fill:url(#radialGradient5152)" />
    <g
       id="g41"
       transform="translate(4,11.451503)">
      <radialGradient
         id="radialGradient4885"
         cx="42.681198"
         cy="18.5327"
         r="52.707901"
         gradientTransform="matrix(0.995,-9.96e-2,9.96e-2,0.995,-3.6499,5.6456)"
         gradientUnits="userSpaceOnUse">
        <stop
           offset="0"
           style="stop-color:#000000"
           id="stop4887" />
        <stop
           offset="1"
           style="stop-color:#323232"
           id="stop4889" />
      </radialGradient>
      <path
         enable-background="new    "
         d="M 30.354,45.017 C 31.838,59.851 45.116,70.714 59.95,69.229 C 74.783,67.745 85.645,54.467 84.161,39.633 C 82.677,24.797 69.399,13.937 54.565,15.422 C 39.731,16.906 28.869,30.181 30.354,45.017 z "
         id="path48"
         style="fill:url(#XMLID_35_)" />
      <ellipse
         transform="matrix(0.995,-9.96e-2,9.96e-2,0.995,-3.9556,5.9912)"
         cx="58.042"
         cy="42.623001"
         rx="13.083"
         ry="12.88"
         id="ellipse50"
         sodipodi:cx="58.042"
         sodipodi:cy="42.623001"
         sodipodi:rx="13.083"
         sodipodi:ry="12.88"
         style="opacity:0.1;fill:none;stroke:#ffffff" />
      <ellipse
         transform="matrix(0.995,-9.96e-2,9.96e-2,0.995,-3.9555,5.991)"
         cx="58.042"
         cy="42.623001"
         rx="20.334"
         ry="20.018"
         id="ellipse52"
         sodipodi:cx="58.042"
         sodipodi:cy="42.623001"
         sodipodi:rx="20.334"
         sodipodi:ry="20.018"
         style="opacity:0.1;fill:none;stroke:#ffffff" />
      <g
         id="g54">
        <radialGradient
           id="radialGradient4895"
           cx="57.773399"
           cy="42.564499"
           r="11.5037"
           gradientTransform="matrix(0.995,-9.96e-2,9.96e-2,0.995,-3.6499,5.6456)"
           gradientUnits="userSpaceOnUse">
          <stop
             offset="0.4675"
             style="stop-color:#888888"
             id="stop4897" />
          <stop
             offset="0.8639"
             style="stop-color:#323232"
             id="stop4899" />
        </radialGradient>
        <circle
           cx="58.075001"
           cy="42.243"
           r="11.503"
           id="circle61"
           style="fill:url(#XMLID_36_)"
           sodipodi:cx="58.075001"
           sodipodi:cy="42.243"
           sodipodi:rx="11.503"
           sodipodi:ry="11.503" />
        <radialGradient
           id="radialGradient4902"
           cx="61.839802"
           cy="48.294399"
           r="14.0121"
           gradientTransform="matrix(0.995,-9.96e-2,9.96e-2,0.995,-3.6499,5.6456)"
           gradientUnits="userSpaceOnUse">
          <stop
             offset="0"
             style="stop-color:#000000"
             id="stop4904" />
          <stop
             offset="1"
             style="stop-color:#323232"
             id="stop4906" />
        </radialGradient>
        <circle
           cx="58.074001"
           cy="42.243"
           r="7.395"
           id="circle68"
           style="fill:url(#XMLID_37_)"
           sodipodi:cx="58.074001"
           sodipodi:cy="42.243"
           sodipodi:rx="7.395"
           sodipodi:ry="7.395" />
        <g
           id="g70">
          <linearGradient
             id="linearGradient4910"
             gradientUnits="userSpaceOnUse"
             x1="52.982899"
             y1="47.355499"
             x2="62.564999"
             y2="37.773399"
             gradientTransform="matrix(0.995,-9.96e-2,9.96e-2,0.995,-3.6499,5.6456)">
            <stop
               offset="0"
               style="stop-color:#000000"
               id="stop4912" />
            <stop
               offset="0.5"
               style="stop-color:#BBBBBB"
               id="stop4914" />
            <stop
               offset="1"
               style="stop-color:#000000"
               id="stop4916" />
          </linearGradient>
          <path
             d="M 51.33,42.918 C 51.702,46.636 55.029,49.36 58.75,48.987 C 62.469,48.615 65.19,45.286 64.818,41.568 C 64.446,37.848 61.118,35.125 57.399,35.497 C 53.68,35.869 50.957,39.198 51.33,42.918 z M 51.737,42.877 C 51.387,39.383 53.946,36.255 57.44,35.906 C 60.935,35.557 64.061,38.115 64.41,41.609 C 64.76,45.101 62.203,48.23 58.709,48.579 C 55.215,48.928 52.087,46.37 51.737,42.877 z "
             id="path79"
             style="fill:url(#XMLID_38_)" />
        </g>
        <radialGradient
           id="radialGradient4919"
           cx="80.358398"
           cy="74.653801"
           r="3.1494"
           fx="82.07"
           fy="76.091599"
           gradientTransform="matrix(0.8595,-8.6e-2,8.29e-2,0.8286,-19.5073,-14.4469)"
           gradientUnits="userSpaceOnUse">
          <stop
             offset="0"
             style="stop-color:#FFFFFF"
             id="stop4921" />
          <stop
             offset="0.4675"
             style="stop-color:#0066FF"
             id="stop4923" />
          <stop
             offset="1"
             style="stop-color:#323232"
             id="stop4925" />
        </radialGradient>
        <path
           d="M 53.042,40.771 C 53.186,42.212 54.515,43.259 56.011,43.109 C 57.505,42.96 58.601,41.67 58.456,40.229 C 58.312,38.788 56.982,37.741 55.488,37.89 C 53.993,38.041 52.897,39.331 53.042,40.771 z "
           id="path88"
           style="fill:url(#XMLID_39_)" />
        <radialGradient
           id="radialGradient4928"
           cx="-241.3511"
           cy="-291.40619"
           r="3.1496999"
           fx="-239.6393"
           fy="-289.96829"
           gradientTransform="matrix(-1,0.1001,-9.9e-2,-0.9896,-209.1207,-219.9872)"
           gradientUnits="userSpaceOnUse">
          <stop
             offset="0"
             style="stop-color:#FFFFFF"
             id="stop4930" />
          <stop
             offset="0.0516"
             style="stop-color:#FEFEFA"
             id="stop4932" />
          <stop
             offset="0.1096"
             style="stop-color:#FDF9ED"
             id="stop4934" />
          <stop
             offset="0.1706"
             style="stop-color:#FBF2D6"
             id="stop4936" />
          <stop
             offset="0.2337"
             style="stop-color:#F7E8B7"
             id="stop4938" />
          <stop
             offset="0.2985"
             style="stop-color:#F3DB8E"
             id="stop4940" />
          <stop
             offset="0.3646"
             style="stop-color:#EDCB5D"
             id="stop4942" />
          <stop
             offset="0.4307"
             style="stop-color:#E7B823"
             id="stop4944" />
          <stop
             offset="0.4675"
             style="stop-color:#E3AD00"
             id="stop4946" />
          <stop
             offset="0.7633"
             style="stop-color:#323232"
             id="stop4948" />
        </radialGradient>
        <path
           d="M 64.229,43.915 C 64.057,42.193 62.507,40.938 60.768,41.112 C 59.029,41.286 57.757,42.823 57.93,44.545 C 58.103,46.267 59.653,47.521 61.391,47.347 C 63.131,47.173 64.401,45.636 64.229,43.915 z "
           id="path111"
           style="fill:url(#XMLID_40_)" />
        <g
           id="g113"
           style="opacity:0.7;filter:url(#AI_Sfocatura_4)">
          <path
             d="M 53.515,42.506 C 53.768,45.031 56.027,46.881 58.552,46.628 C 61.077,46.376 62.926,44.115 62.673,41.59 C 62.421,39.066 60.16,37.216 57.636,37.469 C 55.11,37.722 53.262,39.982 53.515,42.506 z M 54.741,42.384 C 54.556,40.535 55.91,38.882 57.758,38.696 C 59.608,38.511 61.261,39.864 61.446,41.713 C 61.632,43.562 60.279,45.216 58.429,45.401 C 56.581,45.586 54.926,44.232 54.741,42.384 z "
             id="path115"
             style="fill:#ffffff" />
        </g>
      </g>
      <g
         id="g117"
         style="opacity:0.6;filter:url(#AI_Sfocatura_4)">
        <linearGradient
           id="linearGradient4954"
           gradientUnits="userSpaceOnUse"
           x1="49.512699"
           y1="37.138199"
           x2="35.213902"
           y2="21.4753"
           gradientTransform="matrix(0.8476,0.5306,-0.5306,0.8476,27.873,-13.0597)">
          <stop
             offset="0"
             style="stop-color:#0066FF"
             id="stop4956" />
          <stop
             offset="1"
             style="stop-color:#FF80DF"
             id="stop4958" />
        </linearGradient>
        <path
           d="M 38.299,28.357 C 40.989,24.059 47.646,23.376 53.166,26.831 C 58.687,30.285 60.981,36.573 58.291,40.87 C 55.601,45.169 48.943,45.851 43.423,42.397 C 37.902,38.941 35.608,32.656 38.299,28.357 z "
           id="path124"
           style="fill:url(#XMLID_41_)" />
      </g>
      <g
         id="g126"
         style="opacity:0.5;filter:url(#AI_Sfocatura_4)">
        <radialGradient
           id="radialGradient4962"
           cx="94.107399"
           cy="84.462402"
           r="10.5683"
           fx="93.291801"
           fy="77.369499"
           gradientTransform="matrix(-0.7974,0.6035,-0.6035,-0.7974,192.8121,60.3074)"
           gradientUnits="userSpaceOnUse">
          <stop
             offset="0"
             style="stop-color:#E1FF00"
             id="stop4964" />
          <stop
             offset="1"
             style="stop-color:#008C00"
             id="stop4966" />
        </radialGradient>
        <path
           d="M 76.2,42.633 C 79.262,46.678 77.532,53.141 72.339,57.073 C 67.147,61.004 60.455,60.913 57.395,56.868 C 54.334,52.824 56.064,46.359 61.258,42.429 C 66.45,38.497 73.14,38.59 76.2,42.633 z "
           id="path133"
           style="fill:url(#XMLID_42_)" />
      </g>
      <radialGradient
         id="radialGradient4969"
         cx="64.929703"
         cy="37.257301"
         r="11.3073"
         gradientTransform="matrix(0.7692,-7.7e-2,9.96e-2,0.995,9.042,4.4224)"
         gradientUnits="userSpaceOnUse">
        <stop
           offset="0"
           style="stop-color:#FFFFFF"
           id="stop4971" />
        <stop
           offset="1"
           style="stop-color:#ffffff;stop-opacity:0;"
           id="stop4973" />
      </radialGradient>
      <path
         d="M 52.583,37.506 C 53.085,42.508 58.018,46.11 63.604,45.551 C 69.189,44.992 73.314,40.485 72.81,35.481 C 72.311,30.478 67.376,26.877 61.792,27.436 C 56.206,27.996 52.083,32.503 52.583,37.506 z "
         id="path140"
         style="fill:url(#XMLID_43_)" />
    </g>
    <path
       d="M 50.67,14.956503 C 17.533,27.487503 4,72.897503 4,72.897503 C 4,72.897503 44.192,97.989503 77.33,85.459503 C 110.467,72.927503 124,27.517503 124,27.517503 C 124,27.517503 83.808,2.426503 50.67,14.956503 z M 74.871,78.958503 C 43.875,90.679503 7.875,71.432503 7.875,71.432503 C 7.875,71.432503 24.021,38.178503 55.019,26.456503 C 86.015,14.734503 120.125,28.982503 120.125,28.982503 C 120.125,28.982503 105.869,67.237503 74.871,78.958503 z "
       id="path151"
       style="fill:url(#linearGradient5094)" />
    <path
       d="M 52.085,18.698503 L 52.085,18.698503 C 39.227,23.560503 29.434,33.904503 22.363,44.347503 C 30.233,36.006503 40.622,27.624503 53.603,22.715503 C 66.532,17.826503 79.869,17.222503 91.289,18.263503 C 79.086,15.119503 64.929,13.841503 52.085,18.698503 z "
       id="path158"
       style="fill:url(#linearGradient5091)" />
    <path
       d="M 55.019,26.456503 C 24.021,38.178503 7.875,71.432503 7.875,71.432503 C 7.875,71.432503 43.875,90.679503 74.871,78.958503 C 105.869,67.236503 120.125,28.982503 120.125,28.982503 C 120.125,28.982503 86.015,14.735503 55.019,26.456503 z M 70.777,77.385503 C 42.454,87.909503 9.629,70.806503 9.629,70.806503 C 9.629,70.806503 24.439,41.101503 52.762,30.578503 C 81.083,20.055503 112.195,32.696503 112.195,32.696503 C 112.195,32.696503 99.099,66.861503 70.777,77.385503 z "
       id="path173"
       style="fill:url(#linearGradient5088)" />
    <path
       d="M 14.482,62.455503 L 14.217,62.984503 C 14.217,62.984503 14.081,63.287503 14.077,63.294503 C 14.067,63.310503 9.459,70.699503 9.459,70.699503 C 9.439,70.731503 9.429,70.767503 9.429,70.805503 C 9.429,70.826503 9.432,70.846503 9.439,70.867503 C 9.457,70.924503 9.5,70.970503 9.554,70.991503 C 9.554,70.991503 16.709,73.871503 16.709,73.871503 C 17.265,74.243503 17.837,74.545503 18.414,74.759503 L 18.414,74.759503 C 20.687,75.601503 20.702,75.590503 20.816,75.511503 C 20.87,75.473503 20.902,75.410503 20.902,75.345503 C 20.902,75.158503 20.899,75.146503 16.886,73.512503 C 15.442,72.531503 14.356,71.087503 13.83,69.444503 C 13.584,68.675503 13.46,67.877503 13.46,67.070503 C 13.46,65.919503 13.786,64.713503 14.427,63.486503 C 15.291,62.073503 15.292,62.032503 15.292,61.955503 C 15.292,61.867503 15.233,61.787503 15.149,61.761503 C 14.989,61.711503 14.97,61.739503 14.482,62.455503 z M 14.483,62.453503 C 14.484,62.453503 14.483,62.453503 14.483,62.453503 z "
       id="path180"
       style="fill:url(#radialGradient5085)" />
    <path
       d="M 18.484,74.572503 C 16.176,73.718503 14.39,71.848503 13.641,69.505503 C 13.386,68.708503 13.261,67.887503 13.261,67.070503 C 13.261,65.482503 13.733,63.911503 14.647,62.568503 C 16.944,59.192503 9.628,70.806503 9.628,70.806503 C 9.628,70.806503 26.656,77.596503 18.484,74.572503 z "
       id="path187"
       style="fill:url(#radialGradient5082)" />
    <path
       d="M 100.667,29.119503 C 100.617,29.157503 100.588,29.217503 100.588,29.279503 C 100.588,29.483503 100.592,29.493503 104.739,30.724503 C 106.264,31.557503 107.481,32.878503 108.164,34.450503 L 108.164,34.450503 C 108.593,35.437503 108.81,36.482503 108.81,37.557503 C 108.81,38.186503 108.731,38.818503 108.578,39.435503 C 106.708,43.188503 106.706,43.286503 106.706,43.370503 C 106.706,43.461503 106.769,43.546503 106.858,43.568503 C 107.054,43.618503 107.054,43.618503 108.222,41.458503 C 108.54,40.871503 108.781,40.240503 108.948,39.587503 C 108.949,39.587503 112.374,32.785503 112.374,32.785503 C 112.388,32.757503 112.395,32.726503 112.395,32.695503 C 112.395,32.668503 112.39,32.641503 112.378,32.615503 C 112.355,32.561503 112.308,32.519503 112.251,32.502503 L 104.882,30.348503 C 104.282,30.026503 103.677,29.778503 103.081,29.622503 C 100.788,29.025503 100.771,29.037503 100.667,29.119503 z "
       id="path194"
       style="fill:url(#radialGradient5079)" />
    <path
       d="M 112.194,32.696503 C 112.194,32.696503 94.718,27.648503 103.029,29.817503 C 105.407,30.438503 107.368,32.116503 108.347,34.370503 C 109.326,36.623503 109.215,39.203503 108.045,41.364503 C 103.951,48.934503 112.194,32.696503 112.194,32.696503 z "
       id="path201"
       style="fill:url(#radialGradient5076)" />
    <g
       id="g203"
       style="opacity:0.5;filter:url(#AI_Sfocatura_4)"
       transform="translate(4,11.451503)">
      <path
         d="M 53.106,20.524 C 33.515,27.932 20.58,46.283 14.728,56.277 C 26.016,61.317 29.144,39.416 48.786,31.989 C 68.44,24.556 100.413,33.171 105.535,21.928 C 94.521,18.309 72.673,13.125 53.106,20.524 z "
         id="path205"
         style="fill:#ffffff" />
    </g>
    <path
       d="M 89.953,97.865503 C 80.992,101.2655 69.963,104.1145 59.094,103.4615 C 44.706,102.5975 32.344,95.431503 23.149,87.908503 C 31.719,96.419503 44.16,105.4815 58.96,106.4615 C 81.358,107.9435 104.52,91.397503 104.734,91.270503 C 104.622,91.335503 98.736,94.790503 89.953,97.865503 z "
       id="path212"
       style="opacity:0.8;fill:#ff80df;fill-opacity:1;filter:url(#filter6134)" />
    <g
       id="g214"
       style="opacity:0.3"
       transform="translate(4,11.451503)">
      <linearGradient
         id="linearGradient4987"
         gradientUnits="userSpaceOnUse"
         x1="66.779297"
         y1="65.936996"
         x2="48.7644"
         y2="19.131599">
        <stop
           offset="0"
           style="stop-color:#000000"
           id="stop4989" />
        <stop
           offset="0.0473"
           style="stop-color:#363636"
           id="stop4991" />
        <stop
           offset="0.0999"
           style="stop-color:#6B6B6B"
           id="stop4993" />
        <stop
           offset="0.1534"
           style="stop-color:#989898"
           id="stop4995" />
        <stop
           offset="0.2066"
           style="stop-color:#BDBDBD"
           id="stop4997" />
        <stop
           offset="0.2594"
           style="stop-color:#DADADA"
           id="stop4999" />
        <stop
           offset="0.3118"
           style="stop-color:#EFEFEF"
           id="stop5001" />
        <stop
           offset="0.3637"
           style="stop-color:#FBFBFB"
           id="stop5003" />
        <stop
           offset="0.4142"
           style="stop-color:#FFFFFF"
           id="stop5005" />
        <stop
           offset="0.5"
           style="stop-color:#FFFFFF"
           id="stop5007" />
        <stop
           offset="1"
           style="stop-color:#0066FF"
           id="stop5009" />
      </linearGradient>
      <path
         d="M 65.384,62.184 C 44.47,69.955 14.757,63.246 5.629,59.355 C 5.629,59.355 38.454,76.458 66.777,65.934 C 95.098,55.41 108.194,21.245 108.194,21.245 C 103.971,30.09 86.265,54.425 65.384,62.184 z "
         id="path239"
         style="fill:url(#XMLID_52_)" />
      <linearGradient
         id="linearGradient5012"
         gradientUnits="userSpaceOnUse"
         x1="66.777298"
         y1="65.933098"
         x2="48.762501"
         y2="19.127899">
        <stop
           offset="0"
           style="stop-color:#000000"
           id="stop5014" />
        <stop
           offset="0.0473"
           style="stop-color:#363636"
           id="stop5016" />
        <stop
           offset="0.0999"
           style="stop-color:#6B6B6B"
           id="stop5018" />
        <stop
           offset="0.1534"
           style="stop-color:#989898"
           id="stop5020" />
        <stop
           offset="0.2066"
           style="stop-color:#BDBDBD"
           id="stop5022" />
        <stop
           offset="0.2594"
           style="stop-color:#DADADA"
           id="stop5024" />
        <stop
           offset="0.3118"
           style="stop-color:#EFEFEF"
           id="stop5026" />
        <stop
           offset="0.3637"
           style="stop-color:#FBFBFB"
           id="stop5028" />
        <stop
           offset="0.4142"
           style="stop-color:#FFFFFF"
           id="stop5030" />
        <stop
           offset="0.5"
           style="stop-color:#FFFFFF"
           id="stop5032" />
        <stop
           offset="1"
           style="stop-color:#0066FF"
           id="stop5034" />
      </linearGradient>
      <path
         d="M 50.155,22.876 C 70.974,15.14 99.236,18.423 108.195,21.244 C 108.195,21.244 77.084,8.603 48.762,19.126 C 20.438,29.65 5.629,59.355 5.629,59.355 C 10.443,51.422 29.361,30.603 50.155,22.876 z "
         id="path264"
         style="fill:url(#XMLID_53_)" />
    </g>
    <path
       d="M 6.896,69.535503 L 4.826,72.746503 C 4.671,72.987503 4.691,73.301503 4.877,73.519503 L 6.704,75.667503 C 6.925,75.928503 7.309,75.972503 7.583,75.771503 C 7.858,75.570503 7.93,75.189503 7.749,74.901503 C 6.585,73.052503 8.007,70.212503 8.021,70.183503 C 8.178,69.874503 8.066,69.497503 7.767,69.324503 C 7.465,69.153503 7.083,69.245503 6.896,69.535503 z "
       id="path271"
       style="opacity:0.6;fill:url(#radialGradient5041)" />
  </g>
</svg>
